<?xml version="1.0" standalone="no"?><!DOCTYPE svg PUBLIC "-//W3C//DTD SVG 1.1//EN" "http://www.w3.org/Graphics/SVG/1.1/DTD/svg11.dtd"><svg class="icon" width="200px" height="200.00px" viewBox="0 0 1024 1024" version="1.1" xmlns="http://www.w3.org/2000/svg"><path d="M850.266 364.259l-0.009 0.009 0.646 0.635c24.744 24.744 24.991 64.708 0.742 89.756l-0.742 0.754c-0.287 0.287-0.576 0.57-0.867 0.85l0.011 0.01-139.669 139.674c26.28 85.66 8.18 182.015-54.305 252.944l-0.046-0.044a32.315 32.315 0 0 1-2.654 3.005c-12.372 12.372-32.354 12.496-44.878 0.372l-0.471-0.466-189.865-189.872-203.65 203.65a32 32 0 0 1-16.903 8.856l-47.935 8.716a8 8 0 0 1-9.346-9.036l0.044-0.266 8.715-47.936a32 32 0 0 1 8.856-16.903l203.65-203.65-189.523-189.52-0.062-0.063-0.377-0.371c-12.497-12.497-12.497-32.759 0-45.255 0.473-0.473 0.956-0.928 1.45-1.365 71.067-63.565 168.183-82.112 254.452-55.644l138.814-138.81 0.03 0.03c0.31-0.333 0.625-0.665 0.944-0.994l0.742-0.755c24.744-24.743 64.707-24.99 89.755-0.742l0.762 0.75 0.003-0.005 191.686 191.686z" /></svg>