<?xml version="1.0" standalone="no"?><!DOCTYPE svg PUBLIC "-//W3C//DTD SVG 1.1//EN" "http://www.w3.org/Graphics/SVG/1.1/DTD/svg11.dtd"><svg class="icon" width="200px" height="200.00px" viewBox="0 0 1024 1024" version="1.1" xmlns="http://www.w3.org/2000/svg"><path d="M907.505 140.22L793.382 787.44c-6.138 34.808-39.332 58.051-74.141 51.913a64 64 0 0 1-18.933-6.519l-166.21-88.375L353.81 918.562c-6.356 6.138-16.486 5.961-22.624-0.395a16 16 0 0 1-4.49-11.115l-0.001-272.872L64.337 494.681c-15.604-8.297-21.528-27.673-13.231-43.277a32 32 0 0 1 16.786-14.851l818.122-314.048c8.25-3.167 17.505 0.953 20.671 9.203a16 16 0 0 1 0.82 8.512z m-512.81 530.116v114.212l76.274-73.657-76.274-40.555z m422.994-412.34L417.806 605.61l309.567 164.599 90.316-512.213z m-110.573 6.019L166.008 471.727l187.486 99.688 353.622-307.4z" /></svg>