<?xml version="1.0" standalone="no"?><!DOCTYPE svg PUBLIC "-//W3C//DTD SVG 1.1//EN" "http://www.w3.org/Graphics/SVG/1.1/DTD/svg11.dtd"><svg class="icon" width="200px" height="200.00px" viewBox="0 0 1024 1024" version="1.1" xmlns="http://www.w3.org/2000/svg"><path d="M350.205 691.983L484.4 763.336c7.803 4.149 10.765 13.837 6.616 21.639a16 16 0 0 1-3.013 3.998l-134.194 129.59c-6.356 6.138-16.485 5.961-22.624-0.395a16 16 0 0 1-4.49-11.115V706.111c0-8.837 7.163-16 16-16a16 16 0 0 1 7.511 1.872z m557.3-551.763L793.382 787.44c-6.138 34.81-39.332 58.052-74.141 51.914a64 64 0 0 1-18.933-6.519L341.455 642.028 845.944 174.4 275.989 607.22 64.337 494.681c-15.605-8.297-21.529-27.673-13.231-43.277a32 32 0 0 1 16.786-14.851l818.122-314.048c8.25-3.167 17.505 0.953 20.671 9.203a16 16 0 0 1 0.82 8.512z" /></svg>