<?xml version="1.0" encoding="UTF-8"?>
<svg width="200" height="200" viewBox="0 0 1024 1024" version="1.1" xmlns="http://www.w3.org/2000/svg" xmlns:xlink="http://www.w3.org/1999/xlink">
    <title>icon/edit/delete</title>
    <g id="icon/edit/delete" stroke="none" stroke-width="1" fill="none" fill-rule="evenodd">
        <g id="编组" fill-rule="nonzero" opacity="0">
            <g>
                <g id="经度" transform="translate(64.000000, 0.000000)" fill="#979797">
                    <path d="M896,0 L896,1024 L0,1024 L0,0 L896,0 Z M895,1 L1,1 L1,1023 L895,1023 L895,1 Z" id="路径"></path>
                    <path d="M768,0 L768,1024 L128,1024 L128,0 L768,0 Z M767,1 L129,1 L129,1023 L767,1023 L767,1 Z" id="路径"></path>
                    <path d="M640,0 L640,1024 L256,1024 L256,0 L640,0 Z M639,1.00195695 L257,1.00195695 L257,1022.99804 L639,1022.99804 L639,1.00195695 Z" id="路径"></path>
                </g>
                <g id="纬度" transform="translate(0.000000, 64.000000)" fill="#979797">
                    <path d="M65,-63 L65,959 L959,959 L959,-63 L65,-63 Z M64,-64 L960,-64 L960,960 L64,960 L64,-64 Z" id="Rectangle" transform="translate(512.000000, 448.000000) rotate(90.000000) translate(-512.000000, -448.000000) "></path>
                    <path d="M193,-63 L193,959 L831,959 L831,-63 L193,-63 Z M192,-64 L832,-64 L832,960 L192,960 L192,-64 Z" id="Rectangle" transform="translate(512.000000, 448.000000) rotate(90.000000) translate(-512.000000, -448.000000) "></path>
                    <path d="M321,-63 L321,959 L703,959 L703,-63 L321,-63 Z M320,-64 L704,-64 L704,960 L320,960 L320,-64 Z" id="Rectangle" transform="translate(512.000000, 448.000000) rotate(90.000000) translate(-512.000000, -448.000000) "></path>
                </g>
                <g id="交叉" fill="#979797">
                    <polygon id="路径" points="0 0.706131566 0.706131566 0 1024 1023.29387 1023.29387 1024"></polygon>
                    <polygon id="路径" points="0.706131566 1024 0 1023.29387 1023.29387 0 1024 0.706131566"></polygon>
                    <polygon id="路径" points="513 0 513 511.999 1024 512 1024 513 513 513 513 1024 512 1024 512 513 0 513 0 512 512 511.999 512 0"></polygon>
                </g>
                <g id="场景" transform="translate(288.000000, 288.000000)">
                    <rect id="矩形" fill="#1D78F4" opacity="0.201915923" x="0" y="0" width="448" height="448"></rect>
                    <rect id="矩形" fill="#1DBF6E" opacity="0.211425781" x="224" y="224" width="448" height="448"></rect>
                </g>
                <path d="M1024,0 L1024,1024 L0,1024 L0,0 L1024,0 Z M1023,1 L1,1 L1,1023 L1023,1023 L1023,1 Z" id="外框" fill="#979797"></path>
                <path d="M896,96 L896,928 C896,945.673112 881.673112,960 864,960 L160,960 C142.326888,960 128,945.673112 128,928 L128,96 C128,78.326888 142.326888,64 160,64 L864,64 C881.673112,64 896,78.326888 896,96 Z M864,65 L160,65 C142.879173,65 129,78.8791728 129,96 L129,928 C129,945.120827 142.879173,959 160,959 L864,959 C881.120827,959 895,945.120827 895,928 L895,96 C895,78.8791728 881.120827,65 864,65 Z" id="形状" fill="#000000"></path>
                <path d="M928,896 L96,896 C78.326888,896 64,881.673112 64,864 L64,160 C64,142.326888 78.326888,128 96,128 L928,128 C945.673112,128 960,142.326888 960,160 L960,864 C960,881.673112 945.673112,896 928,896 Z M959,864 L959,160 C959,142.879173 945.120827,129 928,129 L96,129 C78.8791728,129 65,142.879173 65,160 L65,864 C65,881.120827 78.8791728,895 96,895 L928,895 C945.120827,895 959,881.120827 959,864 Z" id="形状" fill="#000000"></path>
                <path d="M928,128 L928,896 C928,913.673112 913.673112,928 896,928 L128,928 C110.326888,928 96,913.673112 96,896 L96,128 C96,110.326888 110.326888,96 128,96 L896,96 C913.673112,96 928,110.326888 928,128 Z M896,97 L128,97 C110.879173,97 97,110.879173 97,128 L97,896 C97,913.120827 110.879173,927 128,927 L896,927 C913.120827,927 927,913.120827 927,896 L927,128 C927,110.879173 913.120827,97 896,97 Z" id="形状" fill="#000000"></path>
                <path d="M512,64 C759.423568,64 960,264.576432 960,512 C960,759.423568 759.423568,960 512,960 C264.576432,960 64,759.423568 64,512 C64,264.576432 264.576432,64 512,64 Z M512,65 C265.128717,65 65,265.128717 65,512 C65,758.871283 265.128717,959 512,959 C758.871283,959 959,758.871283 959,512 C959,265.128717 758.871283,65 512,65 Z" id="圆形" fill="#000000"></path>
                <path d="M512,280 C383.869938,280 280,383.869938 280,512 C280,640.130062 383.869938,744 512,744 C640.130062,744 744,640.130062 744,512 C744,383.869938 640.130062,280 512,280 Z M512,281 C639.577777,281 743,384.422223 743,512 C743,639.577777 639.577777,743 512,743 C384.422223,743 281,639.577777 281,512 C281,384.422223 384.422223,281 512,281 Z" id="中心圆" fill="#000000"></path>
            </g>
        </g>
        <path d="M640,64 C675.346224,64 704,92.653776 704,128 L704,198 L860.5,198 C880.106109,198 896,213.893891 896,233.5 C896,253.106109 880.106109,269 860.5,269 L852,269 L852,897.716475 C852,932.114716 823.346224,960 788,960 L236,960 C200.653776,960 172,932.114716 172,897.716475 L172,269 L163.5,269 C143.893891,269 128,253.106109 128,233.5 C128,213.893891 143.893891,198 163.5,198 L320,198 L320,128 C320,92.653776 348.653776,64 384,64 L640,64 Z M780,269 L244,269 L244,890 L780,890 L780,269 Z M416,416 C435.882251,416 452,432.117749 452,452 L452,700 C452,719.882251 435.882251,736 416,736 C396.117749,736 380,719.882251 380,700 L380,452 C380,432.117749 396.117749,416 416,416 Z M608,416 C627.882251,416 644,432.117749 644,452 L644,700 C644,719.882251 627.882251,736 608,736 C588.117749,736 572,719.882251 572,700 L572,452 C572,432.117749 588.117749,416 608,416 Z M640,134 L384,134 L384,198 L640,198 L640,134 Z" fill="" id="形状" ></path>
    </g>
</svg>