<?xml version="1.0" standalone="no"?><!DOCTYPE svg PUBLIC "-//W3C//DTD SVG 1.1//EN" "http://www.w3.org/Graphics/SVG/1.1/DTD/svg11.dtd"><svg class="icon" width="200px" height="200.00px" viewBox="0 0 1024 1024" version="1.1" xmlns="http://www.w3.org/2000/svg"><path d="M749.397 471.347c67.17-67.17 67.17-176.074 0-243.244-67.17-67.17-176.074-67.17-243.244 0L230.38 503.874c-13.278 13.278-34.806 13.278-48.083 0l-5.657-5.656c-13.278-13.278-13.278-34.806 0-48.084l275.771-275.771c96.85-96.85 253.875-96.85 350.725 0 95.882 95.881 96.84 250.74 2.877 347.801L470.09 858.134c-69.513 69.514-182.217 69.514-251.73 0-68.818-68.817-69.506-179.966-2.064-249.63l282.785-282.82c42.177-42.177 110.559-42.177 152.736 0 41.754 41.754 42.172 109.193 1.252 151.461l-224.7 224.718c-13.275 13.28-34.803 13.28-48.081 0.003v-0.002l-5.657-5.657c-13.278-13.277-13.278-34.805 0-48.083l223.445-223.446c12.497-12.496 12.497-32.758 0-45.254-12.496-12.497-32.758-12.497-45.254 0L272.1 660.145c-39.833 39.833-39.833 104.416 0 144.25 39.834 39.833 104.417 39.833 144.25 0l333.047-333.048z" /></svg>