<?xml version="1.0" standalone="no"?><!DOCTYPE svg PUBLIC "-//W3C//DTD SVG 1.1//EN" "http://www.w3.org/Graphics/SVG/1.1/DTD/svg11.dtd"><svg class="icon" width="200px" height="200.00px" viewBox="0 0 1024 1024" version="1.1" xmlns="http://www.w3.org/2000/svg"><path d="M619 832c0 1.048-0.202 2.05-0.568 2.967l0.164-0.498C604.058 879.459 561.829 912 512 912c-49.653 0-91.76-32.312-106.44-77.055A8 8 0 0 1 413 824l0.124 0.001L611 824a8 8 0 0 1 8 8zM512 112c161.842 0 293.346 129.886 295.96 291.105L808 408v312h20c19.882 0 36 16.118 36 36v20c0 8.837-7.163 16-16 16H176c-8.837 0-16-7.163-16-16v-20c0-19.882 16.118-36 36-36h19.999L216 408l0.04-4.895C218.654 241.886 350.158 112 512 112z" /></svg>