<?xml version="1.0" standalone="no"?><!DOCTYPE svg PUBLIC "-//W3C//DTD SVG 1.1//EN" "http://www.w3.org/Graphics/SVG/1.1/DTD/svg11.dtd"><svg class="icon" width="200px" height="200.00px" viewBox="0 0 1024 1024" version="1.1" xmlns="http://www.w3.org/2000/svg"><path d="M644.223 82.745l201.032 201.03A64 64 0 0 1 864 329.03V896c0 35.346-28.654 64-64 64H224c-35.346 0-64-28.654-64-64V128c0-35.347 28.654-64 64-64h374.968a64 64 0 0 1 45.255 18.745zM446 128H320v457.035c0 8.837 7.163 16 16 16a16 16 0 0 0 10.285-3.743l36.58-30.695 36.85 30.921c6.77 5.68 16.862 4.797 22.542-1.972a16 16 0 0 0 3.743-10.285V128zM606 152.002V322h169.998L606 152.002z" /></svg>