<?xml version="1.0" standalone="no"?><!DOCTYPE svg PUBLIC "-//W3C//DTD SVG 1.1//EN" "http://www.w3.org/Graphics/SVG/1.1/DTD/svg11.dtd"><svg class="icon" width="200px" height="200.00px" viewBox="0 0 1024 1024" version="1.1" xmlns="http://www.w3.org/2000/svg"><path d="M730 435.992l145.928 70.774A64 64 0 0 1 912 564.35v185.242a64 64 0 0 1-32 55.425l-153.996 88.91a64 64 0 0 1-64-0.001l-150-86.603-150 86.603a64 64 0 0 1-64 0L143.999 805.01a64 64 0 0 1-32-55.425V564.252a64 64 0 0 1 35.944-57.523L294 435.492V258.388a64 64 0 0 1 35.945-57.523l153.684-74.956a64 64 0 0 1 56.111 0l154.316 75.265A64 64 0 0 1 730 258.697v177.295z m114 311.29V630.38l-118 68.127v116.902l118-68.127z m-364 0V630.411l-118 68.127v116.871l118-68.127z m64-116.845v116.84l118 68.127v-116.84l-118-68.127z m-368-2.341v116.871l122 70.437V698.533l-122-70.437z m526.237-129.989l-136.3 66.477 128.014 73.908 135.6-78.289-127.314-62.096z m-381.497 0l-126.785 61.837 136.049 78.548 127.565-73.649-136.83-66.736zM358 322.096v118.528l122 59.502V392.533l-122-70.437z m308 118.028V322.102l-122 70.436v107.089l122-59.503zM511.684 187.882l-135.6 66.137 135.92 78.473 135.627-78.304-135.947-66.306z" /></svg>