<?xml version="1.0" standalone="no"?><!DOCTYPE svg PUBLIC "-//W3C//DTD SVG 1.1//EN" "http://www.w3.org/Graphics/SVG/1.1/DTD/svg11.dtd"><svg class="icon" width="200px" height="200.00px" viewBox="0 0 1024 1024" version="1.1" xmlns="http://www.w3.org/2000/svg"><path d="M64 800V352c0-35.346 28.654-64 64-64h639.111c35.303 0 63.939 28.586 64 63.889l0.778 448c0.06 34.993-27.974 63.475-62.83 64.1l-1.17 0.011H128c-35.346 0-64-28.654-64-64z m696-240H136v232h624V560z m200-336v479c0 17.673-14.327 32-32 32h-8c-17.673 0-32-14.327-32-32V232H225c-17.673 0-32-14.327-32-32v-8c0-17.673 14.327-32 32-32h671c35.346 0 64 28.654 64 64zM760 360H136v136h624V360z m-568 72v-8c0-13.255 10.745-24 24-24h352c13.255 0 24 10.745 24 24v8c0 13.255-10.745 24-24 24H216c-13.255 0-24-10.745-24-24z m512-8v8c0 13.255-10.745 24-24 24h-8c-13.255 0-24-10.745-24-24v-8c0-13.255 10.745-24 24-24h8c13.255 0 24 10.745 24 24z" /></svg>