<?xml version="1.0" standalone="no"?><!DOCTYPE svg PUBLIC "-//W3C//DTD SVG 1.1//EN" "http://www.w3.org/Graphics/SVG/1.1/DTD/svg11.dtd"><svg class="icon" width="200px" height="200.00px" viewBox="0 0 1024 1024" version="1.1" xmlns="http://www.w3.org/2000/svg"><path d="M563.458 83.997c105.847 4.134 198.042 20.846 258.337 44.811 24.37 8.825 41.853 32.029 42.2 59.362l0.005 0.83v5l0.008 22.107-0.009 0.013L864 873c0 27.706-17.606 51.3-42.24 60.206-68.945 27.395-179.587 45.31-304.651 45.793h-5.506l-5.953-0.014c-123.73-0.585-233.235-18.239-302.042-45.24l0.019-0.056c-25.358-8.51-43.629-32.466-43.629-60.689 0-2.023 0.096-4.025 0.28-6h-0.28V189c0-25.85 15.326-48.119 37.386-58.22l-0.005-0.01 0.331-0.138a63.578 63.578 0 0 1 4.517-1.833c60.293-23.96 152.48-40.668 258.315-44.802h102.916zM511.999 367L387.045 583.427C371.221 607.2 362 635.743 362 666.44c0 82.843 67.157 150 150 150s150-67.157 150-150c0-30.37-9.026-58.634-24.542-82.252l-0.503-0.76L511.999 367z m0 128l69.788 120.876-0.151 0.088C591.93 630.14 598 647.58 598 666.44c0 47.497-38.504 86-86 86s-86-38.503-86-86c0-18.586 5.896-35.794 15.92-49.858l0.444-0.618-0.151-0.088L511.999 495zM535.5 641.44c-16.886 0-31.416 10.085-37.897 24.56l-0.193 0.44-0.07 0.002c-6.85 13.076-20.553 21.998-36.34 21.998a40.861 40.861 0 0 1-16.424-3.422l-0.578-0.258 0.483 0.218c8.125 29.663 35.277 51.462 67.519 51.462 26.033 0 48.746-14.21 60.806-35.299a41.332 41.332 0 0 0 4.194-18.2c0-22.92-18.58-41.5-41.5-41.5zM512 155c-96.8 0-186.868 11.111-251.369 29.924-10.345 3.017-19.755 6.162-28.121 9.347l0.009 0.005c1.146 0.606 2.33 1.212 3.549 1.819l1.481 0.728c1.748 0.85 3.567 1.7 5.455 2.548l1.635 0.727c0.826 0.364 1.665 0.727 2.516 1.089l1.719 0.724c1.156 0.483 2.335 0.964 3.536 1.445l1.817 0.72 1.849 0.717 1.88 0.715c0.633 0.238 1.271 0.476 1.914 0.713l1.944 0.71 0.984 0.355 1.992 0.706c2.007 0.704 4.06 1.403 6.158 2.097l2.114 0.692 2.144 0.688 2.003 0.631C337.47 230.9 421.59 242 512 242c90.412 0 174.53-11.1 234.79-29.9l2.165-0.682 2.135-0.686 1.056-0.344 2.09-0.692 1.034-0.348 2.044-0.697 1.011-0.35 2-0.703a328.04 328.04 0 0 0 2.94-1.059l1.92-0.71c2.541-0.947 4.998-1.902 7.368-2.86l1.762-0.72c1.745-0.721 3.44-1.444 5.087-2.169l1.63-0.724 1.595-0.726a181.27 181.27 0 0 0 8.164-3.992l0.698-0.368c-8.11-3.087-17.2-6.136-27.172-9.068l-0.948-0.278C698.868 166.111 608.799 155 512 155z" /></svg>