<?xml version="1.0" standalone="no"?><!DOCTYPE svg PUBLIC "-//W3C//DTD SVG 1.1//EN" "http://www.w3.org/Graphics/SVG/1.1/DTD/svg11.dtd"><svg class="icon" width="200px" height="200.00px" viewBox="0 0 1024 1024" version="1.1" xmlns="http://www.w3.org/2000/svg"><path d="M184 253.984V270c0 35.992 25.02 66.14 58.615 74.002h538.77C814.98 336.141 840 305.992 840 270v-16.016c0-17.673 14.327-32 32-32h8c17.673 0 32 14.327 32 32V270c0 66.416-43.748 122.613-103.998 141.349L808 540h72c17.673 0 32 14.327 32 32v8c0 17.673-14.327 32-32 32h-72v52c0 19.52-1.89 38.598-5.495 57.062 62.314 16.74 108.383 73.149 109.475 140.49l0.002 18.464c0.003 17.673-14.323 32.001-31.996 32.002l-0.002-0.002H872c-17.673 0-32-14.327-32-32V864c0-36.466-25.683-66.934-59.947-74.301C732.79 890.329 630.532 960 512 960c-118.532 0-220.791-69.671-268.06-170.296C209.683 797.066 184 827.534 184 864v16.016c0 17.673-14.327 32-32 32h-8c-17.673 0.013-32-14.314-32-31.987 0-0.005 0-0.009 0.013-0.013l0.007-18.463c1.092-67.342 47.16-123.75 109.476-140.495C217.89 702.598 216 683.52 216 664v-52h-72c-17.673 0-32-14.327-32-32v-8c0-17.673 14.327-32 32-32h72V411.35c-59.518-18.507-102.931-73.57-103.98-138.927l-0.002-18.439c-0.004-17.673 14.322-32 31.995-32.002 0.001 0 0.002 0 0.003 0.002H152c17.673 0 32 14.327 32 32zM736 416H288v248c0 123.712 100.288 224 224 224s224-100.288 224-224V416zM544 532v256c0 15.464-12.536 28-28 28h-8c-15.464 0-28-12.536-28-28V532c0-15.464 12.536-28 28-28h8c15.464 0 28 12.536 28 28zM512 64c104.978 0 190.279 84.25 191.977 188.825V256c0 17.673-14.327 32-32 32H664c-17.673-0.001-32-14.327-32.001-32 0-66.274-53.726-120-120-120-65.611 0-118.924 52.657-119.984 118.016V256c-0.007 17.671-14.333 31.996-32.005 32h-8.007c-17.673 0.02-32-14.307-32-31.98 0-0.007 0-0.014 0.02-0.02l0.002-3.175C321.72 148.25 407.022 64 512 64z" /></svg>