<?xml version="1.0" standalone="no"?><!DOCTYPE svg PUBLIC "-//W3C//DTD SVG 1.1//EN" "http://www.w3.org/Graphics/SVG/1.1/DTD/svg11.dtd"><svg class="icon" width="200px" height="200.00px" viewBox="0 0 1024 1024" version="1.1" xmlns="http://www.w3.org/2000/svg"><path d="M640 904v20c0 19.882-16.118 36-36 36H420c-19.882 0-36-16.118-36-36v-20c0-8.837 7.163-16 16-16h224c8.837 0 16 7.163 16 16zM512 64c185.568 0 336 150.432 336 336 0 128.45-72.079 240.066-177.996 296.606L670.002 760C670 795.345 641.345 824 606 824H418c-35.346 0-64-28.654-64.002-64l-0.001-63.393C248.079 640.067 176 528.45 176 400c0-185.568 150.432-336 336-336z" /></svg>