<?xml version="1.0" standalone="no"?><!DOCTYPE svg PUBLIC "-//W3C//DTD SVG 1.1//EN" "http://www.w3.org/Graphics/SVG/1.1/DTD/svg11.dtd"><svg class="icon" width="200px" height="200.00px" viewBox="0 0 1024 1024" version="1.1" xmlns="http://www.w3.org/2000/svg"><path d="M640 904v20c0 19.882-16.118 36-36 36H420c-19.882 0-36-16.118-36-36v-20c0-8.837 7.163-16 16-16h224c8.837 0 16 7.163 16 16zM346 760l-0.002-67.804C244.467 634.39 176 525.191 176 400c0-185.568 150.432-336 336-336s336 150.432 336 336c0 125.19-68.466 234.39-169.998 292.196V760c-0.003 35.346-28.656 64-64.002 64H410c-35.346 0-64-28.654-64-64z m166-624c-145.803 0-264 118.197-264 264 0 112.692 70.608 208.892 169.997 246.774L418 752h188l0.004-105.227C705.392 608.891 776 512.691 776 400c0-145.803-118.197-264-264-264z" /></svg>