<?xml version="1.0" standalone="no"?><!DOCTYPE svg PUBLIC "-//W3C//DTD SVG 1.1//EN" "http://www.w3.org/Graphics/SVG/1.1/DTD/svg11.dtd"><svg class="icon" width="200px" height="200.00px" viewBox="0 0 1024 1024" version="1.1" xmlns="http://www.w3.org/2000/svg"><path d="M944 864H80c-8.837 0-16-7.163-16-16v-24c0-17.673 14.327-32 32-32h832c17.673 0 32 14.327 32 32v24c0 8.837-7.163 16-16 16z m-16-640v448c0 35.346-28.654 64-64 64H160c-35.346 0-64-28.654-64-64V224c0-35.346 28.654-64 64-64h704c35.346 0 64 28.654 64 64z m-72 8H168v432h688V232z m-73.867 112.082l-210.008 210.01c-24.742 24.745-64.706 24.993-89.754 0.744l-0.754-0.742v-0.004l-87.683-87.69L282.21 578.124c-11.716 11.716-30.71 11.716-42.426 0l-5.657-5.657c-11.716-11.716-11.716-30.71 0-42.426l114.551-114.552c24.994-24.993 65.516-24.993 90.51 0l87.686 87.684 207.175-207.174c11.716-11.716 30.71-11.716 42.427 0l5.657 5.657c11.715 11.715 11.715 30.71 0 42.426z" /></svg>