<?xml version="1.0" standalone="no"?><!DOCTYPE svg PUBLIC "-//W3C//DTD SVG 1.1//EN" "http://www.w3.org/Graphics/SVG/1.1/DTD/svg11.dtd"><svg class="icon" width="200px" height="200.00px" viewBox="0 0 1024 1024" version="1.1" xmlns="http://www.w3.org/2000/svg"><path d="M438.79 167.503L544.255 256H864c35.346 0 64 28.654 64 64v480c0 35.346-28.654 64-64 64H160c-35.346 0-64-28.654-64-64V224c0-34.993 28.08-63.426 62.938-63.991L160 160l258.222 0.016a32 32 0 0 1 20.567 7.487zM397.418 232H168v560h688V328H588.657l-0.013 0.017h-76.795L397.419 232z m384.714 207.082l-210.008 210.01c-24.742 24.745-64.706 24.993-89.754 0.744l-0.754-0.742v-0.004l-87.683-87.69L282.21 673.124c-11.716 11.716-30.71 11.716-42.426 0l-5.657-5.657c-11.716-11.716-11.716-30.71 0-42.426l114.551-114.552c24.994-24.993 65.516-24.993 90.51 0l87.686 87.684 207.175-207.174c11.716-11.716 30.71-11.716 42.427 0l5.657 5.657c11.715 11.715 11.715 30.71 0 42.426z" /></svg>