<?xml version="1.0" standalone="no"?><!DOCTYPE svg PUBLIC "-//W3C//DTD SVG 1.1//EN" "http://www.w3.org/Graphics/SVG/1.1/DTD/svg11.dtd"><svg class="icon" width="200px" height="200.00px" viewBox="0 0 1024 1024" version="1.1" xmlns="http://www.w3.org/2000/svg"><path d="M184 192v600h696c17.673 0 32 14.327 32 32v8c0 17.673-14.327 32-32 32H144c-17.673 0-32-14.327-32-32V192c0-17.673 14.327-32 32-32h8c17.673 0 32 14.327 32 32z m176 464v48c0 17.673-14.327 32-32 32h-8c-17.673 0-32-14.327-32-32v-48c0-17.673 14.327-32 32-32h8c17.673 0 32 14.327 32 32z m149-240v288c0 17.673-14.327 32-32 32h-8c-17.673 0-32-14.327-32-32V416c0-17.673 14.327-32 32-32h8c17.673 0 32 14.327 32 32z m149 128v160c0 17.673-14.327 32-32 32h-8c-17.673 0-32-14.327-32-32V544c0-17.673 14.327-32 32-32h8c17.673 0 32 14.327 32 32z m149-224v384c0 17.673-14.327 32-32 32h-8c-17.673 0-32-14.327-32-32V320c0-17.673 14.327-32 32-32h8c17.673 0 32 14.327 32 32z" /></svg>