<?xml version="1.0" standalone="no"?><!DOCTYPE svg PUBLIC "-//W3C//DTD SVG 1.1//EN" "http://www.w3.org/Graphics/SVG/1.1/DTD/svg11.dtd"><svg class="icon" width="200px" height="200.00px" viewBox="0 0 1024 1024" version="1.1" xmlns="http://www.w3.org/2000/svg"><path d="M184 192v600h696c17.673 0 32 14.327 32 32v8c0 17.673-14.327 32-32 32H144c-17.673 0-32-14.327-32-32V192c0-17.673 14.327-32 32-32h8c17.673 0 32 14.327 32 32z m657.96 173.91L629.121 578.75c-24.74 24.745-64.704 24.993-89.752 0.744l-0.755-0.742-87.68-87.696-108.896 108.896c-13.278 13.278-34.805 13.278-48.083 0l-5.657-5.657c-13.278-13.278-13.278-34.805 0-48.083l117.38-117.38c24.994-24.993 65.516-24.994 90.51 0l87.686 87.683L788.22 312.17c13.278-13.278 34.806-13.278 48.084 0l5.656 5.657c13.278 13.278 13.278 34.805 0 48.083z" /></svg>