<?xml version="1.0" standalone="no"?><!DOCTYPE svg PUBLIC "-//W3C//DTD SVG 1.1//EN" "http://www.w3.org/Graphics/SVG/1.1/DTD/svg11.dtd"><svg class="icon" width="200px" height="200.00px" viewBox="0 0 1024 1024" version="1.1" xmlns="http://www.w3.org/2000/svg"><path d="M944 864H80c-8.837 0-16-7.163-16-16v-24c0-17.673 14.327-32 32-32h832c17.673 0 32 14.327 32 32v24c0 8.837-7.163 16-16 16z m-80-704c35.346 0 64 28.654 64 64v448c0 35.346-28.654 64-64 64H160c-35.346 0-64-28.654-64-64V224c0-35.346 28.654-64 64-64h704z m-87.524 135.999c-11.716-11.716-30.711-11.716-42.427 0L526.874 503.173l-87.686-87.684c-24.994-24.993-65.516-24.993-90.51 0L234.127 530.041c-11.716 11.715-11.716 30.71 0 42.426l5.657 5.657 0.353 0.348c11.742 11.366 30.475 11.25 42.073-0.348L393.934 466.4l87.683 87.69v0.004l0.754 0.742c25.048 24.249 65.012 24.001 89.754-0.745l210.008-210.009c11.715-11.716 11.715-30.71 0-42.426z" /></svg>