<?xml version="1.0" standalone="no"?><!DOCTYPE svg PUBLIC "-//W3C//DTD SVG 1.1//EN" "http://www.w3.org/Graphics/SVG/1.1/DTD/svg11.dtd"><svg class="icon" width="200px" height="200.00px" viewBox="0 0 1024 1024" version="1.1" xmlns="http://www.w3.org/2000/svg"><path d="M500 192.01V530h332c17.673 0 32 14.327 32 32v4l-0.045 0.039C860.727 784.169 682.897 960 464 960 243.086 960 64 780.914 64 560c0-218.705 175.522-396.414 393.385-399.946l10.582-0.011c17.673-0.018 32.015 14.294 32.033 31.967z m80-112.53c0.724 0 1.436 0.048 2.134 0.141l0.003-0.01c193.196 17.3 346.83 171.959 362.539 365.606l0.226 3.087c0.071 0.612 0.108 1.235 0.108 1.866 0 8.67-6.895 15.728-15.5 15.992l-0.001 0.008h-0.744L596 466.018c-17.668-0.022-31.986-14.347-32-32.014V95.48c0-8.731 6.994-15.83 15.685-16H580z m48.004 72.598L628 402h245.368c-28.332-122.532-123.685-219.404-245.364-249.922z" /></svg>