<?xml version="1.0" standalone="no"?><!DOCTYPE svg PUBLIC "-//W3C//DTD SVG 1.1//EN" "http://www.w3.org/Graphics/SVG/1.1/DTD/svg11.dtd"><svg class="icon" width="200px" height="200.00px" viewBox="0 0 1024 1024" version="1.1" xmlns="http://www.w3.org/2000/svg"><path d="M880 912H144c-17.673 0-32-14.327-32-32v-8c0-17.673 14.327-32 32-32h736c17.673 0 32 14.327 32 32v8c0 17.673-14.327 32-32 32zM358 480v272c0 17.673-14.327 32-32 32H193c-17.673 0-32-14.327-32-32V480c0-17.673 14.327-32 32-32h133c17.673 0 32 14.327 32 32z m252-336v608c0 17.673-14.327 32-32 32H445c-17.673 0-32-14.327-32-32V144c0-17.673 14.327-32 32-32h133c17.673 0 32 14.327 32 32z m57 608V288c0-17.673 14.327-32 32-32h133c17.673 0 32 14.327 32 32v464c0 17.673-14.327 32-32 32H699c-17.673 0-32-14.327-32-32z m125-424h-53v384h53V328zM538 184h-53v528h53V184zM286 520h-53v192h53V520z" /></svg>