<?xml version="1.0" standalone="no"?><!DOCTYPE svg PUBLIC "-//W3C//DTD SVG 1.1//EN" "http://www.w3.org/Graphics/SVG/1.1/DTD/svg11.dtd"><svg class="icon" width="200px" height="200.00px" viewBox="0 0 1024 1024" version="1.1" xmlns="http://www.w3.org/2000/svg"><path d="M160 160l258.222 0.016a32 32 0 0 1 20.567 7.487L544.256 256H864c35.346 0 64 28.654 64 64v480c0 35.346-28.654 64-64 64H160c-35.346 0-64-28.654-64-64V224c0-34.993 28.08-63.426 62.938-63.991L160 160z m616.476 230.999c-11.716-11.716-30.711-11.716-42.427 0L526.874 598.173l-87.686-87.684c-24.994-24.993-65.516-24.993-90.51 0L234.127 625.041c-11.716 11.715-11.716 30.71 0 42.426l5.657 5.657 0.353 0.348c11.742 11.366 30.475 11.25 42.073-0.348L393.934 561.4l87.683 87.69v0.004l0.754 0.742c25.048 24.249 65.012 24.001 89.754-0.745l210.008-210.009c11.715-11.716 11.715-30.71 0-42.426z" /></svg>