<?xml version="1.0" standalone="no"?><!DOCTYPE svg PUBLIC "-//W3C//DTD SVG 1.1//EN" "http://www.w3.org/Graphics/SVG/1.1/DTD/svg11.dtd"><svg class="icon" width="200px" height="200.00px" viewBox="0 0 1024 1024" version="1.1" xmlns="http://www.w3.org/2000/svg"><path d="M512 64c247.424 0 448 200.576 448 448S759.424 960 512 960 64 759.424 64 512 264.576 64 512 64z m0 72c-207.66 0-376 168.34-376 376s168.34 376 376 376 376-168.34 376-376-168.34-376-376-376z m172.661 285.192l-183.75 218.986c-11.36 13.539-31.544 15.305-45.083 3.945a32 32 0 0 1-3.944-3.944L352.98 522.31c-9.94-11.846-8.396-29.507 3.45-39.447l6.129-5.142c11.846-9.94 29.507-8.395 39.447 3.45l74.39 88.654 159.238-189.773c9.94-11.846 27.601-13.391 39.448-3.451l6.128 5.142c11.846 9.94 13.391 27.601 3.451 39.448z" /></svg>