<?xml version="1.0" standalone="no"?><!DOCTYPE svg PUBLIC "-//W3C//DTD SVG 1.1//EN" "http://www.w3.org/Graphics/SVG/1.1/DTD/svg11.dtd"><svg class="icon" width="200px" height="200.00px" viewBox="0 0 1024 1024" version="1.1" xmlns="http://www.w3.org/2000/svg"><path d="M512 64c247.424 0 448 200.576 448 448S759.424 960 512 960 64 759.424 64 512 264.576 64 512 64z m163.082 312.602c-11.847-9.94-29.508-8.395-39.448 3.45L476.395 569.827l-74.389-88.653c-9.94-11.846-27.601-13.391-39.447-3.451l-6.128 5.142-0.353 0.3c-11.523 9.993-12.94 27.42-3.098 39.147l98.904 117.868a32 32 0 0 0 3.944 3.944c13.539 11.36 33.723 9.594 45.083-3.945l183.75-218.986c9.94-11.847 8.395-29.508-3.45-39.448z" /></svg>