<?xml version="1.0" standalone="no"?><!DOCTYPE svg PUBLIC "-//W3C//DTD SVG 1.1//EN" "http://www.w3.org/Graphics/SVG/1.1/DTD/svg11.dtd"><svg class="icon" width="200px" height="200.00px" viewBox="0 0 1024 1024" version="1.1" xmlns="http://www.w3.org/2000/svg"><path d="M523.575 93.618c228.094 0 413 184.906 413 413 0 123.139-53.89 233.691-139.375 309.358l51.302 51.301c11.716 11.716 11.716 30.71 0 42.426l-5.658 5.658c-11.716 11.715-30.71 11.715-42.426 0l-58.264-58.26c-63.394 39.62-138.312 62.517-218.579 62.517-79.234 0-153.258-22.313-216.129-60.998l-56.035 56.034c-11.717 11.715-30.711 11.715-42.427 0l-5.655-5.655c-11.715-11.717-11.715-30.711 0-42.427l48.735-48.738c-86.708-75.71-141.489-187.065-141.489-311.216 0-228.094 184.907-413 413-413z m2.344 74.97c-188.33 0-341 152.671-341 341 0 188.33 152.67 341 341 341 188.329 0 341-152.67 341-341 0-188.329-152.671-341-341-341zM553.92 344.66v126.5l157.553 90.965c13.392 7.732 17.98 24.856 10.25 38.249l-4 6.927c-7.731 13.392-24.856 17.98-38.248 10.25v-0.001L505.92 517.348a32 32 0 0 1-16-27.713V344.66c0-15.464 12.536-28 28-28h8c15.465 0 28 12.536 28 28zM313.268 70.136l4.94 8.558c8.829 15.291 3.59 34.845-11.702 43.673-0.337 0.195-0.678 0.383-1.022 0.566-60.278 34.44-111.727 82.57-150.11 140.153l-0.221 0.343c-9.47 14.733-29.024 19.117-43.877 9.836l-7.425-4.64c-14.653-9.156-19.11-28.457-9.953-43.11 0.19-0.303 0.384-0.603 0.584-0.9 44.83-67.733 105.182-124.294 175.985-164.61 13.943-9.182 32.688-5.321 41.869 8.621 0.325 0.494 0.636 0.998 0.932 1.51z m468.13-10.132c70.096 39.914 129.948 95.748 174.636 162.582 9.882 14.652 6.016 34.54-8.635 44.423l-7.4 4.991c-14.235 9.602-33.559 5.846-43.16-8.39a31.089 31.089 0 0 1-0.347-0.524c-38.383-57.584-89.833-105.713-150.11-140.153-15.27-8.087-21.092-27.021-13.005-42.29 0.093-0.176 0.188-0.35 0.284-0.525l5.374-9.694c7.962-14.365 26.062-19.554 40.426-11.592 0.66 0.366 1.306 0.757 1.937 1.172z" /></svg>