<?xml version="1.0" standalone="no"?><!DOCTYPE svg PUBLIC "-//W3C//DTD SVG 1.1//EN" "http://www.w3.org/Graphics/SVG/1.1/DTD/svg11.dtd"><svg class="icon" width="200px" height="200.00px" viewBox="0 0 1024 1024" version="1.1" xmlns="http://www.w3.org/2000/svg"><path d="M827.955 192.388l5.657 5.657c14.84 14.84 14.84 38.9 0 53.74L572.396 513l259.216 259.215c14.84 14.84 14.84 38.9 0 53.74l-5.657 5.657c-14.84 14.84-38.9 14.84-53.74 0L513 572.396 253.785 831.612c-14.84 14.84-38.9 14.84-53.74 0l-5.657-5.657c-14.84-14.84-14.84-38.9 0-53.74L453.603 513 192.388 251.785c-14.84-14.84-14.84-38.9 0-53.74l5.657-5.657c14.84-14.84 38.9-14.84 53.74 0L513 453.603l261.215-261.215c14.84-14.84 38.9-14.84 53.74 0z" /></svg>