<?xml version="1.0" standalone="no"?><!DOCTYPE svg PUBLIC "-//W3C//DTD SVG 1.1//EN" "http://www.w3.org/Graphics/SVG/1.1/DTD/svg11.dtd"><svg class="icon" width="200px" height="200.00px" viewBox="0 0 1024 1024" version="1.1" xmlns="http://www.w3.org/2000/svg"><path d="M512 64c247.424 0 448 200.576 448 448S759.424 960 512 960 64 759.424 64 512 264.576 64 512 64z m0 72c-207.66 0-376 168.34-376 376s168.34 376 376 376 376-168.34 376-376-168.34-376-376-376z m161.22 262.86L560.083 512 673.22 625.136c11.716 11.716 11.716 30.711 0 42.427l-5.657 5.657c-11.715 11.716-30.71 11.716-42.426 0L511.999 560.083 398.863 673.22c-11.716 11.715-30.71 11.716-42.427 0l-5.657-5.657c-11.716-11.716-11.716-30.71 0-42.426l113.137-113.138L350.78 398.86c-11.715-11.716-11.716-30.71 0-42.426l5.654-5.655c11.715-11.716 30.71-11.717 42.426-0.001l113.14 113.137 113.139-113.137c11.716-11.715 30.71-11.715 42.427 0l5.655 5.655c11.716 11.716 11.716 30.71 0 42.427z" /></svg>