<?xml version="1.0" standalone="no"?><!DOCTYPE svg PUBLIC "-//W3C//DTD SVG 1.1//EN" "http://www.w3.org/Graphics/SVG/1.1/DTD/svg11.dtd"><svg class="icon" width="200px" height="200.00px" viewBox="0 0 1024 1024" version="1.1" xmlns="http://www.w3.org/2000/svg"><path d="M512 64c247.424 0 448 200.576 448 448S759.424 960 512 960 64 759.424 64 512 264.576 64 512 64zM398.505 350.431c-11.741-11.366-30.474-11.25-42.072 0.349l-5.655 5.655c-11.715 11.716-11.714 30.71 0 42.426L463.917 512 350.78 625.137l-0.349 0.353c-11.366 11.741-11.25 30.474 0.349 42.073l5.657 5.657c11.716 11.716 30.711 11.715 42.427 0l113.136-113.137L625.137 673.22c11.716 11.716 30.71 11.716 42.426 0l5.657-5.657c11.716-11.716 11.716-30.71 0-42.427L560.083 512 673.221 398.86c11.715-11.716 11.715-30.711-0.001-42.427l-5.655-5.655c-11.717-11.715-30.711-11.715-42.427 0L511.999 463.916 398.86 350.779z" /></svg>