<?xml version="1.0" standalone="no"?><!DOCTYPE svg PUBLIC "-//W3C//DTD SVG 1.1//EN" "http://www.w3.org/Graphics/SVG/1.1/DTD/svg11.dtd"><svg class="icon" width="200px" height="200.00px" viewBox="0 0 1024 1024" version="1.1" xmlns="http://www.w3.org/2000/svg"><path d="M551 199c172.865 0 313 140.135 313 313 0 11.45-0.615 22.758-1.813 33.89l-0.01-0.004C893.465 575.34 913 617.14 913 663.5c0 89.194-72.306 161.5-161.5 161.5H287C162.736 825 62 724.264 62 600c0-118.26 91.237-215.211 207.162-224.303C319.828 271.116 426.992 199 551 199z m0 72c-111.72 0-205.683 76.017-232.987 179.145A153.677 153.677 0 0 0 287 447c-84.5 0-153 68.5-153 153 0 83.655 67.137 151.628 150.47 152.98l2.53 0.02h464.5c49.43 0 89.5-40.07 89.5-89.5 0-38.563-24.389-71.43-58.577-84.014C788.658 558.072 792 535.426 792 512c0-133.1-107.9-241-241-241z" /></svg>