<?xml version="1.0" standalone="no"?><!DOCTYPE svg PUBLIC "-//W3C//DTD SVG 1.1//EN" "http://www.w3.org/Graphics/SVG/1.1/DTD/svg11.dtd"><svg class="icon" width="200px" height="200.00px" viewBox="0 0 1024 1024" version="1.1" xmlns="http://www.w3.org/2000/svg"><path d="M960 200v624c0 35.346-28.654 64-64 64H128c-35.346 0-64-28.654-64-64V200c0-35.346 28.654-64 64-64h768c35.346 0 64 28.654 64 64zM545.51 582.176L426.724 787.928c-8.283 14.348-3.367 32.694 10.98 40.977 14.348 8.283 32.694 3.368 40.977-10.98l118.79-205.75c8.285-14.349 3.369-32.696-10.98-40.98-14.348-8.284-32.695-3.368-40.98 10.98z m-249.995 35.116l-86.47 72.553c-6.769 5.68-7.652 15.772-1.972 22.541a16 16 0 0 0 1.972 1.972l86.468 72.556c12.691 10.649 31.613 8.994 42.262-3.698 10.65-12.691 8.994-31.613-3.697-42.263l-46.298-38.851 46.3-38.85c12.691-10.649 14.347-29.57 3.698-42.261-10.65-12.692-29.571-14.348-42.263-3.699z m394.508 41.755l46.298 38.85-46.3 38.85c-12.691 10.65-14.347 29.571-3.698 42.263 10.65 12.691 29.571 14.347 42.263 3.698l86.47-72.553c6.769-5.68 7.652-15.773 1.972-22.542a16 16 0 0 0-1.972-1.972l-86.468-72.555c-12.691-10.649-31.613-8.994-42.262 3.698-10.65 12.691-8.994 31.613 3.697 42.263zM888 208H136v304h752V208z" /></svg>