<?xml version="1.0" standalone="no"?><!DOCTYPE svg PUBLIC "-//W3C//DTD SVG 1.1//EN" "http://www.w3.org/Graphics/SVG/1.1/DTD/svg11.dtd"><svg class="icon" width="200px" height="200.00px" viewBox="0 0 1024 1024" version="1.1" xmlns="http://www.w3.org/2000/svg"><path d="M764 820c21.372 0 40.135 11.175 50.763 28H860c15.464 0 28 12.536 28 28v8c0 15.464-12.536 28-28 28l-45.237 0.001C804.134 928.826 785.372 940 764 940s-40.134-11.174-50.763-27.999H540c-15.464 0-28-12.537-28-28V876c0-15.464 12.536-28 28-28h173.237c10.628-16.825 29.39-28 50.763-28z m76-676v319.999c0 17.673-14.327 32-32 32h-8c-17.673 0-32-14.327-32-32V152H208v692h200c17.673 0 32 14.327 32 32v8c0 17.673-14.327 32-32 32H200c-35.346 0-64-28.654-64-64V144c0-35.346 28.654-64 64-64h576c35.346 0 64 28.654 64 64zM636 684c21.372 0 40.135 11.175 50.763 28H860c15.464 0 28 12.536 28 28v8c0 15.464-12.536 28-28 28l-173.237 0.001C676.134 792.826 657.372 804 636 804s-40.134-11.174-50.763-27.999H540c-15.464 0-28-12.537-28-28V740c0-15.464 12.536-28 28-28h45.237c10.628-16.825 29.39-28 50.763-28z m128-136c21.372 0 40.135 11.175 50.763 28H860c15.464 0 28 12.536 28 28v8c0 15.464-12.536 28-28 28l-45.237 0.001C804.134 656.826 785.372 668 764 668s-40.134-11.174-50.763-27.999H540c-15.464 0-28-12.537-28-28V604c0-15.464 12.536-28 28-28h173.237c10.628-16.825 29.39-28 50.763-28zM575.455 255.6L454.887 464.429c-7.18 12.435-23.08 16.696-35.516 9.516l-6.691-3.863c-12.416-7.195-16.681-23.082-9.537-35.528l120.38-208.937c7.148-12.454 23.046-16.729 35.488-9.56 0.007 0.004 0.013 0.008 0.009 0.032l6.919 3.994c12.435 7.18 16.696 23.081 9.516 35.517z m-191.614 52.18l-49.36 41.421 49.362 41.42c11 9.23 12.434 25.63 3.204 36.63l-5.14 6.125c-9.23 11-25.63 12.435-36.63 3.205l-89.532-75.123c-6.769-5.68-7.652-15.772-1.972-22.541a16 16 0 0 1 1.972-1.972l89.53-75.125c11-9.23 27.4-7.795 36.63 3.205l5.14 6.125c9.23 11 7.795 27.4-3.204 36.63z m341.212 20.761c6.77 5.68 7.652 15.772 1.972 22.542a16 16 0 0 1-1.972 1.972l-89.53 75.125c-11 9.23-27.4 7.795-36.63-3.205l-5.14-6.126c-9.229-11-7.794-27.399 3.204-36.63l49.361-41.421-49.362-41.42c-11-9.23-12.435-25.629-3.205-36.629l5.14-6.125c9.23-11 25.63-12.435 36.63-3.205l89.532 75.122z" /></svg>