<?xml version="1.0" standalone="no"?><!DOCTYPE svg PUBLIC "-//W3C//DTD SVG 1.1//EN" "http://www.w3.org/Graphics/SVG/1.1/DTD/svg11.dtd"><svg class="icon" width="200px" height="200.00px" viewBox="0 0 1024 1024" version="1.1" xmlns="http://www.w3.org/2000/svg"><path d="M620.924 400v0.019c8.722 0.134 15.75 7.245 15.75 15.998 0 1.694-0.262 3.326-0.75 4.858l0.014 0.003c-5.216 18.084-15.208 34.143-28.521 46.724l-0.01-0.01a15.946 15.946 0 0 1-11.758 4.41L480 472v0.196c-84.649 4.168-152 74.12-152 159.804 0 85.683 67.351 155.636 152 159.804V792h240v-0.196c2.65 0.13 5.318 0.196 8 0.196 88.366 0 160-71.634 160-160 0-55.274-28.028-104.001-70.648-132.745-4.762-2.771-7.963-7.93-7.963-13.838 0-1.686 0.26-3.311 0.744-4.837l-0.011-0.003a285.99 285.99 0 0 0 9.661-39.2c1.506-7.282 7.954-12.76 15.682-12.76 3.195 0 6.172 0.937 8.67 2.55l0.022-0.033C913.417 471.266 960 546.193 960 632c0 128.13-103.87 232-232 232-2.677 0-5.344-0.045-8-0.135V864H480v-0.135C355.574 859.648 256 757.453 256 632s99.574-227.648 224-231.865V400h140.924zM528 160v0.135l1.994-0.059c1.996-0.05 3.998-0.076 6.006-0.076 128.13 0 232 103.87 232 232S664.13 624 536 624c-2.677 0-5.344-0.045-8-0.135V624l-123.989 0.001c-0.235 0.01-0.473 0.016-0.711 0.016-8.837 0-16-7.163-16-16 0-1.7 0.265-3.34 0.757-4.878 5.157-17.89 14.988-33.8 28.085-46.322l0.023 0.024a15.952 15.952 0 0 1 11.92-4.817l-0.001-0.025L528 552v-0.196c2.65 0.13 5.318 0.196 8 0.196 88.366 0 160-71.634 160-160s-71.634-160-160-160c-2.682 0-5.35 0.066-8 0.196V232H288v0.196c-84.649 4.168-152 74.12-152 159.804 0 55.504 28.263 104.408 71.181 133.104 4.469 2.836 7.434 7.828 7.434 13.513 0 1.717-0.27 3.37-0.771 4.92a285.874 285.874 0 0 0-9.484 38.265l-0.064 0.408-0.102 0.543c-1.538 7.235-7.962 12.664-15.655 12.664-3.104 0-6.002-0.884-8.455-2.413C110.691 552.907 64 477.906 64 392c0-125.453 99.574-227.648 224-231.865V160h240z" /></svg>