<?xml version="1.0" standalone="no"?><!DOCTYPE svg PUBLIC "-//W3C//DTD SVG 1.1//EN" "http://www.w3.org/Graphics/SVG/1.1/DTD/svg11.dtd"><svg class="icon" width="200px" height="200.00px" viewBox="0 0 1024 1024" version="1.1" xmlns="http://www.w3.org/2000/svg"><path d="M342.306 679.998C370.328 745.838 435.616 792 511.686 792c75.31 0 140.052-45.243 168.529-110.032l0.851-1.97H880c17.673 0 32 14.327 32 32V896c0 35.346-28.654 64-64 64H176c-35.346 0-64-28.654-64-64V711.998c0-17.673 14.327-32 32-32h198.306zM800 64c35.346 0 64 28.654 64 64v496l-233.058 0.001C623.12 682.711 572.85 728 512 728c-60.24 0-110.113-44.388-118.695-102.241l-0.247-1.758L160 624V128c0-35.346 28.654-64 64-64h576zM676 384H348c-15.464 0-28 12.536-28 28v8c0 15.464 12.536 28 28 28h328c15.464 0 28-12.536 28-28v-8c0-15.464-12.536-28-28-28z m0-160H348c-15.464 0-28 12.536-28 28v8c0 15.464 12.536 28 28 28h328c15.464 0 28-12.536 28-28v-8c0-15.464-12.536-28-28-28z" /></svg>