<?xml version="1.0" standalone="no"?><!DOCTYPE svg PUBLIC "-//W3C//DTD SVG 1.1//EN" "http://www.w3.org/Graphics/SVG/1.1/DTD/svg11.dtd"><svg class="icon" width="200px" height="200.00px" viewBox="0 0 1024 1024" version="1.1" xmlns="http://www.w3.org/2000/svg"><path d="M864 624h16c17.673 0 32 14.327 32 32v240c0 35.346-28.654 64-64 64H176c-35.346 0-64-28.654-64-64V656c0-17.673 14.327-32 32-32h16V128c0-35.346 28.654-64 64-64h576c35.346 0 64 28.654 64 64v496zM512 816c-83.748 0-154.973-53.62-181.216-128.402l0.142 0.404L184 688.001V888h656V688.001l-146.926 0.001 0.142-0.404C666.973 762.38 595.748 816 512 816z m164-368H348c-15.464 0-28-12.536-28-28v-8c0-15.464 12.536-28 28-28h328c15.464 0 28 12.536 28 28v8c0 15.464-12.536 28-28 28z m0-160H348c-15.464 0-28-12.536-28-28v-8c0-15.464 12.536-28 28-28h328c15.464 0 28 12.536 28 28v8c0 15.464-12.536 28-28 28z m116-152H232v488h160c0 66.274 53.726 120 120 120s120-53.726 120-120h160V136z" /></svg>