<?xml version="1.0" standalone="no"?><!DOCTYPE svg PUBLIC "-//W3C//DTD SVG 1.1//EN" "http://www.w3.org/Graphics/SVG/1.1/DTD/svg11.dtd"><svg class="icon" width="200px" height="200.00px" viewBox="0 0 1024 1024" version="1.1" xmlns="http://www.w3.org/2000/svg"><path d="M543.294 487.68l62.366 293.66a96.325 96.325 0 0 1 2.34 21.158c0 53.02-42.98 96-96 96s-96-42.98-96-96c0-7.226 0.799-14.267 2.312-21.037l-0.063-0.014 62.442-293.772c3.675-17.287 20.667-28.322 37.954-24.647a32 32 0 0 1 24.65 24.653zM512 112c247.424 0 448 200.576 448 448 0 128.025-53.702 243.508-139.809 325.151l-0.023-0.024c-5.789 5.774-13.777 9.343-22.598 9.343-12.232 0-22.86-6.863-28.246-16.948l-2.86-4.84A31.85 31.85 0 0 1 761.4 855.4c0-9.49 4.132-18.017 10.695-23.877C843.525 763.085 888 666.736 888 560c0-207.66-168.34-376-376-376S136 352.34 136 560c0 107.637 45.229 204.71 117.718 273.252l-0.024 0.028a31.892 31.892 0 0 1 8.876 22.12 31.85 31.85 0 0 1-4.792 16.852l0.009 0.002-3.559 6.026c-5.505 9.67-15.905 16.19-27.828 16.19a31.884 31.884 0 0 1-21.561-8.354l-0.285-0.26C118.012 804.174 64 688.395 64 560c0-247.424 200.576-448 448-448z m0.01 534.652l-31.16 146.603h0.094A32.07 32.07 0 0 0 480 801c0 17.673 14.327 32 32 32 17.673 0 32-14.327 32-32 0-2.67-0.327-5.265-0.944-7.745l-31.045-146.603z m268.873-204.94l-41.572 24.001c-13.392 7.733-30.516 3.145-38.248-10.248l-3.996-6.92c-7.73-13.393-3.142-30.516 10.248-38.25l41.57-24.005c13.392-7.734 30.516-3.147 38.25 10.245l-0.001 0.002 3.998 6.925c7.731 13.392 3.143 30.517-10.249 38.25z m-505.768-55.424l41.576 23.998c13.395 7.728 17.985 24.852 10.254 38.245 0 0 0 0.002-0.004 0l-3.996 6.923c-7.733 13.391-24.857 17.98-38.25 10.25l-41.573-24.002c-13.393-7.73-17.982-24.855-10.25-38.247h0.001l3.992-6.915c7.734-13.39 24.857-17.979 38.25-10.252zM516 343.998l-7.998 0.001c-15.464 0.002-28-12.534-28.001-27.998V268.002c0.002-15.463 12.537-28 28-28l8-0.001c15.463-0.002 28 12.534 28 27.998V315.998c-0.002 15.463-12.537 28-28 28z" /></svg>