<?xml version="1.0" standalone="no"?><!DOCTYPE svg PUBLIC "-//W3C//DTD SVG 1.1//EN" "http://www.w3.org/Graphics/SVG/1.1/DTD/svg11.dtd"><svg class="icon" width="200px" height="200.00px" viewBox="0 0 1024 1024" version="1.1" xmlns="http://www.w3.org/2000/svg"><path d="M360 144v48h304v-48c0-17.673 14.327-32 32-32h8c17.673 0 32 14.327 32 32v48h112c35.346 0 64 28.654 64 64v592c0 35.346-28.654 64-64 64H176c-35.346 0-64-28.654-64-64V256c0-35.346 28.654-64 64-64h112v-48c0-17.673 14.327-32 32-32h8c17.673 0 32 14.327 32 32z m480 320H184v376h656V464zM248 710v-8c0-13.255 10.745-24 24-24h85c13.255 0 24 10.745 24 24v8c0 13.255-10.745 24-24 24h-85c-13.255 0-24-10.745-24-24z m197 0v-8c0-13.255 10.745-24 24-24h85c13.255 0 24 10.745 24 24v8c0 13.255-10.745 24-24 24h-85c-13.255 0-24-10.745-24-24z m197 0v-8c0-13.255 10.745-24 24-24h85c13.255 0 24 10.745 24 24v8c0 13.255-10.745 24-24 24h-85c-13.255 0-24-10.745-24-24zM248 590v-8c0-13.255 10.745-24 24-24h85c13.255 0 24 10.745 24 24v8c0 13.255-10.745 24-24 24h-85c-13.255 0-24-10.745-24-24z m197 0v-8c0-13.255 10.745-24 24-24h85c13.255 0 24 10.745 24 24v8c0 13.255-10.745 24-24 24h-85c-13.255 0-24-10.745-24-24z m197 0v-8c0-13.255 10.745-24 24-24h85c13.255 0 24 10.745 24 24v8c0 13.255-10.745 24-24 24h-85c-13.255 0-24-10.745-24-24zM288 264H184v128h656V264H736v32c0 17.673-14.327 32-32 32h-8c-17.673 0-32-14.327-32-32v-32H360v32c0 17.673-14.327 32-32 32h-8c-17.673 0-32-14.327-32-32v-32z" /></svg>