<?xml version="1.0" standalone="no"?><!DOCTYPE svg PUBLIC "-//W3C//DTD SVG 1.1//EN" "http://www.w3.org/Graphics/SVG/1.1/DTD/svg11.dtd"><svg class="icon" width="200px" height="200.00px" viewBox="0 0 1024 1024" version="1.1" xmlns="http://www.w3.org/2000/svg"><path d="M904 456a8 8 0 0 1 8 8v416c0 17.673-14.327 32-32 32H144c-17.673 0-32-14.327-32-32V464a8 8 0 0 1 8-8h784zM248.002 732v8c-0.003 13.255 10.742 24 23.997 24.001L272 764h84.997c13.254-0.001 24-10.746 24.001-24v-8c0.003-13.255-10.742-24-23.997-24.001L357 708h-84.997c-13.254 0.001-24 10.746-24.001 24z m197 0v8c-0.003 13.255 10.742 24 23.997 24.001L469 764h84.997c13.254-0.001 24-10.746 24.001-24v-8c0.003-13.255-10.742-24-23.997-24.001L554 708h-84.997c-13.254 0.001-24 10.746-24.001 24z m197 0v8c-0.003 13.255 10.742 24 23.997 24.001L666 764h84.997c13.254-0.001 24-10.746 24.001-24v-8c0.003-13.255-10.742-24-23.997-24.001L751 708h-84.997c-13.254 0.001-24 10.746-24.001 24z m-394-120v8c-0.003 13.255 10.742 24 23.997 24.001L272 644h84.997c13.254-0.001 24-10.746 24.001-24v-8c0.003-13.255-10.742-24-23.997-24.001L357 588h-84.997c-13.254 0.001-24 10.746-24.001 24z m197 0v8c-0.003 13.255 10.742 24 23.997 24.001L469 644h84.997c13.254-0.001 24-10.746 24.001-24v-8c0.003-13.255-10.742-24-23.997-24.001L554 588h-84.997c-13.254 0.001-24 10.746-24.001 24z m197 0v8c-0.003 13.255 10.742 24 23.997 24.001L666 644h84.997c13.254-0.001 24-10.746 24.001-24v-8c0.003-13.255-10.742-24-23.997-24.001L751 588h-84.997c-13.254 0.001-24 10.746-24.001 24zM360 144v48h304v-48c0-17.673 14.327-32 32-32h8c17.673 0 32 14.327 32 32v48h144c17.673 0 32 14.327 32 32v160a8 8 0 0 1-8 8H120a8 8 0 0 1-8-8V224c0-17.673 14.327-32 32-32h144v-48c0-17.673 14.327-32 32-32h8c17.673 0 32 14.327 32 32z" /></svg>