<?xml version="1.0" standalone="no"?><!DOCTYPE svg PUBLIC "-//W3C//DTD SVG 1.1//EN" "http://www.w3.org/Graphics/SVG/1.1/DTD/svg11.dtd"><svg class="icon" width="200px" height="200.00px" viewBox="0 0 1024 1024" version="1.1" xmlns="http://www.w3.org/2000/svg"><path d="M637 79c35.346 0 64 28.654 64 64v8h-1v24h224c19.882 0 36 16.118 36 36v20c0 8.837-7.163 16-16 16h-83.953l-44.645 638.464c-2.345 33.532-30.23 59.535-63.844 59.535H272.999c-33.613 0-61.499-26.003-63.844-59.535L164.51 247H80c-8.837 0-16-7.163-16-16v-20c0-19.882 16.118-36 36-36h222v-32c0-35.346 28.654-64 64-64h251z m-24 261h-8c-15.464 0-28 12.536-28 28v392c0 15.464 12.536 28 28 28h8c15.464 0 28-12.536 28-28V368c0-15.464-12.536-28-28-28z m-193 0h-8c-15.464 0-28 12.536-28 28v392c0 15.464 12.536 28 28 28h8c15.464 0 28-12.536 28-28V368c0-15.464-12.536-28-28-28z m208-165v-24H394v24h234z" /></svg>