<?xml version="1.0" standalone="no"?><!DOCTYPE svg PUBLIC "-//W3C//DTD SVG 1.1//EN" "http://www.w3.org/Graphics/SVG/1.1/DTD/svg11.dtd"><svg class="icon" width="200px" height="200.00px" viewBox="0 0 1024 1024" version="1.1" xmlns="http://www.w3.org/2000/svg"><path d="M760 152v312h96c17.673 0 32 14.327 32 32v340c0 54.676-43.88 99.104-98.346 99.987L788 936H200l-1.058-0.009c-34.51-0.56-62.38-28.432-62.934-62.943L136 872V152c0-35.346 28.654-64 64-64h496c35.346 0 64 28.654 64 64z m56 384h-56v300c0 15.464 12.536 28 28 28s28-12.536 28-28V536z m-204 98H284c-15.464 0-28 12.536-28 28v8c0 15.464 12.536 28 28 28h328c15.464 0 28-12.536 28-28v-8c0-15.464-12.536-28-28-28z m0-162H284c-15.464 0-28 12.536-28 28v8c0 15.464 12.536 28 28 28h328c15.464 0 28-12.536 28-28v-8c0-15.464-12.536-28-28-28zM420 310H284c-15.464 0-28 12.536-28 28v8c0 15.464 12.536 28 28 28h136c15.464 0 28-12.536 28-28v-8c0-15.464-12.536-28-28-28z" /></svg>