<?xml version="1.0" standalone="no"?><!DOCTYPE svg PUBLIC "-//W3C//DTD SVG 1.1//EN" "http://www.w3.org/Graphics/SVG/1.1/DTD/svg11.dtd"><svg class="icon" width="200px" height="200.00px" viewBox="0 0 1024 1024" version="1.1" xmlns="http://www.w3.org/2000/svg"><path d="M192 723v108.999h640V723c0-19.882 16.118-36 36-36h8c19.882 0 36 16.118 36 36v125c0 35.346-28.654 64-64 64H176c-35.346 0-64-28.654-64-64V723c0-19.882 16.118-36 36-36h8c19.882 0 36 16.118 36 36z m360-561.887v404.26L752.17 397.41c16.077-13.49 40.045-11.393 53.535 4.684l5.143 6.128c13.49 16.077 11.393 40.046-4.684 53.536l-253.023 212.31c-23.792 19.965-58.484 19.965-82.276 0.001L217.84 461.758c-16.077-13.49-18.174-37.458-4.684-53.535l5.14-6.125c13.49-16.076 37.458-18.174 53.535-4.684L472 565.37V161.113c0-19.882 16.118-36 36-36h8c19.882 0 36 16.118 36 36z" /></svg>