<?xml version="1.0" standalone="no"?><!DOCTYPE svg PUBLIC "-//W3C//DTD SVG 1.1//EN" "http://www.w3.org/Graphics/SVG/1.1/DTD/svg11.dtd"><svg class="icon" width="200px" height="200.00px" viewBox="0 0 1024 1024" version="1.1" xmlns="http://www.w3.org/2000/svg"><path d="M552 148v604.795l229.28-192.39c16.078-13.49 40.046-11.392 53.536 4.685l5.143 6.128c13.49 16.077 11.393 40.046-4.684 53.536L553.139 861.496c-23.793 19.964-58.485 19.964-82.277 0L188.73 624.759c-16.077-13.49-18.174-37.46-4.684-53.536l5.142-6.128c13.49-16.077 37.459-18.174 53.536-4.684L472 752.796V148c0-19.882 16.118-36 36-36h8c19.882 0 36 16.118 36 36z" /></svg>