<?xml version="1.0" standalone="no"?><!DOCTYPE svg PUBLIC "-//W3C//DTD SVG 1.1//EN" "http://www.w3.org/Graphics/SVG/1.1/DTD/svg11.dtd"><svg class="icon" width="200px" height="200.00px" viewBox="0 0 1024 1024" version="1.1" xmlns="http://www.w3.org/2000/svg"><path d="M835.73 357.11l95.296 113.569c19.961 23.788 19.964 58.474 0.008 82.267l-95.317 113.63c-13.483 16.083-37.452 18.183-53.53 4.696-0.002-0.001-0.003-0.003-0.001-0.008l-6.124-5.138c-16.077-13.49-18.174-37.459-4.684-53.536l50.84-60.59H201.78l50.838 60.586c13.49 16.077 11.393 40.045-4.683 53.536l-6.126 5.141c-16.076 13.49-40.045 11.394-53.536-4.682L92.973 553.01c-19.961-23.79-19.964-58.475-0.007-82.268l95.316-113.629c13.484-16.082 37.452-18.183 53.531-4.695 0.001 0.001 0.003 0.002 0 0.008l6.12 5.135c16.077 13.49 18.174 37.459 4.686 53.536L201.519 472H822.48l-51.098-60.896c-13.49-16.077-11.393-40.046 4.684-53.536l6.129-5.142c16.076-13.49 40.045-11.393 53.535 4.684z" /></svg>