<?xml version="1.0" standalone="no"?><!DOCTYPE svg PUBLIC "-//W3C//DTD SVG 1.1//EN" "http://www.w3.org/Graphics/SVG/1.1/DTD/svg11.dtd"><svg class="icon" width="200px" height="200.00px" viewBox="0 0 1024 1024" version="1.1" xmlns="http://www.w3.org/2000/svg"><path d="M553.584 98.973l86.033 72.19c14.384 12.07 16.26 33.516 4.19 47.9l-5.142 6.13c-12.07 14.384-33.515 16.26-47.9 4.19l-42.311-35.503v282.58h282.58l-35.504-42.312c-12.07-14.384-10.193-35.83 4.191-47.9l6.129-5.142c14.384-12.07 35.83-10.194 47.9 4.19l72.183 86.025c19.965 23.793 19.965 58.485 0 82.277l-72.183 86.026c-12.07 14.384-33.516 16.26-47.9 4.19l-6.129-5.142c-14.384-12.07-16.26-33.516-4.19-47.9l35.503-42.312h-282.58v282.58l42.31-35.503c14.386-12.07 35.831-10.194 47.901 4.19l5.14 6.126c12.069 14.385 10.193 35.83-4.19 47.901L553.59 925.94c-23.792 19.964-58.484 19.964-82.276 0l-86.025-72.183c-14.385-12.07-16.261-33.516-4.191-47.9l5.14-6.126c12.07-14.383 33.515-16.26 47.9-4.192l42.315 35.503V548.46H193.872l35.504 42.312c12.07 14.384 10.194 35.83-4.19 47.9l-6.126 5.14c-14.385 12.069-35.83 10.193-47.9-4.19l-72.187-86.024c-19.964-23.792-19.964-58.484 0-82.277l72.184-86.025c12.07-14.384 33.516-16.26 47.9-4.19l6.125 5.14c14.384 12.07 16.26 33.515 4.192 47.9L193.87 476.46h282.583V193.827l-42.373 35.555c-14.384 12.07-35.83 10.195-47.9-4.19l-5.14-6.125c-12.074-14.38-10.198-35.827 4.187-47.897 0.001 0 0.003-0.002 0.008 0.001l86.08-72.206c23.793-19.956 58.479-19.953 82.268 0.008z" /></svg>