<?xml version="1.0" standalone="no"?><!DOCTYPE svg PUBLIC "-//W3C//DTD SVG 1.1//EN" "http://www.w3.org/Graphics/SVG/1.1/DTD/svg11.dtd"><svg class="icon" width="200px" height="200.00px" viewBox="0 0 1024 1024" version="1.1" xmlns="http://www.w3.org/2000/svg"><path d="M960 576v224c0 35.346-28.654 64-64 64H128c-35.346 0-64-28.654-64-64V576h266.926c26.095 73.828 96.059 126.93 178.57 127.984L512 704c82.761 0 153.292-52.363 180.27-125.767l0.804-2.233H960zM787.072 160c26.905 0 50.938 16.827 60.14 42.11l110.376 303.25A40 40 0 0 1 960 519.041v0.958L639.75 520a7.998 7.998 0 0 0-7.98 7.444l-0.013 0.25C627.79 590.383 575.69 640 512 640c-63.187 0-114.967-48.837-119.654-110.824l-0.128-1.882-0.018-0.19a8.002 8.002 0 0 0-7.694-7.1l-0.256-0.004L64 519.999v-0.946a40 40 0 0 1 2.412-13.68L176.791 202.11c9.202-25.282 33.235-42.11 60.14-42.11h550.14zM712 376H312c-13.255 0-24 10.745-24 24v8c0 13.255 10.745 24 24 24h400c13.255 0 24-10.745 24-24v-8c0-13.255-10.745-24-24-24z m-43-120H356c-13.255 0-24 10.745-24 24v8c0 13.255 10.745 24 24 24h313c13.255 0 24-10.745 24-24v-8c0-13.255-10.745-24-24-24z" /></svg>