<?xml version="1.0" standalone="no"?><!DOCTYPE svg PUBLIC "-//W3C//DTD SVG 1.1//EN" "http://www.w3.org/Graphics/SVG/1.1/DTD/svg11.dtd"><svg class="icon" width="200px" height="200.00px" viewBox="0 0 1024 1024" version="1.1" xmlns="http://www.w3.org/2000/svg"><path d="M847.212 202.11l110.376 303.25A40 40 0 0 1 960 519.041V800c0 35.346-28.654 64-64 64H128c-35.346 0-64-28.654-64-64V519.053a40 40 0 0 1 2.412-13.68L176.791 202.11c9.202-25.282 33.235-42.11 60.14-42.11h550.14c26.906 0 50.939 16.827 60.141 42.11zM888 576l-194.926 0.002C666.716 650.573 595.597 704 512 704c-83.597 0-154.716-53.427-181.074-127.998L136 576v216h752V576z m-503.75-64a8.001 8.001 0 0 1 7.95 7.103l0.018 0.191C395.988 582.172 448.175 632 512 632c63.69 0 115.79-49.617 119.757-112.306A7.998 7.998 0 0 1 639.75 512h243.632L781.47 232H242.533L140.621 512H384.25zM712 456H312c-13.255 0-24-10.745-24-24v-8c0-13.255 10.745-24 24-24h400c13.255 0 24 10.745 24 24v8c0 13.255-10.745 24-24 24z m-43-120H356c-13.255 0-24-10.745-24-24v-8c0-13.255 10.745-24 24-24h313c13.255 0 24 10.745 24 24v8c0 13.255-10.745 24-24 24z" /></svg>