<?xml version="1.0" standalone="no"?><!DOCTYPE svg PUBLIC "-//W3C//DTD SVG 1.1//EN" "http://www.w3.org/Graphics/SVG/1.1/DTD/svg11.dtd"><svg class="icon" width="200px" height="200.00px" viewBox="0 0 1024 1024" version="1.1" xmlns="http://www.w3.org/2000/svg"><path d="M512 64c247.424 0 448 200.576 448 448S759.424 960 512 960 64 759.424 64 512 264.576 64 512 64z m180.693 708.771l-1.285 2.181a514.133 514.133 0 0 1-77.299 99.016c49.451-13.92 94.77-37.702 133.703-69.088l2.705-2.215a454.571 454.571 0 0 0-57.824-29.894z m-360.983 0.706l-2.726 1.176a454.701 454.701 0 0 0-54.643 28.713l1.847 1.514c38.931 31.385 84.25 55.167 133.699 69.088a514.25 514.25 0 0 1-78.177-100.49z m53.79-19.413l-0.005 0.02A458.402 458.402 0 0 0 484 865.561V736.907c-33.978 2.133-66.946 7.986-98.502 17.157zM540 736.786V865.56a458.396 458.396 0 0 0 98.813-111.967l-0.004-0.017c-31.075-8.9-63.508-14.587-96.916-16.675l-1.893-0.115zM260.753 540.001l-123.726 0.003c6.222 84.514 40.38 161.263 93.277 221.048l2.258 2.511a510.956 510.956 0 0 1 70.207-38.55l2.914-1.303-0.873-1.932c-25.173-55.975-40.582-117.29-44.057-181.777z m626.22 0.003L763.247 540c-3.46 64.208-18.75 125.271-43.73 181.05l-0.868 1.924 2.929 1.297a510.883 510.883 0 0 1 70.6 38.468l1.518-1.688c52.896-59.785 87.055-136.534 93.277-221.048zM484 540H316.846c3.527 58.234 17.984 113.518 41.345 163.828l0.007-0.01c40.028-12.68 82.187-20.575 125.803-23.01V540z m223.153 0H540v140.7c43.694 2.27 85.94 10.018 126.06 22.57l0.003 0.01c23.212-50.163 37.577-105.257 41.091-163.28zM358.198 320.181l-0.628 1.335c-22.997 49.95-37.228 104.769-40.724 162.485H484V343.193c-43.616-2.436-85.775-10.33-125.803-23.012z m433.988-58.929l-0.008 0.009a510.883 510.883 0 0 1-70.616 38.474l-2.913 1.289 0.868 1.926c24.98 55.778 40.27 116.842 43.73 181.05l123.726-0.003c-6.281-85.316-41.03-162.718-94.787-222.745z m-559.624-0.815l-2.258 2.511c-52.897 59.785-87.055 136.534-93.277 221.05l123.726 0.002c3.475-64.487 18.884-125.803 44.057-181.778l0.873-1.933-2.914-1.303a510.956 510.956 0 0 1-70.207-38.55z m433.5 60.283l-0.001 0.01c-40.122 12.552-82.367 20.3-126.061 22.57V484h167.154c-3.514-58.023-17.879-113.117-41.091-163.28zM540 158.44v128.774c34.077-1.99 67.148-7.722 98.81-16.79l0.003-0.017A458.396 458.396 0 0 0 540 158.44zM385.495 269.916l0.004 0.02c31.556 9.171 64.524 15.024 98.501 17.157V158.439a458.398 458.398 0 0 0-98.505 111.477z m228.62-119.884a514.26 514.26 0 0 1 78.583 101.178l-0.005 0.019a454.571 454.571 0 0 0 57.824-29.894l-2.705-2.215c-38.931-31.385-84.25-55.166-133.698-69.088z m-204.225 0l-5.452 1.578c-47.33 14.106-90.753 37.281-128.25 67.51l-1.848 1.514a454.637 454.637 0 0 0 57.372 29.907l-0.002-0.018a514.106 514.106 0 0 1 78.18-100.49z" /></svg>