<?xml version="1.0" standalone="no"?><!DOCTYPE svg PUBLIC "-//W3C//DTD SVG 1.1//EN" "http://www.w3.org/Graphics/SVG/1.1/DTD/svg11.dtd"><svg class="icon" width="200px" height="200.00px" viewBox="0 0 1024 1024" version="1.1" xmlns="http://www.w3.org/2000/svg"><path d="M128 848V176c0-35.346 28.654-64 64-64h288c17.673 0 32 14.327 32 32v7.996c0 17.673-14.327 32-32 32L200 184v656h624V544c0-17.673 14.327-32 32-32h8c17.673 0 32 14.327 32 32v304c0 35.346-28.654 64-64 64H192c-35.346 0-64-28.654-64-64z m645.502-713.613l115.966 115.965c12.372 12.372 12.495 32.354 0.371 44.878l-0.371 0.377-348.049 348.047a32 32 0 0 1-19.838 9.251l-146.067 12.78c-8.803 0.77-16.564-5.742-17.334-14.545a16 16 0 0 1 0-2.789l12.782-146.09a32 32 0 0 1 9.25-19.839l348.036-348.035c12.496-12.497 32.758-12.497 45.254 0z" /></svg>