<?xml version="1.0" standalone="no"?><!DOCTYPE svg PUBLIC "-//W3C//DTD SVG 1.1//EN" "http://www.w3.org/Graphics/SVG/1.1/DTD/svg11.dtd"><svg class="icon" width="200px" height="200.00px" viewBox="0 0 1024 1024" version="1.1" xmlns="http://www.w3.org/2000/svg"><path d="M896 912.194H128c-8.837 0-16-7.163-16-16v-28c0-19.882 16.118-36 36-36h728c19.882 0 36 16.118 36 36v28c0 8.837-7.163 16-16 16zM711.121 150.94l118.794 118.794c24.994 24.993 24.994 65.516 0 90.51L435.317 754.84a64 64 0 0 1-39.677 18.502l-187.16 16.375c-8.802 0.77-16.563-5.742-17.333-14.545a16 16 0 0 1 0-2.79l16.377-187.181a64 64 0 0 1 18.502-39.677L620.612 150.94c24.993-24.994 65.516-24.994 90.51 0z m-45.255 62.225L282.853 596.179l-9.763 111.596 111.575-9.762L767.69 314.988 665.866 213.165z" /></svg>