<svg t="1610506150746" class="icon" viewBox="0 0 1097 1024" version="1.1" xmlns="http://www.w3.org/2000/svg" p-id="5984" width="100" height="100"><path d="M977.066667 337.92H802.377143v102.4h174.689524v-102.4z m0 128H802.377143v102.4h174.689524v-102.4z m0-256H802.377143v102.4h174.689524v-102.4z m0 506.88H802.377143v102.4h174.689524v-102.4z m82.236952-609.938286H638.464c-4.87619 0-9.728 0.926476-14.214095 2.706286V0L0 116.077714V907.946667L624.249905 1024v-104.082286c4.486095 1.77981 9.313524 2.681905 14.214095 2.706286h420.815238c20.918857 0 37.863619-16.579048 37.863619-36.864V143.725714c-0.048762-20.333714-16.944762-36.864-37.839238-36.864zM420.278857 680.96l-74.849524-4.583619-56.07619-133.071238-60.854857 123.952762-70.217143-4.608 88.868571-151.503238-79.481904-165.10781 70.16838-4.608 46.762667 123.855238h9.337905l51.443809-133.071238 74.849524-4.534857-93.525333 174.299429 93.598476 178.980571z m633.197714 194.56H627.712v-55.174095h141.897143v-101.180953h-141.897143v-22.942476h141.897143v-101.156571h-141.897143v-27.574857h141.897143v-101.205334h-141.897143v-27.623619h141.897143v-101.156571h-141.897143v-27.550476h141.897143v-101.180953h-141.897143V153.6H1053.500952v721.92z m-76.409904-281.6H802.377143v102.4h174.689524v-102.4z" fill="#E6E7EB" p-id="5985"></path></svg>
