<?xml version="1.0" standalone="no"?><!DOCTYPE svg PUBLIC "-//W3C//DTD SVG 1.1//EN" "http://www.w3.org/Graphics/SVG/1.1/DTD/svg11.dtd"><svg t="1603334075062" class="icon" viewBox="0 0 1024 1024" version="1.1" xmlns="http://www.w3.org/2000/svg" p-id="8105" xmlns:xlink="http://www.w3.org/1999/xlink" width="200" height="200"><defs><style type="text/css"></style></defs><path d="M375.125333 567.125333L128 814.336V640a42.666667 42.666667 0 0 0-85.333333 0v256.682667a83.626667 83.626667 0 0 0 1.365333 13.653333c-2.56 13.397333 1.536 27.306667 11.093333 37.205333 3.157333 3.072 6.912 5.034667 10.581334 6.997334a84.48 84.48 0 0 0 61.952 27.136h256.682666a42.666667 42.666667 0 1 0 0-85.333334l-217.941333 0.341334 269.141333-269.141334a42.666667 42.666667 0 1 0-60.416-60.416M896.682667 42.666667H640a42.666667 42.666667 0 0 0 0 85.333333l195.925333-0.256-268.8 268.8a42.666667 42.666667 0 1 0 60.416 60.330667l268.8-268.885334v196.352a42.666667 42.666667 0 1 0 85.333334 0V127.658667A85.077333 85.077333 0 0 0 896.682667 42.666667" p-id="8106"></path></svg>