<?xml version="1.0" standalone="no"?><!DOCTYPE svg PUBLIC "-//W3C//DTD SVG 1.1//EN" "http://www.w3.org/Graphics/SVG/1.1/DTD/svg11.dtd"><svg class="icon" width="200px" height="200.00px" viewBox="0 0 1024 1024" version="1.1" xmlns="http://www.w3.org/2000/svg"><path d="M128.086 848.036v-672c0-35.347 28.654-64 64-64h288c17.673 0 32 14.327 32 32v7.996c0 17.673-14.327 32-32 32l-280 0.003v656h624v-296c0-17.672 14.327-32 32-32h8c17.673 0 32 14.328 32 32v304c0 35.347-28.654 64-64 64h-640c-35.346 0-64-28.653-64-64z m763.786-682.028v191c0 17.673-14.327 32-32 32h-7.998c-17.673 0-32-14.327-32-32l-0.002-124.795-256.076 256.075c-13.278 13.277-34.806 13.277-48.084 0l-5.654-5.654c-13.279-13.277-13.28-34.805-0.002-48.083l260.54-260.542H636.872c-17.673 0-32-14.328-32-32v-8.001c0-17.673 14.327-32 32-32h191c35.346 0 64 28.654 64 64z" /></svg>