<?xml version="1.0" standalone="no"?><!DOCTYPE svg PUBLIC "-//W3C//DTD SVG 1.1//EN" "http://www.w3.org/Graphics/SVG/1.1/DTD/svg11.dtd"><svg class="icon" width="200px" height="200.00px" viewBox="0 0 1024 1024" version="1.1" xmlns="http://www.w3.org/2000/svg"><path d="M512 192c200.357 0 372.042 122.756 443.949 297.16A55.849 55.849 0 0 1 960.8 512a55.8 55.8 0 0 1-4.891 22.922C883.983 709.287 712.322 832 512 832c-200.678 0-372.593-123.15-444.294-297.999A55.835 55.835 0 0 1 63.22 512a55.834 55.834 0 0 1 4.222-21.37l0.286-0.68C139.443 315.125 311.343 192 512 192z m0 145c-97.202 0-176 78.798-176 176s78.798 176 176 176 176-78.798 176-176-78.798-176-176-176z m0 63c-61.856 0-112 50.144-112 112s50.144 112 112 112 112-50.144 112-112-50.144-112-112-112z" /></svg>