<?xml version="1.0" standalone="no"?><!DOCTYPE svg PUBLIC "-//W3C//DTD SVG 1.1//EN" "http://www.w3.org/Graphics/SVG/1.1/DTD/svg11.dtd"><svg class="icon" width="200px" height="200.00px" viewBox="0 0 1024 1024" version="1.1" xmlns="http://www.w3.org/2000/svg"><path d="M800 960H224c-35.346 0-64-28.654-64-64V128c0-35.347 28.654-64 64-64h374.968a64 64 0 0 1 45.255 18.745l201.032 201.03A64 64 0 0 1 864 329.03V896c0 35.346-28.654 64-64 64zM534 136H232v752h560V394H598c-34.993 0-63.426-28.083-63.992-62.942L534 330V136z m72 16.002V322h169.998L606 152.002z" /></svg>