<?xml version="1.0" standalone="no"?><!DOCTYPE svg PUBLIC "-//W3C//DTD SVG 1.1//EN" "http://www.w3.org/Graphics/SVG/1.1/DTD/svg11.dtd"><svg class="icon" width="200px" height="200.00px" viewBox="0 0 1024 1024" version="1.1" xmlns="http://www.w3.org/2000/svg"><path d="M736 256v640c0 35.346-28.654 64-64 64H392.508a64 64 0 0 1-45.255-18.745l-168.508-168.51A64 64 0 0 1 160 727.491V256c0-35.346 28.654-64 64-64h448c35.346 0 64 28.654 64 64z m-72 8H232v426h134c35.346 0 64 28.654 64 64v134h234V264zM366 754h-98.522L366 852.521V754z m426 46V136H320c-17.673 0-32-14.327-32-32v-8c0-17.673 14.327-32 32-32h480c35.346 0 64 28.654 64 64v672c0 17.673-14.327 32-32 32h-8c-17.673 0-32-14.327-32-32z" /></svg>