<?xml version="1.0" standalone="no"?><!DOCTYPE svg PUBLIC "-//W3C//DTD SVG 1.1//EN" "http://www.w3.org/Graphics/SVG/1.1/DTD/svg11.dtd"><svg class="icon" width="200px" height="200.00px" viewBox="0 0 1024 1024" version="1.1" xmlns="http://www.w3.org/2000/svg"><path d="M821 791c36.633 0 66.4 29.4 66.991 65.892l0.005 59.108c0.003 15.464-12.532 28.001-27.996 28.002l-0.002-0.002H532.003c-15.464 0.002-28-12.534-28-27.998l0.002-0.002 0.003-59.108c0.519-36.127 26.376-65.303 62.438-65.883L821 791zM695 512c70.14 0 127 56.86 127 127s-56.86 127-127 127-127-56.86-127-127 56.86-127 127-127z m81-432c35.346 0 64 28.654 64 64v319.999c0 17.673-14.327 32-32 32h-8c-17.673 0-32-14.327-32-32V152H208v692h200c17.673 0 32 14.327 32 32v8c0 17.673-14.327 32-32 32H200c-35.346 0-64-28.654-64-64V144c0-35.346 28.654-64 64-64h576zM460 456H324c-15.464 0-28-12.536-28-28v-8c0-15.464 12.536-28 28-28h136c15.464 0 28 12.536 28 28v8c0 15.464-12.536 28-28 28z m192-144H324c-15.464 0-28-12.536-28-28v-8c0-15.464 12.536-28 28-28h328c15.464 0 28 12.536 28 28v8c0 15.464-12.536 28-28 28z" /></svg>