<?xml version="1.0" standalone="no"?><!DOCTYPE svg PUBLIC "-//W3C//DTD SVG 1.1//EN" "http://www.w3.org/Graphics/SVG/1.1/DTD/svg11.dtd"><svg class="icon" width="200px" height="200.00px" viewBox="0 0 1024 1024" version="1.1" xmlns="http://www.w3.org/2000/svg"><path d="M309.573 184v76h404.854v-76H800c35.346 0 64 28.654 64 64v620c0 35.346-28.654 64-64 64H224c-35.346 0-64-28.654-64-64V248c0-35.346 28.654-64 64-64h85.573z m363.655 253.945c-11.847-9.94-29.508-8.395-39.448 3.451L474.541 631.17l-74.389-88.653c-9.94-11.846-27.601-13.39-39.447-3.45l-6.128 5.141-0.353 0.3c-11.523 9.993-12.94 27.42-3.098 39.147l98.904 117.868a32 32 0 0 0 3.944 3.944c13.539 11.36 33.723 9.594 45.083-3.944l183.75-218.987c9.94-11.846 8.395-29.507-3.45-39.447zM666 124v80a8 8 0 0 1-8 8H366a8 8 0 0 1-8-8v-80c0-17.673 14.327-32 32-32h244c17.673 0 32 14.327 32 32z" /></svg>