<svg t="1611737294737" class="icon" viewBox="0 0 1024 1024" version="1.1" xmlns="http://www.w3.org/2000/svg" p-id="7717" width="200" height="200"><path d="M864 144v319.999c0 17.673-14.327 32-32 32h-8c-17.673 0-32-14.327-32-32V152H232v692h200c17.673 0 32 14.327 32 32v8c0 17.673-14.327 32-32 32H224c-35.346 0-64-28.654-64-64V144c0-35.346 28.654-64 64-64h576c35.346 0 64 28.654 64 64zM484 456H348c-15.464 0-28-12.536-28-28v-8c0-15.464 12.536-28 28-28h136c15.464 0 28 12.536 28 28v8c0 15.464-12.536 28-28 28z m192-144H348c-15.464 0-28-12.536-28-28v-8c0-15.464 12.536-28 28-28h328c15.464 0 28 12.536 28 28v8c0 15.464-12.536 28-28 28z m-16 516c24.3 0 44 19.7 44 44s-19.7 44-44 44-44-19.7-44-44 19.7-44 44-44z m-4-305c75.11 0 136 55.069 136 123 0 51.276-34.692 95.223-84.005 113.69-7.044 2.94-11.995 10-11.995 18.11v2.2c0 17.673-14.327 32-32 32h-8c-17.673 0-32-14.327-32-32v-2.2c0-39.522 25.057-73.19 60.15-85.989C705.385 683.513 720 666.117 720 646c0-28.167-28.654-51-64-51-35.346 0-63.997 22.833-63.997 51v0.304c0 17.674-14.327 32-32 32H552c-17.673 0-32-14.326-32-32V646c0-67.931 60.89-123 136-123z" p-id="7718"></path></svg>