<?xml version="1.0" standalone="no"?><!DOCTYPE svg PUBLIC "-//W3C//DTD SVG 1.1//EN" "http://www.w3.org/Graphics/SVG/1.1/DTD/svg11.dtd"><svg class="icon" width="200px" height="200.00px" viewBox="0 0 1024 1024" version="1.1" xmlns="http://www.w3.org/2000/svg"><path d="M644.223 82.745l201.031 201.03a64 64 0 0 1 18.745 45.255L864 450h16c17.673 0 32 14.327 32 32v318c0 17.496-14.042 31.713-31.47 31.996L880 832h-16v64c0 35.346-28.654 64-64 64H224c-35.346 0-64-28.654-64-64v-64h-16c-17.496 0-31.713-14.042-32-31.47V482c0-17.673 14.327-32 32-32h16V128c0-35.347 28.654-64 64-64h374.968a64 64 0 0 1 45.255 18.745zM792 832H232v56h560v-56zM321.92 535.082h-94.043V751h44.824v-77.637h45.85c23.926 0 42.334-5.273 55.224-15.82 12.891-10.547 19.336-28.564 19.336-54.053 0-23.34-6.445-40.576-19.336-51.709-12.727-10.992-29.738-16.557-51.034-16.696l-0.821-0.003z m206.047 0h-93.018V751h93.018c32.617 0 56.738-13.428 72.363-40.283 11.524-19.922 17.285-44.238 17.285-72.95 0-11.328-1.367-23.242-4.101-35.742-2.735-12.5-7.862-24.12-15.381-34.863-9.375-13.281-21.631-22.412-36.768-27.392-8.675-2.86-19.49-4.417-32.446-4.672l-0.952-0.016z m284.709 0.293H659.6V751h44.824v-90.527h94.775v-37.5h-94.775v-49.659h108.252v-37.939zM520.35 572.582c20.507 0 34.204 5.884 41.088 17.651 6.885 11.768 10.328 28.638 10.328 50.61 0 15.919-2.295 29.64-6.885 41.163-8.399 20.996-23.242 31.494-44.531 31.494h-41.602V572.582h41.602z m-205.608 0c10.645 0 18.921 2.393 24.83 7.178 5.907 4.785 8.862 12.793 8.862 24.023s-2.955 19.434-8.863 24.61c-5.908 5.175-14.184 7.763-24.829 7.763h-42.04v-63.574h42.04zM534 136H232v314h560v-56H598c-34.993 0-63.426-28.083-63.992-62.942L534 330V136z m72 16.002V322h169.998L606 152.002z" /></svg>