<?xml version="1.0" standalone="no"?><!DOCTYPE svg PUBLIC "-//W3C//DTD SVG 1.1//EN" "http://www.w3.org/Graphics/SVG/1.1/DTD/svg11.dtd"><svg class="icon" width="200px" height="200.00px" viewBox="0 0 1024 1024" version="1.1" xmlns="http://www.w3.org/2000/svg"><path d="M598.968 64a64 64 0 0 1 45.255 18.745l201.032 201.03A64 64 0 0 1 864 329.03V896c0 35.346-28.654 64-64 64H224c-35.346 0-64-28.654-64-64V128c0-35.347 28.654-64 64-64h374.968zM484 624H324c-15.464 0-28 12.536-28 28v8c0 15.464 12.536 28 28 28h160c15.464 0 28-12.536 28-28v-8c0-15.464-12.536-28-28-28z m216-144H324c-15.464 0-28 12.536-28 28v8c0 15.464 12.536 28 28 28h376c15.464 0 28-12.536 28-28v-8c0-15.464-12.536-28-28-28z m-94-327.998V322h169.998L606 152.002z" /></svg>