<?xml version="1.0" standalone="no"?><!DOCTYPE svg PUBLIC "-//W3C//DTD SVG 1.1//EN" "http://www.w3.org/Graphics/SVG/1.1/DTD/svg11.dtd"><svg class="icon" width="200px" height="200.00px" viewBox="0 0 1024 1024" version="1.1" xmlns="http://www.w3.org/2000/svg"><path d="M309.573 172l0.997 88h402.859l0.998-88H800c35.346 0 64 28.654 64 64v632c0 35.346-28.654 64-64 64H224c-35.346 0-64-28.654-64-64V236c0-35.346 28.654-64 64-64h85.573zM484 598H324c-15.464 0-28 12.536-28 28v8c0 15.464 12.536 28 28 28h160c15.464 0 28-12.536 28-28v-8c0-15.464-12.536-28-28-28z m216-150H324c-15.464 0-28 12.536-28 28v8c0 15.464 12.536 28 28 28h376c15.464 0 28-12.536 28-28v-8c0-15.464-12.536-28-28-28z m-34-324v88H358v-88c0-17.673 14.327-32 32-32h244c17.673 0 32 14.327 32 32z" /></svg>