<?xml version="1.0" standalone="no"?><!DOCTYPE svg PUBLIC "-//W3C//DTD SVG 1.1//EN" "http://www.w3.org/Graphics/SVG/1.1/DTD/svg11.dtd"><svg class="icon" width="200px" height="200.00px" viewBox="0 0 1024 1024" version="1.1" xmlns="http://www.w3.org/2000/svg"><path d="M644.223 82.745l201.031 201.03a64 64 0 0 1 18.745 45.255L864 450h16c17.673 0 32 14.327 32 32v318c0 17.496-14.042 31.713-31.47 31.996L880 832h-16v64c0 35.346-28.654 64-64 64H224c-35.346 0-64-28.654-64-64v-64h-16c-17.496 0-31.713-14.042-32-31.47V482c0-17.673 14.327-32 32-32h16V128c0-35.347 28.654-64 64-64h374.968a64 64 0 0 1 45.255 18.745zM792 832H232v56h560v-56zM509.01 528.49c-30.86 0-54.444 8.399-70.752 25.196-21.875 19.824-32.813 49.511-32.813 89.062 0 38.77 10.938 68.457 32.813 89.063 16.308 16.796 39.892 25.195 70.752 25.195 30.86 0 54.443-8.399 70.752-25.195 21.777-20.606 32.666-50.293 32.666-89.063 0-39.55-10.889-69.238-32.666-89.062-16.309-16.797-39.893-25.196-70.752-25.196z m233.879 2.49c-27.149 0-49.512 8.887-67.09 26.66-20.215 20.41-30.322 49.464-30.322 87.159 0 34.863 8.886 62.305 26.66 82.324 17.773 19.922 42.187 29.883 73.242 29.883 25.098 0 45.679-7.373 61.743-22.12 15.871-14.568 25.808-33.425 29.812-56.572l0.144-0.85H792.4c-2.96 10.886-6.667 19.11-11.12 24.674l-0.305 0.376c-8.301 10.351-20.362 15.527-36.182 15.527-15.43 0-28.15-6.03-38.16-18.09-10.009-12.061-15.014-30.201-15.014-54.42 0-24.218 4.736-42.944 14.21-56.177 9.472-13.232 22.411-19.848 38.817-19.848 16.114 0 28.272 4.687 36.475 14.062 4.483 5.151 8.174 12.724 11.074 22.72l0.205 0.718h45.118c-0.684-13.477-5.664-26.904-14.942-40.283-16.797-23.828-43.36-35.743-79.687-35.743z m-461.02 4.102h-93.017V751h93.017c32.617 0 56.738-13.428 72.363-40.283 11.524-19.922 17.286-44.238 17.286-72.95 0-11.328-1.368-23.242-4.102-35.742-2.734-12.5-7.861-24.12-15.38-34.863-9.376-13.281-21.632-22.412-36.768-27.392-8.676-2.86-19.491-4.417-32.447-4.672l-0.952-0.016z m227.14 31.64c17.872 0 32.056 6.617 42.554 19.85 10.499 13.232 15.748 31.957 15.748 56.176 0 24.316-5.25 43.066-15.748 56.25-10.498 13.184-24.682 19.775-42.553 19.775s-32.13-6.591-42.774-19.775c-10.644-13.184-15.966-31.934-15.966-56.25s5.322-43.066 15.966-56.25c10.645-13.184 24.903-19.775 42.774-19.775z m-234.757 5.86c20.508 0 34.204 5.884 41.089 17.651 6.885 11.768 10.327 28.638 10.327 50.61 0 15.919-2.295 29.64-6.885 41.163-8.398 20.996-23.242 31.494-44.531 31.494H232.65V572.582h41.602zM534 136H232v314h560v-56H598c-34.993 0-63.426-28.083-63.992-62.942L534 330V136z m72 16.002V322h169.998L606 152.002z" /></svg>