<?xml version="1.0" standalone="no"?><!DOCTYPE svg PUBLIC "-//W3C//DTD SVG 1.1//EN" "http://www.w3.org/Graphics/SVG/1.1/DTD/svg11.dtd"><svg class="icon" width="200px" height="200.00px" viewBox="0 0 1024 1024" version="1.1" xmlns="http://www.w3.org/2000/svg"><path d="M644.223 82.745l201.032 201.03A64 64 0 0 1 864 329.03V896c0 35.346-28.654 64-64 64H224c-35.346 0-64-28.654-64-64V128c0-35.347 28.654-64 64-64h374.968a64 64 0 0 1 45.255 18.745zM296 136h-64v752h560V394H598c-34.993 0-63.426-28.083-63.992-62.942L534 330V136H360v64h-48c-8.837 0-16-7.163-16-16v-48z m0 584V536c0-8.837 7.163-16 16-16h48v64h48c8.837 0 16 7.163 16 16v120c0 8.837-7.163 16-16 16h-96c-8.837 0-16-7.163-16-16z m80-88h-32v56h32v-56z m48-160v32c0 8.837-7.163 16-16 16h-48v-64h48c8.837 0 16 7.163 16 16z m-64-80v64h-48c-8.837 0-16-7.163-16-16v-32c0-8.837 7.163-16 16-16h48z m64-48v32c0 8.837-7.163 16-16 16h-48v-64h48c8.837 0 16 7.163 16 16z m-64-80v64h-48c-8.837 0-16-7.163-16-16v-32c0-8.837 7.163-16 16-16h48z m246-111.998V322h169.998L606 152.002zM424 216v32c0 8.837-7.163 16-16 16h-48v-64h48c8.837 0 16 7.163 16 16z" /></svg>