<?xml version="1.0" standalone="no"?><!DOCTYPE svg PUBLIC "-//W3C//DTD SVG 1.1//EN" "http://www.w3.org/Graphics/SVG/1.1/DTD/svg11.dtd"><svg class="icon" width="200px" height="200.00px" viewBox="0 0 1024 1024" version="1.1" xmlns="http://www.w3.org/2000/svg"><path d="M644.223 82.745l201.031 201.03a64 64 0 0 1 18.745 45.255L864 450h16c17.673 0 32 14.327 32 32v318c0 17.496-14.042 31.713-31.47 31.996L880 832h-16v64c0 35.346-28.654 64-64 64H224c-35.346 0-64-28.654-64-64v-64h-16c-17.496 0-31.713-14.042-32-31.47V482c0-17.673 14.327-32 32-32h16V128c0-35.347 28.654-64 64-64h374.968a64 64 0 0 1 45.255 18.745zM792 832H232v56h560v-56z m-85.627-303.217c-27.246 0-47.9 6.397-61.963 19.19-14.062 12.793-21.094 28.857-21.094 48.193 0 20.966 7.122 36.436 21.365 46.409l0.462 0.32c1.562 1.083 3.354 2.151 5.375 3.205l0.88 0.451 0.908 0.45 0.465 0.223 0.95 0.446 0.978 0.445 1.263 0.553 1.306 0.55c0.354 0.147 0.713 0.293 1.077 0.44l1.104 0.436 0.563 0.217 1.147 0.434 1.175 0.433 1.508 0.537 1.552 0.535 1.273 0.426 1.301 0.424 1.33 0.423c0.447 0.14 0.9 0.28 1.356 0.42l1.386 0.42 1.413 0.416 1.442 0.415 0.73 0.207 2.237 0.619 1.525 0.41 1.554 0.408 1.582 0.406 1.61 0.405 1.638 0.402 1.666 0.401 1.694 0.4 1.722 0.397 0.872 0.198 22.851 5.127 1.558 0.347 0.766 0.175 1.508 0.353 0.742 0.177 1.819 0.45 1.767 0.455c2.554 0.673 4.942 1.366 7.164 2.08l1.196 0.391a93.557 93.557 0 0 1 4.454 1.606l1.031 0.412c2.876 1.171 5.355 2.392 7.439 3.662 6.25 3.906 9.375 9.423 9.375 16.552 0 12.207-6.3 20.557-18.897 25.05-6.64 2.343-15.283 3.515-25.928 3.515-17.773 0-30.322-4.444-37.646-13.33-3.913-4.772-6.567-11.922-7.962-21.45l-0.095-0.67h-43.066c0 22.462 8.056 40.113 24.17 52.955 16.113 12.842 38.232 19.262 66.357 19.262 27.54 0 48.853-6.518 63.94-19.555 15.088-13.037 22.632-29.42 22.632-49.146 0-19.238-6.445-33.935-19.336-44.092-8.152-6.426-20.167-11.58-36.044-15.463l-0.87-0.21-38.603-9.27-2.033-0.498-1.962-0.49-1.267-0.323-1.841-0.48-1.187-0.317-1.72-0.469-1.649-0.463-1.059-0.305-1.026-0.302-1.48-0.448-0.946-0.295-0.914-0.292-0.882-0.29-0.85-0.286-1.214-0.425-0.39-0.14-1.117-0.416-0.706-0.274-0.673-0.27-0.64-0.269-0.61-0.265c-0.197-0.088-0.39-0.176-0.577-0.263l-0.544-0.26-0.513-0.256a22.65 22.65 0 0 1-0.709-0.38l-0.22-0.125c-6.836-3.81-10.254-9.57-10.254-17.286 0-8.398 3.467-14.941 10.4-19.629 6.934-4.687 16.212-7.03 27.833-7.03 10.45 0 19.19 1.806 26.22 5.42 10.397 5.39 16.049 14.433 16.956 27.13l0.037 0.555h43.36c-0.782-22.95-9.205-40.454-25.27-52.515-16.064-12.06-35.473-18.09-58.227-18.09z m-436.264 6.299h-53.906l66.065 105.908L212.834 751h52.441l43.36-73.535L349.65 751h54.786L334.27 639.232l66.064-104.15h-52.148l-39.551 70.166-38.526-70.166z m213.957 0H438.95V751H591v-38.818H484.066v-177.1zM534 136H232v314h560v-56H598c-34.993 0-63.426-28.083-63.992-62.942L534 330V136z m72 16.002V322h169.998L606 152.002z" /></svg>