<?xml version="1.0" standalone="no"?><!DOCTYPE svg PUBLIC "-//W3C//DTD SVG 1.1//EN" "http://www.w3.org/Graphics/SVG/1.1/DTD/svg11.dtd"><svg class="icon" width="200px" height="200.00px" viewBox="0 0 1024 1024" version="1.1" xmlns="http://www.w3.org/2000/svg"><path d="M644.223 82.745l201.031 201.03a64 64 0 0 1 18.745 45.255L864 450h16c17.673 0 32 14.327 32 32v318c0 17.496-14.042 31.713-31.47 31.996L880 832h-16v64c0 35.346-28.654 64-64 64H224c-35.346 0-64-28.654-64-64v-64h-16c-17.496 0-31.713-14.042-32-31.47V482c0-17.673 14.327-32 32-32h16V128c0-35.347 28.654-64 64-64h374.968a64 64 0 0 1 45.255 18.745zM792 832H232v56h560v-56zM325.92 535.082h-94.043V751h44.824v-77.637h45.85c23.926 0 42.334-5.273 55.224-15.82 12.891-10.547 19.336-28.564 19.336-54.053 0-23.34-6.445-40.576-19.336-51.709-12.727-10.992-29.738-16.557-51.034-16.696l-0.821-0.003z m208.098 0h-94.043V751h44.824v-77.637h45.85c23.925 0 42.333-5.273 55.224-15.82 12.89-10.547 19.336-28.564 19.336-54.053 0-23.34-6.445-40.576-19.336-51.709-12.727-10.992-29.739-16.557-51.034-16.696l-0.821-0.003z m269.914 0H629.029v38.232h64.893V751h45.41V573.314h64.6v-38.232z m-485.19 37.5c10.645 0 18.921 2.393 24.83 7.178 5.907 4.785 8.862 12.793 8.862 24.023s-2.955 19.434-8.863 24.61c-5.908 5.175-14.184 7.763-24.829 7.763h-42.04v-63.574h42.04z m208.098 0c10.644 0 18.92 2.393 24.829 7.178 5.908 4.785 8.862 12.793 8.862 24.023s-2.954 19.434-8.862 24.61c-5.908 5.175-14.185 7.763-24.83 7.763H484.8v-63.574h42.04zM534 136H232v314h560v-56H598c-34.993 0-63.426-28.083-63.992-62.942L534 330V136z m72 16.002V322h169.998L606 152.002z" /></svg>