<?xml version="1.0" standalone="no"?><!DOCTYPE svg PUBLIC "-//W3C//DTD SVG 1.1//EN" "http://www.w3.org/Graphics/SVG/1.1/DTD/svg11.dtd"><svg class="icon" width="200px" height="200.00px" viewBox="0 0 1024 1024" version="1.1" xmlns="http://www.w3.org/2000/svg"><path d="M771.934 573.259l93.338 93.338c12.496 12.497 12.496 32.758 0 45.255L655.55 921.573a32 32 0 0 1-19.838 9.251l-121.264 10.61c-8.803 0.77-16.563-5.742-17.334-14.545a16 16 0 0 1 0-2.787l10.592-121.278a32 32 0 0 1 9.251-19.843L726.68 573.259c12.496-12.497 32.758-12.497 45.255 0z m-22.628 73.54L574.304 821.8l-4.068 46.491 46.497-4.068 175-175-42.427-42.426zM840 144v319.999c0 17.673-14.327 32-32 32h-8c-17.673 0-32-14.327-32-32V152H208v692h200c17.673 0 32 14.327 32 32v8c0 17.673-14.327 32-32 32H200c-35.346 0-64-28.654-64-64V144c0-35.346 28.654-64 64-64h576c35.346 0 64 28.654 64 64zM652 456H324c-15.464 0-28-12.536-28-28v-8c0-15.464 12.536-28 28-28h328c15.464 0 28 12.536 28 28v8c0 15.464-12.536 28-28 28zM460 600H324c-15.464 0-28-12.536-28-28v-8c0-15.464 12.536-28 28-28h136c15.464 0 28 12.536 28 28v8c0 15.464-12.536 28-28 28z m192-288H324c-15.464 0-28-12.536-28-28v-8c0-15.464 12.536-28 28-28h328c15.464 0 28 12.536 28 28v8c0 15.464-12.536 28-28 28z" /></svg>