<?xml version="1.0" standalone="no"?><!DOCTYPE svg PUBLIC "-//W3C//DTD SVG 1.1//EN" "http://www.w3.org/Graphics/SVG/1.1/DTD/svg11.dtd"><svg class="icon" width="200px" height="200.00px" viewBox="0 0 1024 1024" version="1.1" xmlns="http://www.w3.org/2000/svg"><path d="M704 128v56h96c35.346 0 64 28.654 64 64v620c0 35.346-28.654 64-64 64H224c-35.346 0-64-28.654-64-64V248c0-35.346 28.654-64 64-64h96v-56c0-17.673 14.327-32 32-32h320c17.673 0 32 14.327 32 32zM320 256h-88v604h560V256h-88v4c0 15.464-12.536 28-28 28H348c-15.464 0-28-12.536-28-28v-4z m362.807 226.535l-183.75 218.987c-11.36 13.538-31.544 15.304-45.083 3.944a32 32 0 0 1-3.944-3.944l-98.904-117.868c-9.94-11.845-8.396-29.507 3.45-39.447l6.129-5.142c11.846-9.94 29.507-8.395 39.447 3.451l74.39 88.653L633.78 441.396c9.94-11.846 27.601-13.39 39.448-3.45l6.128 5.142c11.846 9.94 13.391 27.6 3.451 39.447zM640 160H384v64h256v-64z" /></svg>