<?xml version="1.0" standalone="no"?><!DOCTYPE svg PUBLIC "-//W3C//DTD SVG 1.1//EN" "http://www.w3.org/Graphics/SVG/1.1/DTD/svg11.dtd"><svg class="icon" width="200px" height="200.00px" viewBox="0 0 1024 1024" version="1.1" xmlns="http://www.w3.org/2000/svg"><path d="M672 512c119.294 0 216 96.706 216 216s-96.706 216-216 216-216-96.706-216-216 96.706-216 216-216z m0 64c-83.947 0-152 68.053-152 152s68.053 152 152 152 152-68.053 152-152-68.053-152-152-152zM776 80c35.346 0 64 28.654 64 64v319.999c0 17.673-14.327 32-32 32h-8c-17.673 0-32-14.327-32-32V152H208v692h200c17.673 0 32 14.327 32 32v8c0 17.673-14.327 32-32 32H200c-35.346 0-64-28.654-64-64V144c0-35.346 28.654-64 64-64h576z m-4.185 611.082l-96.331 114.803c-11.36 13.539-31.545 15.305-45.083 3.945a32 32 0 0 1-3.943-3.943l-42.341-50.457c-9.23-11-7.796-27.398 3.203-36.628 11-9.23 27.4-7.795 36.63 3.204l27.017 32.199 81.014-96.548c9.23-11 25.63-12.435 36.63-3.205 11 9.23 12.434 25.63 3.204 36.63zM460 456H324c-15.464 0-28-12.536-28-28v-8c0-15.464 12.536-28 28-28h136c15.464 0 28 12.536 28 28v8c0 15.464-12.536 28-28 28z m192-144H324c-15.464 0-28-12.536-28-28v-8c0-15.464 12.536-28 28-28h328c15.464 0 28 12.536 28 28v8c0 15.464-12.536 28-28 28z" /></svg>