<?xml version="1.0" standalone="no"?><!DOCTYPE svg PUBLIC "-//W3C//DTD SVG 1.1//EN" "http://www.w3.org/Graphics/SVG/1.1/DTD/svg11.dtd"><svg class="icon" width="200px" height="200.00px" viewBox="0 0 1024 1024" version="1.1" xmlns="http://www.w3.org/2000/svg"><path d="M696 512c61.856 0 112 50.144 112 112 0 26.787-9.404 51.377-25.09 70.65L844.458 768H856c17.673 0 32 14.327 32 32v112c0 17.673-14.327 32-32 32H536c-17.673 0-32-14.327-32-32V800c0-17.673 14.327-32 32-32h12.19l61.22-72.958C593.532 675.71 584 650.969 584 624c0-61.856 50.144-112 112-112z m0 64c-26.51 0-48 21.49-48 48s21.49 48 48 48 48-21.49 48-48-21.49-48-48-48zM568 832v48h256v-48H568z m157.536-99.936A112.128 112.128 0 0 1 696 736a112.154 112.154 0 0 1-29.007-3.793L636.958 768H755.69l-30.154-35.936zM776 80c35.346 0 64 28.654 64 64v319.999c0 17.673-14.327 32-32 32h-8c-17.673 0-32-14.327-32-32V152H208v692h200c17.673 0 32 14.327 32 32v8c0 17.673-14.327 32-32 32H200c-35.346 0-64-28.654-64-64V144c0-35.346 28.654-64 64-64h576zM460 456H324c-15.464 0-28-12.536-28-28v-8c0-15.464 12.536-28 28-28h136c15.464 0 28 12.536 28 28v8c0 15.464-12.536 28-28 28z m192-144H324c-15.464 0-28-12.536-28-28v-8c0-15.464 12.536-28 28-28h328c15.464 0 28 12.536 28 28v8c0 15.464-12.536 28-28 28z" /></svg>