<?xml version="1.0" standalone="no"?><!DOCTYPE svg PUBLIC "-//W3C//DTD SVG 1.1//EN" "http://www.w3.org/Graphics/SVG/1.1/DTD/svg11.dtd"><svg class="icon" width="200px" height="200.00px" viewBox="0 0 1024 1024" version="1.1" xmlns="http://www.w3.org/2000/svg"><path d="M644.223 82.745l201.031 201.03a64 64 0 0 1 18.745 45.255L864 450h16c17.673 0 32 14.327 32 32v318c0 17.496-14.042 31.713-31.47 31.996L880 832h-16v64c0 35.346-28.654 64-64 64H224c-35.346 0-64-28.654-64-64v-64h-16c-17.496 0-31.713-14.042-32-31.47V482c0-17.673 14.327-32 32-32h16V128c0-35.347 28.654-64 64-64h374.968a64 64 0 0 1 45.255 18.745zM792 832H232v56h560v-56z m-91.43-302.484c-31.64 0-57.08 10.547-76.318 31.64-19.238 21.094-28.857 49.121-28.857 84.082 0 34.57 9.521 61.817 28.564 81.739 18.262 19.824 41.7 29.736 70.312 29.736 17.084 0 31.526-3.537 43.327-10.61l0.619-0.376c5.016-3.038 10.491-7.66 16.427-13.866l1.052-1.112 1.062-1.145a183.173 183.173 0 0 0 4.343-4.907l0.553-0.65L766.195 751h29.883V635.13h-89.941v36.036h49.95c-2.245 14.16-8.202 25.61-17.87 34.35-9.668 8.74-22.07 13.111-37.207 13.111-15.43 0-29.2-5.518-41.309-16.553-12.11-11.035-18.164-29.834-18.164-56.396 0-26.367 5.59-46.118 16.773-59.253 11.181-13.135 25.463-19.702 42.846-19.702 9.082 0 17.334 1.611 24.756 4.834 13.102 5.78 21.404 15.884 24.908 30.312l0.14 0.596h44.386c-2.442-20.8-11.988-38.16-28.638-52.075-16.65-13.916-38.696-20.874-66.138-20.874z m-355.55 5.566h-45.118v151.025l-0.005 1.318-0.017 1.285-0.028 1.251c-0.01 0.412-0.024 0.818-0.039 1.22l-0.05 1.185-0.061 1.153-0.035 0.564-0.078 1.104-0.09 1.07-0.048 0.524-0.106 1.021c-0.501 4.523-1.34 8.047-2.519 10.571-3.418 7.422-10.449 11.133-21.094 11.133-10.742 0-17.749-3.394-21.02-10.18-1.003-2.081-1.87-4.627-2.602-7.64l-0.227-0.966-0.11-0.495-0.213-1.013c-0.487-2.4-0.9-5.052-1.24-7.958l-0.142-1.26-0.132-1.292-0.123-1.323-0.115-1.353-0.053-0.689-0.101-1.4-0.047-0.711-0.087-1.447-0.114-2.227-0.065-1.524-0.03-0.774-0.05-1.57-0.042-1.588v-4.98h-42.627v4.98c0 25.39 4.785 45.434 14.355 60.132 9.57 14.697 28.37 22.045 56.397 22.045 28.027 0 47.412-9.082 58.154-27.246 6.244-10.566 9.417-24.817 9.519-42.752l0.003-0.9V535.082z m147.746 0h-94.043V751h44.824v-77.637h45.85c23.925 0 42.333-5.273 55.224-15.82 12.89-10.547 19.336-28.564 19.336-54.053 0-23.34-6.445-40.576-19.336-51.709-12.727-10.992-29.739-16.557-51.034-16.696l-0.821-0.003z m-7.178 37.5c10.644 0 18.92 2.393 24.829 7.178 5.908 4.785 8.862 12.793 8.862 24.023s-2.954 19.434-8.862 24.61c-5.908 5.175-14.185 7.763-24.83 7.763h-42.04v-63.574h42.04zM534 136H232v314h560v-56H598c-34.993 0-63.426-28.083-63.992-62.942L534 330V136z m72 16.002V322h169.998L606 152.002z" /></svg>