<?xml version="1.0" standalone="no"?><!DOCTYPE svg PUBLIC "-//W3C//DTD SVG 1.1//EN" "http://www.w3.org/Graphics/SVG/1.1/DTD/svg11.dtd"><svg class="icon" width="200px" height="200.00px" viewBox="0 0 1024 1024" version="1.1" xmlns="http://www.w3.org/2000/svg"><path d="M598.968 64a64 64 0 0 1 45.255 18.745l201.032 201.03A64 64 0 0 1 864 329.03V896c0 35.346-28.654 64-64 64H224c-35.346 0-64-28.654-64-64V128c0-35.347 28.654-64 64-64h374.968zM360 520h-48c-8.731 0-15.83 6.994-15.997 15.685L296 536v184c0 8.731 6.994 15.83 15.685 15.997L312 736h96c8.731 0 15.83-6.994 15.997-15.685L424 720V600c0-8.731-6.994-15.83-15.685-15.997L408 584h-48v-64z m48-64h-48v64h48c8.731 0 15.83-6.994 15.997-15.685L424 504v-32c0-8.731-6.994-15.83-15.685-15.997L408 456z m-48-64h-48c-8.731 0-15.83 6.994-15.997 15.685L296 408v32c0 8.731 6.994 15.83 15.685 15.997L312 456h48v-64z m48-64h-48v64h48c8.731 0 15.83-6.994 15.997-15.685L424 376v-32c0-8.731-6.994-15.83-15.685-15.997L408 328z m-48-64h-48c-8.731 0-15.83 6.994-15.997 15.685L296 280v32c0 8.731 6.994 15.83 15.685 15.997L312 328h48v-64z m246-111.998V322h169.998L606 152.002zM408 200h-48v64h48c8.731 0 15.83-6.994 15.997-15.685L424 248v-32c0-8.731-6.994-15.83-15.685-15.997L408 200z" /></svg>