<?xml version="1.0" standalone="no"?><!DOCTYPE svg PUBLIC "-//W3C//DTD SVG 1.1//EN" "http://www.w3.org/Graphics/SVG/1.1/DTD/svg11.dtd"><svg class="icon" width="200px" height="200.00px" viewBox="0 0 1024 1024" version="1.1" xmlns="http://www.w3.org/2000/svg"><path d="M672 96c17.673 0 32 14.327 32 32v56h96c35.346 0 64 28.654 64 64v620c0 35.346-28.654 64-64 64H224c-35.346 0-64-28.654-64-64V248c0-35.346 28.654-64 64-64h96v-56c0-17.673 14.327-32 32-32h320zM320 256h-88v604h560V256h-88c0 17.673-14.327 32-32 32H352c-17.496 0-31.713-14.042-31.996-31.47L320 256z m320-96H384v64h256v-64zM484 662H324c-15.464 0-28-12.536-28-28v-8c0-15.464 12.536-28 28-28h160c15.464 0 28 12.536 28 28v8c0 15.464-12.536 28-28 28z m216-150H324c-15.464 0-28-12.536-28-28v-8c0-15.464 12.536-28 28-28h376c15.464 0 28 12.536 28 28v8c0 15.464-12.536 28-28 28z" /></svg>