<?xml version="1.0" standalone="no"?><!DOCTYPE svg PUBLIC "-//W3C//DTD SVG 1.1//EN" "http://www.w3.org/Graphics/SVG/1.1/DTD/svg11.dtd"><svg class="icon" width="200px" height="200.00px" viewBox="0 0 1024 1024" version="1.1" xmlns="http://www.w3.org/2000/svg"><path d="M672 512c119.294 0 216 96.706 216 216s-96.706 216-216 216-216-96.706-216-216 96.706-216 216-216z m2 270c-17.673 0-32 14.327-32 32 0 17.673 14.327 32 32 32 17.673 0 32-14.327 32-32 0-17.673-14.327-32-32-32z m-2.117-170.63c-37.171 0-68.19 23.603-75.411 54.997a8 8 0 0 0 8.174 10.17h36.668a8.002 8.002 0 0 0 7.873-4.986c3.968-7.192 12.638-12.181 22.696-12.181 13.807 0 25 9.402 25 21 0 6.58-3.603 12.453-9.241 16.304l0.295-0.207c-23.569 10.226-40.054 33.704-40.054 61.033l0.003 0.317c0.169 8.635 7.222 15.583 15.897 15.583h20.1c8.837 0 16-7.163 16-16v-9.416a5.01 5.01 0 0 1 2.151-4.091l0.011-0.018c27.536-10.515 46.838-34.99 46.838-63.505 0-38.108-34.474-69-77-69zM840 144v319.999c0 17.673-14.327 32-32 32h-8c-17.673 0-32-14.327-32-32V152H208v692h200c17.673 0 32 14.327 32 32v8c0 17.673-14.327 32-32 32H200c-35.346 0-64-28.654-64-64V144c0-35.346 28.654-64 64-64h576c35.346 0 64 28.654 64 64zM460 456H324c-15.464 0-28-12.536-28-28v-8c0-15.464 12.536-28 28-28h136c15.464 0 28 12.536 28 28v8c0 15.464-12.536 28-28 28z m192-144H324c-15.464 0-28-12.536-28-28v-8c0-15.464 12.536-28 28-28h328c15.464 0 28 12.536 28 28v8c0 15.464-12.536 28-28 28z" /></svg>