<?xml version="1.0" standalone="no"?><!DOCTYPE svg PUBLIC "-//W3C//DTD SVG 1.1//EN" "http://www.w3.org/Graphics/SVG/1.1/DTD/svg11.dtd"><svg class="icon" width="200px" height="200.00px" viewBox="0 0 1024 1024" version="1.1" xmlns="http://www.w3.org/2000/svg"><path d="M828 113c19.882 0 36 16.118 36 36 0 8.467-2.923 16.25-7.815 22.398l-0.131 0.165a36.19 36.19 0 0 1-0.919 1.095L604 471.948v388.16c0 17.673-14.326 32-32 32a32 32 0 0 1-10.944-1.93l-98.945-36.013c-25.283-9.202-42.11-33.235-42.11-60.14l-0.001-322.076-251.16-299.32a36.19 36.19 0 0 1-0.88-1.051l-0.149-0.176A35.889 35.889 0 0 1 160 149c0-19.683 15.797-35.677 35.405-36H828z" /></svg>