<?xml version="1.0" standalone="no"?><!DOCTYPE svg PUBLIC "-//W3C//DTD SVG 1.1//EN" "http://www.w3.org/Graphics/SVG/1.1/DTD/svg11.dtd"><svg class="icon" width="200px" height="200.00px" viewBox="0 0 1024 1024" version="1.1" xmlns="http://www.w3.org/2000/svg"><path d="M828 113c19.882 0 36 16.118 36 36 0 8.467-2.923 16.25-7.815 22.398l-0.131 0.165a36.19 36.19 0 0 1-0.919 1.095L620 452.88v413.052c0 17.674-14.327 32-32 32a32 32 0 0 1-10.945-1.93l-130.944-47.659C420.828 839.14 404 815.107 404 788.202v-335.32L168.84 172.629a36.19 36.19 0 0 1-0.882-1.051l-0.148-0.176A35.889 35.889 0 0 1 160 149c0-19.683 15.797-35.677 35.405-36H828z m-82.434 72H278.431l197.568 235.452v357.889l72 26.206V420.452L745.566 185z" /></svg>