<?xml version="1.0" standalone="no"?><!DOCTYPE svg PUBLIC "-//W3C//DTD SVG 1.1//EN" "http://www.w3.org/Graphics/SVG/1.1/DTD/svg11.dtd"><svg class="icon" width="200px" height="200.00px" viewBox="0 0 1024 1024" version="1.1" xmlns="http://www.w3.org/2000/svg"><path d="M144 112h8c17.673 0 32 14.327 32 32v16h400c35.346 0 64 28.654 64 64v120h200c35.346 0 64 28.654 64 64v336c0 35.346-28.654 64-64 64H512c-35.346 0-64-28.654-64-64V624H184v256c0 17.673-14.327 32-32 32h-8c-17.673 0-32-14.327-32-32V144c0-17.673 14.327-32 32-32z m696 304H648v200a8 8 0 0 1-8 8H520v112h320V416zM184 552h392V232H184v320z" /></svg>