<?xml version="1.0" standalone="no"?><!DOCTYPE svg PUBLIC "-//W3C//DTD SVG 1.1//EN" "http://www.w3.org/Graphics/SVG/1.1/DTD/svg11.dtd"><svg class="icon" width="200px" height="200.00px" viewBox="0 0 1024 1024" version="1.1" xmlns="http://www.w3.org/2000/svg"><path d="M456 184v68h252c35.346 0 64 28.654 64 64v252h68c35.346 0 64 28.654 64 64v208c0 35.346-28.654 64-64 64H632c-35.346 0-64-28.654-64-64V632c0-35.346 28.654-64 64-64h68V324H456v68c0 35.346-28.654 64-64 64h-68v112h68c35.346 0 64 28.654 64 64v208c0 35.346-28.654 64-64 64H184c-35.346 0-64-28.654-64-64V632c0-35.346 28.654-64 64-64h68V456h-68c-35.346 0-64-28.654-64-64V184c0-35.346 28.654-64 64-64h208c35.346 0 64 28.654 64 64z m376 456H640v192h192V640z m-448 0H192v192h192V640z m0-448H192v192h192V192z" /></svg>