<?xml version="1.0" standalone="no"?><!DOCTYPE svg PUBLIC "-//W3C//DTD SVG 1.1//EN" "http://www.w3.org/Graphics/SVG/1.1/DTD/svg11.dtd"><svg class="icon" width="200px" height="200.00px" viewBox="0 0 1024 1024" version="1.1" xmlns="http://www.w3.org/2000/svg"><path d="M720 540c99.411 0 180 80.589 180 180s-80.589 180-180 180-180-80.589-180-180V572c0-17.673 14.327-32 32-32h148z m-236 32v148c0 99.411-80.589 180-180 180s-180-80.589-180-180 80.589-180 180-180h148c17.673 0 32 14.327 32 32z m236 32H604v116c0 64.065 51.935 116 116 116s116-51.935 116-116-51.935-116-116-116z m-300 0H304c-64.065 0-116 51.935-116 116s51.935 116 116 116 116-51.935 116-116V604zM304 124c99.411 0 180 80.589 180 180v148c0 17.673-14.327 32-32 32H304c-99.411 0-180-80.589-180-180s80.589-180 180-180z m416 0c99.411 0 180 80.589 180 180s-80.589 180-180 180H572c-17.673 0-32-14.327-32-32V304c0-99.411 80.589-180 180-180z m-416 64c-64.065 0-116 51.935-116 116s51.935 116 116 116h116V304c0-64.065-51.935-116-116-116z m416 0c-64.065 0-116 51.935-116 116v116h116c64.065 0 116-51.935 116-116s-51.935-116-116-116z" /></svg>