<?xml version="1.0" standalone="no"?><!DOCTYPE svg PUBLIC "-//W3C//DTD SVG 1.1//EN" "http://www.w3.org/Graphics/SVG/1.1/DTD/svg11.dtd"><svg class="icon" width="200px" height="200.00px" viewBox="0 0 1024 1024" version="1.1" xmlns="http://www.w3.org/2000/svg"><path d="M160 160l258.222 0.016a32 32 0 0 1 20.567 7.487L544.256 256H864c35.346 0 64 28.654 64 64v480c0 35.346-28.654 64-64 64H160c-35.346 0-64-28.654-64-64V224c0-34.993 28.08-63.426 62.938-63.991L160 160z m356 264h-8c-15.464 0-28 12.536-28 28v76h-76c-15.464 0-28 12.536-28 28v8c0 15.464 12.536 28 28 28h76v76c0 15.464 12.536 28 28 28h8c15.464 0 28-12.536 28-28v-76l76-0.002c15.464 0 28-12.537 28-28V556c0-15.464-12.536-28-28-28h-76v-76c0-15.464-12.536-28-28-28z" /></svg>