<?xml version="1.0" standalone="no"?><!DOCTYPE svg PUBLIC "-//W3C//DTD SVG 1.1//EN" "http://www.w3.org/Graphics/SVG/1.1/DTD/svg11.dtd"><svg class="icon" width="200px" height="200.00px" viewBox="0 0 1024 1024" version="1.1" xmlns="http://www.w3.org/2000/svg"><path d="M438.79 167.503L544.255 256H864c35.346 0 64 28.654 64 64v480c0 35.346-28.654 64-64 64H160c-35.346 0-64-28.654-64-64V224c0-34.993 28.08-63.426 62.938-63.991L160 160l258.222 0.016a32 32 0 0 1 20.567 7.487zM397.418 232H168v560h688V328H588.657l-0.013 0.017h-76.795L397.419 232zM544 452v76h76c15.464 0 28 12.536 28 28v7.997c0 15.464-12.536 28-28 28.001L544 592v76c0 15.464-12.536 28-28 28h-8c-15.464 0-28-12.536-28-28v-76h-76c-15.464 0-28-12.536-28-28v-8c0-15.464 12.536-28 28-28h76v-76c0-15.464 12.536-28 28-28h8c15.464 0 28 12.536 28 28z" /></svg>