<?xml version="1.0" standalone="no"?><!DOCTYPE svg PUBLIC "-//W3C//DTD SVG 1.1//EN" "http://www.w3.org/Graphics/SVG/1.1/DTD/svg11.dtd"><svg class="icon" width="200px" height="200.00px" viewBox="0 0 1024 1024" version="1.1" xmlns="http://www.w3.org/2000/svg"><path d="M438.789 167.503L544.257 256H864c35.346 0 64 28.654 64 64v480c0 35.346-28.654 64-64 64H160c-35.346 0-64-28.654-64-64V224c0-34.993 28.08-63.426 62.938-63.991l1.059-0.009 258.225 0.016a32 32 0 0 1 20.567 7.487zM804 656H540c-15.464 0-28 12.536-28 28v8c0 15.464 12.536 28 28 28h264c15.464 0 28-12.536 28-28v-8c0-15.464-12.536-28-28-28z m0-144H540c-15.464 0-28 12.536-28 28v8c0 15.464 12.536 28 28 28h264c15.464 0 28-12.536 28-28v-8c0-15.464-12.536-28-28-28z" /></svg>