<?xml version="1.0" standalone="no"?><!DOCTYPE svg PUBLIC "-//W3C//DTD SVG 1.1//EN" "http://www.w3.org/Graphics/SVG/1.1/DTD/svg11.dtd"><svg class="icon" width="200px" height="200.00px" viewBox="0 0 1024 1024" version="1.1" xmlns="http://www.w3.org/2000/svg"><path d="M788 540v84h60c35.346 0 64 28.654 64 64v176c0 35.346-28.654 64-64 64H656c-35.346 0-64-28.654-64-64V688c0-35.346 28.654-64 64-64h60v-76H308v76h60c35.346 0 64 28.654 64 64v176c0 35.346-28.654 64-64 64H176c-35.346 0-64-28.654-64-64V688c0-35.346 28.654-64 64-64h60v-84c0-35.346 28.654-64 64-64h176v-76h-60c-35.346 0-64-28.654-64-64V160c0-35.346 28.654-64 64-64h192c35.346 0 64 28.654 64 64v176c0 35.346-28.654 64-64 64h-60v76h176c35.346 0 64 28.654 64 64z" /></svg>