<?xml version="1.0" standalone="no"?><!DOCTYPE svg PUBLIC "-//W3C//DTD SVG 1.1//EN" "http://www.w3.org/Graphics/SVG/1.1/DTD/svg11.dtd"><svg class="icon" width="200px" height="200.00px" viewBox="0 0 1024 1024" version="1.1" xmlns="http://www.w3.org/2000/svg"><path d="M842.115 674.044l-112.847 0.003 148.421 148.42c13.277 13.279 13.277 34.806 0 48.084l-7.069 7.07c-13.277 13.279-34.805 13.28-48.083 0.002v-0.001L674.114 729.2v112.847c0 17.673-14.326 32-32 32h-8c-17.672 0-32-14.327-32-32v-176c0-35.347 28.655-64 64-64h176c17.674 0 32 14.326 32 32v7.996c0 17.673-14.326 32-32 32z m-484-71.996c35.346 0 64 28.653 64 64v176c0 17.673-14.327 32-32 32h-8c-17.673 0-32-14.327-32-32l-0.001-112.846-148.42 148.42c-13.277 13.278-34.804 13.278-48.082 0l-7.071-7.071c-13.278-13.278-13.278-34.806 0-48.084l148.42-148.42H182.115c-17.673 0-32-14.326-32-32v-8c0-17.673 14.327-32 32-32h176z m-156.42-455.575l148.419 148.42V182.048c0-17.674 14.328-32 32-32h8c17.674 0 32 14.326 32 32v176c0 35.346-28.653 64-64 64h-176c-17.672 0-32-14.327-32-32v-8c0.001-17.674 14.328-32 32-32l112.846-0.001-148.42-148.42c-13.277-13.277-13.277-34.805 0-48.083l7.072-7.07c13.278-13.278 34.805-13.278 48.083 0z m472.419 148.42l148.42-148.42c13.279-13.277 34.806-13.277 48.085 0l7.07 7.07c13.278 13.276 13.279 34.804 0.001 48.082L729.268 350.047h112.846c17.673 0 32 14.327 32 32v8c0 17.674-14.327 32-32 32h-176c-35.346 0-64-28.653-64-64v-176c0-17.673 14.327-32 32-32h7.996c17.673 0.001 32 14.328 32 32l0.003 112.847z" /></svg>