<?xml version="1.0" standalone="no"?><!DOCTYPE svg PUBLIC "-//W3C//DTD SVG 1.1//EN" "http://www.w3.org/Graphics/SVG/1.1/DTD/svg11.dtd"><svg class="icon" width="200px" height="200.00px" viewBox="0 0 1024 1024" version="1.1" xmlns="http://www.w3.org/2000/svg"><path d="M880 712H712v168c0 17.673-14.327 32-32 32h-8c-17.673 0-32-14.327-32-32V704c0-35.346 28.654-64 64-64h176c17.673 0 32 14.327 32 32v8c0 17.673-14.327 32-32 32zM312 880V712H144c-17.673 0-32-14.327-32-32v-8c0-17.673 14.327-32 32-32h176c35.346 0 64 28.654 64 64v176c0 17.673-14.327 32-32 32h-8c-17.673 0-32-14.327-32-32z m72-736v176c0 35.346-28.654 64-64 64H144c-17.673 0-32-14.327-32-32v-8c0-17.673 14.327-32 32-32h168V144c0-17.673 14.327-32 32-32h8c17.673 0 32 14.327 32 32z m328 0v168h168c17.673 0 32 14.327 32 32v8c0 17.673-14.327 32-32 32H704c-35.346 0-64-28.654-64-64V144c0-17.673 14.327-32 32-32h8c17.673 0 32 14.327 32 32z" /></svg>