<?xml version="1.0" standalone="no"?><!DOCTYPE svg PUBLIC "-//W3C//DTD SVG 1.1//EN" "http://www.w3.org/Graphics/SVG/1.1/DTD/svg11.dtd"><svg class="icon" width="200px" height="200.00px" viewBox="0 0 1024 1024" version="1.1" xmlns="http://www.w3.org/2000/svg"><path d="M90.478 521.878l92.43-322.345C194.438 149.947 238.904 113 292 113c61.522 0 111.459 49.605 111.996 111l0.003 112H842c51.915 0 94 42.085 94 94s-42.085 94-94 94l-1.001-0.005 0.001 0.005-165.173-0.001c3.88 13.327 5.96 27.421 5.96 42.001 0 24.604-5.924 47.825-16.423 68.314 5.455 15.549 8.423 32.27 8.423 49.686 0 20.238-4.008 39.54-11.273 57.156 7.232 15.435 11.273 32.668 11.273 50.844 0 65.611-52.657 118.924-118.015 119.984l-1.773 0.016H152c-35.346 0-64-28.654-64-64V539.519a64 64 0 0 1 2.48-17.64zM292 185c-17.217 0-31.893 10.877-37.532 26.135l0.015 0.003L160 540.64V840h393.788c26.51 0 48-21.49 48-48 0-20.809-13.241-38.525-31.758-45.182 19.263-14.2 31.758-37.05 31.758-62.818 0-21.745-8.898-41.412-23.252-55.557 18.975-14.226 31.252-36.9 31.252-62.443 0-28.456-15.238-53.353-38-66.976V452H841v-0.022c0.331 0.015 0.665 0.022 1 0.022 12.15 0 22-9.85 22-22s-9.85-22-22-22c-0.335 0-0.669 0.007-1 0.022V408H332V224.241l-0.007-0.002C331.587 202.5 313.837 185 292 185z" /></svg>