<svg t="1584433646463" class="icon" viewBox="0 0 1024 1024" version="1.1" xmlns="http://www.w3.org/2000/svg" p-id="9739" width="200" height="200"><path d="M832 64c35.346 0 64 28.654 64 64v285h-0.014c-0.53 19.42-16.438 35-35.986 35s-35.457-15.58-35.986-35H824V136H200v752h212c19.882 0 36 16.118 36 36s-16.118 36-36 36H192c-35.346 0-64-28.654-64-64V128c0-35.346 28.654-64 64-64h640z m-79 832c17.673 0 32 14.327 32 32 0 17.673-14.327 32-32 32-17.673 0-32-14.327-32-32 0-17.673 14.327-32 32-32z m18.336-382.555c54.536 3.603 97.134 37.074 115.482 86.022 17.462 46.58 10.274 100.393-20.74 141.164l-4.28 5.614c-16.57 21.673-30.053 38.648-42.694 53.958l-3.354 4.036-15.608 18.63c-3.18 3.815-5.943 7.152-7.358 8.917l-0.727 0.916-2.915 3.742-1.631 2.122c-1.442 1.89-2.354 3.134-3.085 4.199l-0.452 0.672-0.045 0.786-0.038 0.971c-0.04 1.353-0.06 3.195-0.062 5.832v0.424c0 17.673-14.327 32-32 32-17.673 0-32-14.327-32-32l0.004-2.077 0.014-2.034c0.117-11.872 0.861-17.882 3.906-26.004l0.165-0.438c3.234-8.478 6.438-13.146 16.81-26.453l0.799-1.02 1.263-1.595 1.499-1.848c6.576-8.047 22.062-26.42 23.628-28.308l3.082-3.73 2.494-3.038c12.123-14.81 25.295-31.523 41.647-53.02 17.504-23.012 21.6-53.678 11.75-79.954-9.748-26.007-31.026-42.726-59.773-44.625-32-2.113-55.363 6.627-71.103 23.612-13.972 15.077-21.842 36.936-22.011 60.184l-0.003 0.767c0 17.673-14.327 32-32 32-17.673 0-32-14.327-32-32 0-39.002 13.448-76.801 39.07-104.452 29.2-31.51 71.48-47.326 122.266-43.972zM423 672c17.673 0 32 14.327 32 32 0 17.673-14.327 32-32 32H311c-17.673 0-32-14.327-32-32 0-17.673 14.327-32 32-32h112z m58-192c17.673 0 32 14.327 32 32 0 17.673-14.327 32-32 32H311c-17.673 0-32-14.327-32-32 0-17.673 14.327-32 32-32h170z m230-192c17.673 0 32 14.327 32 32 0 17.673-14.327 32-32 32H311c-17.673 0-32-14.327-32-32 0-17.673 14.327-32 32-32h400z" p-id="9740"></path></svg>