<?xml version="1.0" standalone="no"?><!DOCTYPE svg PUBLIC "-//W3C//DTD SVG 1.1//EN" "http://www.w3.org/Graphics/SVG/1.1/DTD/svg11.dtd"><svg class="icon" width="200px" height="200.00px" viewBox="0 0 1024 1024" version="1.1" xmlns="http://www.w3.org/2000/svg"><path d="M557.329 109.712l375.474 375.474-0.09 0.09c16.409 14.22 26.898 35.09 27.276 58.418L960 545c0 43.194-34.666 78.292-77.694 78.99L864 624v304c0 17.673-14.327 32-32 32H192c-17.673 0-32-14.327-32-32V624h-17c-43.63 0-79-35.37-79-79 0-20.944 8.15-39.984 21.452-54.122l-0.035-0.035 381.388-381.145c25.01-24.966 65.522-24.96 90.524 0.014zM892.136 552L511.938 171.801 131.74 552 232 552v336h154V688c0-35.346 28.654-64 64-64h124c35.346 0 64 28.654 64 64v200h154V552h100.136zM566 696H458v192h108V696z" /></svg>