<?xml version="1.0" standalone="no"?><!DOCTYPE svg PUBLIC "-//W3C//DTD SVG 1.1//EN" "http://www.w3.org/Graphics/SVG/1.1/DTD/svg11.dtd"><svg class="icon" width="200px" height="200.00px" viewBox="0 0 1024 1024" version="1.1" xmlns="http://www.w3.org/2000/svg"><path d="M557.058 109.712l375.03 375.028C949.164 499.23 960 520.85 960 545c0 43.63-35.37 79-79 79a79.291 79.291 0 0 1-17.001-1.834V928c0.001 17.496-14.04 31.713-31.47 32H192c-17.496 0-31.713-14.042-31.996-31.47L160 928V622.166A79.291 79.291 0 0 1 143 624c-43.63 0-79-35.37-79-79 0-20.944 8.15-39.985 21.452-54.123l-0.035-0.034 381.13-381.13c24.994-24.994 65.517-24.994 90.51-0.001zM550 688h-76c-17.673 0-32 14.327-32 32v176h140V720c0-17.673-14.327-32-32-32z" /></svg>