<svg t="1585879816315" class="icon" viewBox="0 0 1024 1024" version="1.1" xmlns="http://www.w3.org/2000/svg" p-id="17071" width="200" height="200"><path d="M531.13 69.191l0.432 0.266L943.04 326.344c16.872 10.533 22.024 32.77 11.508 49.669-10.412 16.729-32.276 21.954-49.083 11.836l-0.508-0.311L854 355.725V896c0 35.329-28.654 64-64 64H235c-35.346 0-64-28.671-64-64V355.183l-51.99 32.377c-16.716 10.408-38.637 5.43-49.26-11.078l-0.318-0.504c-10.392-16.741-5.422-38.698 11.06-49.337l0.503-0.319L493.514 69.436a35.949 35.949 0 0 1 37.616-0.245zM512 576c-84.748 0-153.61 68.015-154.98 152.437L357 731v165h310V731c0-85.604-69.396-155-155-155z" p-id="17072"></path></svg>