<svg t="1586845057779" class="icon" viewBox="0 0 1024 1024" version="1.1" xmlns="http://www.w3.org/2000/svg" p-id="30171" width="200" height="200"><path d="M980.091181 375.747765L580.851652 26.081882a99.087059 99.087059 0 0 0-132.517647 0L43.91424 375.747765A35.117176 35.117176 0 0 0 30.120358 404.299294c0 19.576471 15.480471 35.659294 34.394353 35.659294 8.613647 0 17.227294-3.614118 22.407529-8.914823l12.047059-10.721883v397.854118c0 80.233412 58.488471 146.251294 132.517647 146.251294h561.031529c72.282353 0 132.517647-66.017882 132.517647-146.251294V420.321882l10.360471 8.914824a36.502588 36.502588 0 0 0 24.094118 8.914823 35.177412 35.177412 0 0 0 34.394353-35.659294 37.104941 37.104941 0 0 0-13.793883-26.74447z m-536.937412 517.300706V643.312941c0-19.636706 15.480471-35.659294 34.454589-35.659294H546.336828c18.974118 0 34.454588 16.022588 34.454588 35.659294v249.73553H443.153769z m413.033412-74.872471c0 40.96-29.214118 74.872471-65.355294 74.872471h-141.131294V643.312941c0-58.849882-46.501647-107.038118-103.303529-107.038117H477.668593c-56.801882 0-103.303529 48.188235-103.303529 107.038117v249.73553H233.173534c-36.141176 0-65.355294-33.852235-65.355294-74.872471V361.411765l323.523765-280.094118c12.047059-10.661647 30.960941-10.661647 44.754823 0l320.090353 278.287059v458.511059z" p-id="30172"></path></svg>