<?xml version="1.0" standalone="no"?><!DOCTYPE svg PUBLIC "-//W3C//DTD SVG 1.1//EN" "http://www.w3.org/Graphics/SVG/1.1/DTD/svg11.dtd"><svg class="icon" width="200px" height="200.00px" viewBox="0 0 1024 1024" version="1.1" xmlns="http://www.w3.org/2000/svg"><path d="M896 160c35.346 0 64 28.654 64 64v576c0 35.346-28.654 64-64 64H128c-35.346 0-64-28.654-64-64V224c0-35.346 28.654-64 64-64h768zM700 400h-8c-15.464 0-28 12.536-28 28v168c0 15.464 12.536 28 28 28h8c15.464 0 28-12.536 28-28V428c0-15.464-12.536-28-28-28zM516 560H316c-15.464 0-28 12.536-28 28v8c0 15.464 12.536 28 28 28h200c15.464 0 28-12.536 28-28v-8c0-15.464-12.536-28-28-28z m0-160H316c-15.464 0-28 12.536-28 28v8c0 15.464 12.536 28 28 28h200c15.464 0 28-12.536 28-28v-8c0-15.464-12.536-28-28-28z" /></svg>