<?xml version="1.0" standalone="no"?><!DOCTYPE svg PUBLIC "-//W3C//DTD SVG 1.1//EN" "http://www.w3.org/Graphics/SVG/1.1/DTD/svg11.dtd"><svg class="icon" width="200px" height="200.00px" viewBox="0 0 1024 1024" version="1.1" xmlns="http://www.w3.org/2000/svg"><path d="M512 64c247.424 0 448 200.576 448 448S759.424 960 512 960 64 759.424 64 512 264.576 64 512 64z m12 384h-24c-10.93 0-19.813 8.769-19.997 19.656L480 468v248c0 10.93 8.769 19.813 19.656 19.997L500 736h24c10.93 0 19.813-8.769 19.997-19.656L544 716V468c0-10.93-8.769-19.813-19.656-19.997L524 448z m-12-160c-26.51 0-48 21.49-48 48s21.49 48 48 48 48-21.49 48-48-21.49-48-48-48z" /></svg>