<?xml version="1.0" standalone="no"?><!DOCTYPE svg PUBLIC "-//W3C//DTD SVG 1.1//EN" "http://www.w3.org/Graphics/SVG/1.1/DTD/svg11.dtd"><svg class="icon" width="200px" height="200.00px" viewBox="0 0 1024 1024" version="1.1" xmlns="http://www.w3.org/2000/svg"><path d="M532.568 728.769a32 32 0 0 1 3.944 3.944l146.605 174.718c11.36 13.538 9.594 33.722-3.944 45.082a32 32 0 0 1-20.57 7.487h-293.21c-17.673 0-32-14.327-32-32a32 32 0 0 1 7.487-20.57l146.606-174.717c11.36-13.538 31.544-15.304 45.082-3.944zM512 64c247.424 0 448 200.576 448 448 0 153.553-77.252 289.062-195.012 369.782l-3.689 2.504a15.927 15.927 0 0 1-9.307 2.984 15.967 15.967 0 0 1-12.338-5.813l-0.005 0.002-25.494-30.381 0.013-0.01a15.938 15.938 0 0 1-4.055-10.333l-0.003-0.315c0-5.59 2.866-10.51 7.21-13.37C820.084 759.934 888 643.898 888 512c0-207.66-168.34-376-376-376S136 304.34 136 512c0 132.22 68.246 248.5 171.435 315.535l-0.02 0.021c3.935 2.915 6.485 7.592 6.485 12.864 0 3.787-1.316 7.267-3.515 10.007l-0.167 0.203-25.569 30.47c-2.931 3.754-7.499 6.17-12.631 6.17-3.464 0-6.67-1.1-9.29-2.971C142.88 803.899 64 667.16 64 512 64 264.576 264.576 64 512 64z m0 128c176.731 0 320 143.269 320 320 0 116.195-61.93 217.925-154.583 273.984a15.95 15.95 0 0 1-8.407 2.382 15.966 15.966 0 0 1-12.233-5.687l-0.012 0.007-78.42-93.458 0.018-0.013a15.938 15.938 0 0 1-4.06-10.34l-0.003-0.315c0-6.535 3.917-12.154 9.532-14.639C640.679 636.987 680 579.085 680 512c0-92.784-75.216-168-168-168s-168 75.216-168 168c0 66.525 38.666 124.019 94.751 151.233l1.705 0.816c5.466 2.544 9.254 8.085 9.254 14.511 0 3.856-1.364 7.393-3.635 10.155l0.004 0.004-78.731 93.828A15.983 15.983 0 0 1 355 788.366c-2.851 0-5.528-0.746-7.846-2.053l-0.01 0.01C254.18 730.336 192 628.43 192 512c0-176.731 143.269-320 320-320z m0 208c61.856 0 112 50.144 112 112s-50.144 112-112 112-112-50.144-112-112 50.144-112 112-112z" /></svg>