<?xml version="1.0" standalone="no"?><!DOCTYPE svg PUBLIC "-//W3C//DTD SVG 1.1//EN" "http://www.w3.org/Graphics/SVG/1.1/DTD/svg11.dtd"><svg class="icon" width="200px" height="200.00px" viewBox="0 0 1024 1024" version="1.1" xmlns="http://www.w3.org/2000/svg"><path d="M223.994 494.848a8 8 0 0 1 4 1.072l284.87 164.466L788 501.536a8 8 0 0 1 12 6.928L800.007 841h-0.025c-0.308 9.379-4.652 17.736-11.35 23.392l0.011 0.013-0.498 0.392c-0.287 0.23-0.576 0.457-0.87 0.678-68.548 53.462-153.054 87.418-245.174 93.53H481.9c-96.267-6.387-184.218-43.182-254.335-100.867C220.5 852.261 216 843.406 216 833.5c0-0.503 0.012-1.003 0.035-1.5h-0.042V502.848a8 8 0 0 1 8-8zM136 736h-8c-13.255 0-24-10.745-24-24v-32c0-13.255 10.745-24 24-24h8c13.255 0 24 10.745 24 24v32c0 13.255-10.745 24-24 24zM540.055 77.687l425.687 207.62c15.885 7.747 22.481 26.904 14.734 42.789a32 32 0 0 1-12.762 13.685l-422.85 244.133a64 64 0 0 1-64 0L160 400.662V600c0 13.255-10.745 24-24 24h-8c-13.255 0-24-10.745-24-24V368.331l-46.776-27.006c-15.306-8.837-20.55-28.408-11.713-43.713a32 32 0 0 1 13.685-12.761L483.944 77.687a64 64 0 0 1 56.111 0z" /></svg>