<?xml version="1.0" standalone="no"?><!DOCTYPE svg PUBLIC "-//W3C//DTD SVG 1.1//EN" "http://www.w3.org/Graphics/SVG/1.1/DTD/svg11.dtd"><svg class="icon" width="200px" height="200.00px" viewBox="0 0 1024 1024" version="1.1" xmlns="http://www.w3.org/2000/svg"><path d="M452.792 183.896l6.128 5.142c16.077 13.49 18.174 37.46 4.684 53.536L271.093 471.999 876 472c19.882 0 36 16.118 36 36v8c0 19.882-16.118 36-36 36H271.352l192.252 229.116c13.49 16.076 11.393 40.045-4.684 53.535l-6.128 5.142c-16.077 13.49-40.046 11.394-53.536-4.683L162.55 553.014c-19.963-23.791-19.965-58.48-0.004-82.272l236.713-282.16c13.486-16.08 37.454-18.18 53.533-4.691v0.005z" /></svg>