<?xml version="1.0" standalone="no"?><!DOCTYPE svg PUBLIC "-//W3C//DTD SVG 1.1//EN" "http://www.w3.org/Graphics/SVG/1.1/DTD/svg11.dtd"><svg class="icon" width="200px" height="200.00px" viewBox="0 0 1024 1024" version="1.1" xmlns="http://www.w3.org/2000/svg"><path d="M228.62 629.827l58.993 34.06a8 8 0 0 1-0.493 14.118l-13.665 6.665 238.941 137.953L750.55 685.126l-13.665-6.664a8 8 0 0 1-0.493-14.119l58.992-34.06a16 16 0 0 1 15.014-0.524l47.845 23.335c15.885 7.748 22.481 26.905 14.734 42.79a32 32 0 0 1-12.762 13.685L544.397 891.905a64 64 0 0 1-64 0L163.79 709.112c-15.305-8.837-20.55-28.408-11.713-43.713a32 32 0 0 1 13.685-12.762l47.845-23.335a16 16 0 0 1 15.014 0.525z m0.061-186.018l58.946 34.078a8 8 0 0 1-0.497 14.116l-13.675 6.67 238.941 137.953L750.55 499.13l-13.665-6.664a8 8 0 0 1-0.493-14.119l58.992-34.06a16 16 0 0 1 15.014-0.524l47.845 23.335c15.885 7.748 22.481 26.905 14.734 42.79a32 32 0 0 1-12.762 13.685L544.397 705.908a64 64 0 0 1-64 0L163.79 523.115c-15.305-8.837-20.549-28.408-11.712-43.713a32 32 0 0 1 13.685-12.761l47.896-23.361a16 16 0 0 1 15.022 0.529z m-62.919-163.166l317.715-154.96a64 64 0 0 1 56.112 0L858.242 281.1c15.885 7.748 22.481 26.905 14.734 42.79a32 32 0 0 1-12.761 13.685L544.397 519.91a64 64 0 0 1-64 0L163.79 337.118c-15.305-8.837-20.55-28.408-11.713-43.713a32 32 0 0 1 13.685-12.762z" /></svg>