<?xml version="1.0" standalone="no"?><!DOCTYPE svg PUBLIC "-//W3C//DTD SVG 1.1//EN" "http://www.w3.org/Graphics/SVG/1.1/DTD/svg11.dtd"><svg class="icon" width="200px" height="200.00px" viewBox="0 0 1024 1024" version="1.1" xmlns="http://www.w3.org/2000/svg"><path d="M338.052 476.645l-89.096 89.095c-57.797 57.798-57.797 151.506 0 209.304 57.22 57.22 149.636 57.792 207.56 1.716l90.834-90.817c13.281-13.273 34.807-13.272 48.086 0.003l5.66 5.66c13.277 13.277 13.277 34.805 0 48.082L512 828.784c-87.477 87.477-229.306 87.477-316.784 0-87.477-87.478-87.477-229.307 0-316.784l89.096-89.095c13.277-13.278 34.805-13.278 48.083 0l5.657 5.656c13.278 13.278 13.278 34.806 0 48.084z m289.914-26.87l-178.191 178.19c-13.278 13.278-34.806 13.278-48.084 0l-5.657-5.656c-13.277-13.278-13.277-34.806 0-48.084l178.191-178.19c13.278-13.278 34.806-13.278 48.084 0l5.657 5.656c13.277 13.278 13.277 34.806 0 48.084z m200.818-254.559c87.477 87.478 87.477 229.307 0 316.784l-89.096 89.095c-13.277 13.278-34.805 13.278-48.083 0l-5.657-5.656c-13.278-13.278-13.278-34.806 0-48.084l89.096-89.095c57.22-57.22 57.792-149.636 1.716-207.56l-1.716-1.744c-57.22-57.22-149.636-57.792-207.56-1.716l-90.834 90.817c-13.281 13.273-34.807 13.272-48.086-0.003l-5.66-5.66c-13.277-13.277-13.277-34.805 0-48.082L512 195.216c87.477-87.477 229.306-87.477 316.784 0z" /></svg>