<?xml version="1.0" standalone="no"?><!DOCTYPE svg PUBLIC "-//W3C//DTD SVG 1.1//EN" "http://www.w3.org/Graphics/SVG/1.1/DTD/svg11.dtd"><svg class="icon" width="200px" height="200.00px" viewBox="0 0 1024 1024" version="1.1" xmlns="http://www.w3.org/2000/svg"><path d="M848 112c35.346 0 64 28.654 64 64v672c0 35.346-28.654 64-64 64H176c-35.346 0-64-28.654-64-64V176c0-35.346 28.654-64 64-64h672zM405.09 464.487c-11.598-11.598-30.331-11.714-42.072-0.348l-0.354 0.348-47.023 47.023c-54.478 54.478-54.478 142.805 0 197.283 53.934 53.933 141.042 54.472 195.639 1.618l1.644-1.618 47.023-47.023c11.716-11.716 11.716-30.71 0-42.426-11.599-11.599-30.332-11.715-42.073-0.348l-0.354 0.348-47.022 47.022-0.937 0.922c-31.115 30.122-80.757 29.815-111.493-0.922-30.736-30.736-31.044-80.378-0.922-111.492l0.922-0.938 47.022-47.022c11.716-11.716 11.716-30.71 0-42.427z m167.585-31.82c-6.162-6.161-16.099-6.247-22.365-0.256l-0.263 0.257-117.38 117.38c-6.161 6.16-6.247 16.098-0.256 22.364l0.257 0.263 19.799 19.799c6.161 6.161 16.098 6.247 22.364 0.256l0.263-0.256 117.38-117.38c6.161-6.162 6.247-16.098 0.256-22.365l-0.256-0.262-19.8-19.8z m136.118-117.026c-53.934-53.933-141.042-54.472-195.639-1.618l-1.644 1.618-47.023 47.023c-11.715 11.716-11.715 30.71 0 42.426 11.599 11.599 30.332 11.715 42.073 0.348l0.354-0.348 47.022-47.022 0.938-0.922c30.803-29.82 79.765-29.818 110.565 0.009l0.927 0.913 0.922 0.937c29.82 30.803 29.818 79.766-0.009 110.565l-0.913 0.928-47.022 47.022c-11.716 11.716-11.716 30.711 0 42.427 11.598 11.598 30.331 11.714 42.073 0.348l0.353-0.348 47.023-47.023c54.478-54.478 54.478-142.804 0-197.283z" /></svg>