<?xml version="1.0" encoding="UTF-8"?>
<svg width="200" height="200" viewBox="0 0 1024 1024" version="1.1" xmlns="http://www.w3.org/2000/svg" xmlns:xlink="http://www.w3.org/1999/xlink">
    <title>system logo</title>
    <g id="system-logo" stroke="none" stroke-width="1" fill="none" fill-rule="evenodd">
        <path d="M512,64 C759.423568,64 960,264.576432 960,512 C960,759.423568 759.423568,960 512,960 C264.576432,960 64,759.423568 64,512 C64,264.576432 264.576432,64 512,64 Z M385.324724,441.892484 L315.924315,511.292893 C261.446176,565.771032 261.446176,654.097546 315.924315,708.575685 C369.857672,762.509042 456.965823,763.048376 511.562676,710.193686 L513.207107,708.575685 L582.607516,639.175276 L549.519868,606.087628 L480.119535,675.488113 L479.035035,676.555182 C443.028509,711.412755 385.580839,711.057066 350.011887,675.488113 C314.442934,639.919161 314.087245,582.471491 348.944818,546.464965 L350.011887,545.380465 L419.412221,475.979981 L385.324724,441.892484 Z M565.740115,425.732973 L425.732973,565.740115 L458.259885,598.267027 L598.267027,458.259885 L565.740115,425.732973 Z M709.075685,315.424315 C655.142328,261.490958 568.034177,260.951624 513.437324,313.806314 L511.792893,315.424315 L441.893267,385.323941 L475.980763,419.411438 L545.880465,349.511887 L546.964965,348.444818 C582.611426,313.935821 639.272351,313.939342 674.914524,348.455382 L675.988113,349.511887 L677.055182,350.596386 C711.564179,386.242848 711.560658,442.903773 677.044618,478.545946 L675.988113,479.619535 L606.088411,549.519086 L639.176059,582.606733 L709.075685,512.707107 C763.553824,458.228968 763.553824,369.902454 709.075685,315.424315 Z" id="形状" fill="#303133"></path>
    </g>
</svg>