<?xml version="1.0" standalone="no"?><!DOCTYPE svg PUBLIC "-//W3C//DTD SVG 1.1//EN" "http://www.w3.org/Graphics/SVG/1.1/DTD/svg11.dtd"><svg class="icon" width="200px" height="200.00px" viewBox="0 0 1024 1024" version="1.1" xmlns="http://www.w3.org/2000/svg"><path d="M548 736v224c0 17.673-14.327 32-32 32h-8c-17.673 0-32-14.327-32-32V736c0-17.673 14.327-32 32-32h8c17.673 0 32 14.327 32 32z m147.848-91.064L854.24 803.328c12.496 12.497 12.496 32.758 0 45.255l-5.657 5.657c-12.497 12.496-32.758 12.496-45.255 0L644.936 695.848c-12.497-12.497-12.497-32.758 0-45.255l5.657-5.657c12.497-12.497 32.758-12.497 45.255 0z m-322.44 0l5.656 5.657c12.497 12.497 12.497 32.758 0 45.255L220.672 854.24c-12.497 12.496-32.758 12.496-45.255 0l-5.657-5.657c-12.496-12.497-12.496-32.758 0-45.255l158.392-158.392c12.497-12.497 32.758-12.497 45.255 0zM992 508v8c0 17.673-14.327 32-32 32H736c-17.673 0-32-14.327-32-32v-8c0-17.673 14.327-32 32-32h224c17.673 0 32 14.327 32 32z m-672 0v8c0 17.673-14.327 32-32 32H64c-17.673 0-32-14.327-32-32v-8c0-17.673 14.327-32 32-32h224c17.673 0 32 14.327 32 32z m528.583-338.24l5.657 5.657c12.496 12.497 12.496 32.758 0 45.255L695.848 379.064c-12.497 12.497-32.758 12.497-45.255 0l-5.657-5.657c-12.497-12.497-12.497-32.758 0-45.255L803.328 169.76c12.497-12.496 32.758-12.496 45.255 0z m-627.911 0l158.392 158.392c12.497 12.497 12.497 32.758 0 45.255l-5.657 5.657c-12.497 12.497-32.758 12.497-45.255 0L169.76 220.672c-12.496-12.497-12.496-32.758 0-45.255l5.657-5.657c12.497-12.496 32.758-12.496 45.255 0zM548 64v224c0 17.673-14.327 32-32 32h-8c-17.673 0-32-14.327-32-32V64c0-17.673 14.327-32 32-32h8c17.673 0 32 14.327 32 32z" /></svg>