<?xml version="1.0" standalone="no"?><!DOCTYPE svg PUBLIC "-//W3C//DTD SVG 1.1//EN" "http://www.w3.org/Graphics/SVG/1.1/DTD/svg11.dtd"><svg class="icon" width="200px" height="200.00px" viewBox="0 0 1024 1024" version="1.1" xmlns="http://www.w3.org/2000/svg"><path d="M521 64c1.698 0 3.38 0.074 5.04 0.22C766.968 71.633 960 269.274 960 512c0 84.318-23.294 163.196-63.797 230.548l-0.724 1.246a57.848 57.848 0 0 1-2.036 3.27C814.536 874.849 673.213 960 512 960c-166.52 0-311.821-90.852-389.039-225.691a447.361 447.361 0 0 1-3.017-5.353l-0.423-0.75a57.911 57.911 0 0 1-1.52-2.808C83.559 661.957 64 589.263 64 512 64 267.05 260.585 68.016 504.592 64.06L512 64h9z m5.878 0.289l0.639 0.08C555.928 67.601 578 91.722 578 121c0 31.48-25.52 57-57 57-4.29 0-8.471-0.474-12.491-1.373-82.17-13.078-169.191 0.904-246.863 45.747C86.086 323.734 23.19 545.295 116.892 723.086c-11.892-26.367-2.09-57.974 23.492-72.744 27.263-15.74 62.123-6.399 77.864 20.864a57.195 57.195 0 0 1 5.067 11.54c29.764 77.684 85.378 146.042 163.039 190.88 175.52 101.336 398.784 45.075 505.932-124.879v-0.007c-16.916 23.396-49.128 30.664-74.67 15.918-27.263-15.74-36.604-50.601-20.864-77.864a57.197 57.197 0 0 1 7.44-10.137l-1.283 1.58C856.086 613.377 888 530.415 888 440c0-202.677-160.36-367.9-361.122-375.711z m372.49 671.358l0.611 0.353 0.982-1.735-0.904-0.517a56.789 56.789 0 0 1-0.69 1.899z" /></svg>