<?xml version="1.0" standalone="no"?><!DOCTYPE svg PUBLIC "-//W3C//DTD SVG 1.1//EN" "http://www.w3.org/Graphics/SVG/1.1/DTD/svg11.dtd"><svg class="icon" width="200px" height="200.00px" viewBox="0 0 1024 1024" version="1.1" xmlns="http://www.w3.org/2000/svg"><path d="M512 64c194.404 0 352 157.596 352 352 0 83.85-29.318 160.852-78.263 221.315L561.026 905.16c-22.718 27.078-63.086 30.613-90.165 7.895a64 64 0 0 1-7.892-7.891L239.75 639.143C189.913 578.407 160 500.697 160 416c0-194.404 157.596-352 352-352z m0 176c-97.202 0-176 78.798-176 176s78.798 176 176 176 176-78.798 176-176-78.798-176-176-176z m0 64c61.856 0 112 50.144 112 112s-50.144 112-112 112-112-50.144-112-112 50.144-112 112-112z" /></svg>