<?xml version="1.0" standalone="no"?><!DOCTYPE svg PUBLIC "-//W3C//DTD SVG 1.1//EN" "http://www.w3.org/Graphics/SVG/1.1/DTD/svg11.dtd"><svg class="icon" width="200px" height="200.00px" viewBox="0 0 1024 1024" version="1.1" xmlns="http://www.w3.org/2000/svg"><path d="M512 64c194.404 0 352 157.596 352 352 0 83.85-29.318 160.852-78.262 221.314L561.026 905.16c-22.718 27.079-63.086 30.614-90.165 7.896a64 64 0 0 1-7.892-7.892L239.75 639.143C189.913 578.407 160 500.697 160 416c0-194.404 157.596-352 352-352z m0 72c-154.64 0-280 125.36-280 280 0 67.143 23.633 128.766 63.034 177.005l-0.013-0.005L512 851.584 728.98 593l-0.013 0.005C768.367 544.766 792 483.143 792 416c0-154.64-125.36-280-280-280z m0 104c97.202 0 176 78.798 176 176s-78.798 176-176 176-176-78.798-176-176 78.798-176 176-176z m0 64c-61.856 0-112 50.144-112 112s50.144 112 112 112 112-50.144 112-112-50.144-112-112-112z" /></svg>