<?xml version="1.0" standalone="no"?><!DOCTYPE svg PUBLIC "-//W3C//DTD SVG 1.1//EN" "http://www.w3.org/Graphics/SVG/1.1/DTD/svg11.dtd"><svg class="icon" width="200px" height="200.00px" viewBox="0 0 1024 1024" version="1.1" xmlns="http://www.w3.org/2000/svg"><path d="M512 112c144.345 0 261.633 115.845 263.965 259.634L776 448h56c17.673 0 32 14.327 32 32v400c0 17.673-14.327 32-32 32H192c-17.673 0-32-14.327-32-32V480c0-17.673 14.327-32 32-32h56v-72c0-145.803 118.197-264 264-264z m0 510c-26.51 0-48 21.49-48 48 0 16.06 7.887 30.278 20 38.991V744c0 13.255 10.745 24 24 24h8c13.255 0 24-10.745 24.001-24v-35.01C552.113 700.278 560 686.06 560 670c0-26.51-21.49-48-48-48z m0-438c-104.978 0-190.279 84.25-191.974 188.825L320 448h384v-72c0-106.039-85.961-192-192-192z" /></svg>