<?xml version="1.0" standalone="no"?><!DOCTYPE svg PUBLIC "-//W3C//DTD SVG 1.1//EN" "http://www.w3.org/Graphics/SVG/1.1/DTD/svg11.dtd"><svg class="icon" width="200px" height="200.00px" viewBox="0 0 1024 1024" version="1.1" xmlns="http://www.w3.org/2000/svg"><path d="M512 112c144.345 0 261.633 115.845 263.965 259.634L776 448h56c17.673 0 32 14.327 32 32v400c0 17.673-14.327 32-32 32H192c-17.673 0-32-14.327-32-32V480c0-17.673 14.327-32 32-32h56v-72c0-145.803 118.197-264 264-264z m280 408H232v320h560V520zM512 622c26.51 0 48 21.49 48 48 0 16.06-7.887 30.277-19.999 38.99V744c0 13.255-10.746 24-24 24H508c-13.255 0-24-10.745-24-24v-35.009c-12.113-8.713-20-22.931-20-38.991 0-26.51 21.49-48 48-48z m0-438c-104.978 0-190.279 84.25-191.974 188.825L320 448h384v-72c0-106.039-85.961-192-192-192z" /></svg>