<?xml version="1.0" standalone="no"?><!DOCTYPE svg PUBLIC "-//W3C//DTD SVG 1.1//EN" "http://www.w3.org/Graphics/SVG/1.1/DTD/svg11.dtd"><svg class="icon" width="200px" height="200.00px" viewBox="0 0 1024 1024" version="1.1" xmlns="http://www.w3.org/2000/svg"><path d="M912 176v672c0 35.346-28.654 64-64 64H176c-35.346 0-64-28.654-64-64V176c0-35.346 28.654-64 64-64h672c35.346 0 64 28.654 64 64zM657 332c-99.964 0-181 81.036-181 181 0 12.687 1.305 25.07 3.797 37.02C464.468 594.246 422.442 626 373 626c-62.408 0-113-50.592-113-113s50.592-113 113-113c23.11 0 44.6 6.938 62.502 18.844l0.686 0.46 34.059-58.988C442.158 342.39 408.792 332 373 332c-99.964 0-181 81.036-181 181s81.036 181 181 181c57.564 0 108.852-26.872 141.998-68.754C548.15 667.129 599.437 694 657 694c99.964 0 181-81.036 181-181s-81.036-181-181-181z m0 68c62.408 0 113 50.592 113 113s-50.592 113-113 113-113-50.592-113-113 50.592-113 113-113z"  /></svg>