<?xml version="1.0" encoding="UTF-8"?>
<svg width="200" height="200" viewBox="0 0 1024 1024" version="1.1" xmlns="http://www.w3.org/2000/svg" xmlns:xlink="http://www.w3.org/1999/xlink">
    <title>CO logo-1</title>
    <g id="CO-logo-1" stroke="none" stroke-width="1" fill="none" fill-rule="evenodd">
        <rect id="矩形" fill="#004FE8" x="64" y="64" width="896" height="896" rx="448"></rect>
        <path d="M657,332 C756.96354,332 838,413.03646 838,513 C838,612.96354 756.96354,694 657,694 C599.436782,694 548.149674,667.128783 514.998205,625.24588 C481.85198,667.127917 430.564146,694 373,694 C273.03646,694 192,612.96354 192,513 C192,413.03646 273.03646,332 373,332 C408.792454,332 442.158391,342.389153 470.246748,360.316397 L436.188379,419.304709 C418.151695,407.116844 396.406961,400 373,400 C310.591823,400 260,450.591823 260,513 C260,575.408177 310.591823,626 373,626 C422.442302,626 464.468123,594.246274 479.796505,550.019779 C477.305393,538.069871 476,525.687381 476,513 C476,413.03646 557.03646,332 657,332 Z M657,400 C594.591823,400 544,450.591823 544,513 C544,575.408177 594.591823,626 657,626 C719.408177,626 770,575.408177 770,513 C770,450.591823 719.408177,400 657,400 Z" id="形状结合" fill="#FFFFFF"></path>
    </g>
</svg>