<svg t="1605176782948" class="icon" viewBox="0 0 1024 1024" version="1.1" xmlns="http://www.w3.org/2000/svg" p-id="16922" width="200" height="200"><path d="M844 66c22.091 0 40 17.909 40 40v750c0 55.228-44.772 100-100 100H170c-22.091 0-40-17.909-40-40V166c0-55.228 44.772-100 100-100h614zM435.78 577H284.22c-13.853 0-25.22 11.026-25.22 24.721v148.558c0 13.58 11.249 24.721 25.22 24.721h151.56c13.853 0 25.22-11.026 25.22-24.721V601.721C461 588.026 449.751 577 435.78 577z m295 0H579.22c-13.853 0-25.22 11.026-25.22 24.721v148.558c0 13.58 11.249 24.721 25.22 24.721h151.56c13.853 0 25.22-11.026 25.22-24.721V601.721C756 588.026 744.751 577 730.78 577z m-295-299H284.22c-13.853 0-25.22 11.026-25.22 24.721v148.558c0 13.58 11.249 24.721 25.22 24.721h151.56c13.853 0 25.22-11.026 25.22-24.721V302.721C461 289.026 449.751 278 435.78 278zM655 278c-55.769 0-101 44.335-101 99s45.231 99 101 99 101-44.335 101-99-45.231-99-101-99z" fill="#41B6C6" p-id="16923"></path></svg>
