<svg t="1605176841628" class="icon" viewBox="0 0 1024 1024" version="1.1" xmlns="http://www.w3.org/2000/svg" p-id="17778" width="200" height="200"><path d="M821 65c39.765 0 72 32.235 72 72v745c0 39.765-32.235 72-72 72H205c-39.765 0-72-32.235-72-72V137c0-39.765 32.235-72 72-72h616zM575.281 273.331c-21.125-5.66-42.833 6.694-48.813 27.647l-0.177 0.637L420.434 696.68c-5.717 21.339 6.946 43.272 28.285 48.99 21.125 5.66 42.833-6.694 48.813-27.647l0.177-0.637L603.566 322.32c5.717-21.339-6.946-43.272-28.285-48.99z m-180.348 98.313c-16.804-17.504-46.949-16.331-63.333 0.85l-0.493 0.525-100.932 106.616c-16.303 17.534-16.301 45.055 0.005 62.587l0.5 0.529 102.5 106.134 0.465 0.446c15.516 14.576 45.397 14.524 59.65-0.446 19.814-19.346 17.032-45.441 0.505-63.116l-0.506-0.533-72.795-74.31 70.724-74.258 0.533-0.578c17.435-19.169 19.98-46.943 3.177-64.446z m299.097 1.375c-16.266-17.68-46.851-19.056-63.825-1.375-16.804 17.503-14.258 45.277 3.177 64.446l0.533 0.578 70.724 74.258-72.796 74.31c-16.974 17.68-20.015 44.107 0 63.65 14.253 14.969 44.133 15.021 59.65 0.445l0.466-0.446 102.5-106.134c16.803-17.504 16.971-45.405 0.503-63.116L694.03 373.019z" fill="#FA9A4B" p-id="17779"></path></svg>
