<?xml version="1.0" standalone="no"?><!DOCTYPE svg PUBLIC "-//W3C//DTD SVG 1.1//EN" "http://www.w3.org/Graphics/SVG/1.1/DTD/svg11.dtd"><svg class="icon" width="200px" height="200.00px" viewBox="0 0 1024 1024" version="1.1" xmlns="http://www.w3.org/2000/svg"><path d="M912 384.373v307.625a64 64 0 0 1-32 55.425L588 916.01c-15.306 8.837-34.877 3.593-43.713-11.713a32 32 0 0 1-4.288-16V580.672a64 64 0 0 1 32-55.425L864 356.66c15.306-8.837 34.877-3.593 43.713 11.713a32 32 0 0 1 4.287 16z m-752-28.711l292 168.587a64 64 0 0 1 32 55.425v307.624c0 17.673-14.327 32-32 32a32 32 0 0 1-16-4.287L144 746.424A64 64 0 0 1 112 691V383.375c0-17.673 14.326-32 32-32a32 32 0 0 1 16 4.287zM540.054 77.686l317.922 155.06c15.884 7.747 22.48 26.904 14.733 42.789a32 32 0 0 1-12.731 13.668L544.882 471.574a64 64 0 0 1-64.06 0.035l-316.3-182.617c-15.305-8.837-20.55-28.408-11.712-43.713a32 32 0 0 1 13.684-12.762l317.45-154.831a64 64 0 0 1 56.111 0z" /></svg>