<svg t="1585880607365" class="icon" viewBox="0 0 1024 1024" version="1.1" xmlns="http://www.w3.org/2000/svg" p-id="4250" width="200" height="200"><path d="M604.005 97c35.346 0 64 28.654 64 64v184c0 35.346-28.654 64-64 64h-60v82h196c32.981 0 60.135 24.948 63.622 57h0.378v67h60c35.347 0 64 28.655 64 64v184c0 35.347-28.653 64-64 64h-184c-35.346 0-64-28.653-64-64V679c0-35.345 28.654-64 64-64h60v-60H284v60h60c35.346 0 64 28.655 64 64v184c0 35.347-28.654 64-64 64H160c-35.346 0-64-28.653-64-64V679c0-35.345 28.654-64 64-64h60v-68h0.495c3.937-31.57 30.868-56 63.505-56h196.005v-82h-60c-35.347 0-64-28.654-64-64V161c0-35.346 28.653-64 64-64h184z" p-id="4251"></path></svg>