<?xml version="1.0" encoding="UTF-8"?>
<svg width="64px" height="41px" viewBox="0 0 64 41" version="1.1" xmlns="http://www.w3.org/2000/svg" xmlns:xlink="http://www.w3.org/1999/xlink">
    <title>Oval</title>
    <g id="组件分类" stroke="none" stroke-width="1" fill="none" fill-rule="evenodd">
        <g id="DataDisplay数据展示" transform="translate(-689.000000, -3489.000000)">
            <g id="表格-跨表头备份-2" transform="translate(122.000000, 3433.000000)">
                <g id="内容" transform="translate(0.000000, 33.000000)">
                    <g id="编组" transform="translate(567.000000, 24.000000)">
                        <path d="M32,40 C49.673112,40 64,36.8659932 64,33 C64,29.1340068 49.673112,26 32,26 C20.9097284,26 11.1371469,27.2341224 5.39566971,29.1088079 C1.98770739,30.2215629 0,31.5600037 0,33 C0,36.8659932 14.326888,40 32,40 Z" id="Oval" fill="#F5F5F5"></path>
                        <path d="M55,12.7605604 L44.8543047,1.25739633 C44.3674414,0.473826605 43.6558789,-1.42108547e-14 42.9067617,-1.42108547e-14 L21.0932383,-1.42108547e-14 C20.3441211,-1.42108547e-14 19.6325586,0.473950255 19.1456953,1.25739633 L9,12.7605604 L9,22 L55,22 L55,12.7605604 Z" id="Shape" stroke="#D9D9D9" fill-rule="nonzero"></path>
                        <path d="M20.1603008,13 C21.3930469,13 22.3867188,14.3228085 22.3867188,15.9284574 L22.3867188,15.9284574 L22.3867188,15.9496383 C22.3867188,17.5552872 23.3917109,18.8511809 24.624457,18.8511809 L24.624457,18.8511809 L39.375543,18.8511809 C40.6082891,18.8511809 41.6132813,17.5433511 41.6132813,15.9377021 L41.6132813,15.9377021 C41.6132813,14.3258511 42.6069531,13.000234 43.8396992,13 L43.8396992,13 L55,13 L55,31.1371277 C55,33.2589574 53.6793867,35 52.0504297,35 L52.0504297,35 L11.9495703,35 C10.3205234,35 9,33.2588404 9,31.1371277 L9,31.1371277 L9,13 Z" id="Combined-Shape" stroke="#D9D9D9" fill="#FAFAFA" fill-rule="nonzero"></path>
                    </g>
                </g>
            </g>
        </g>
    </g>
</svg>