<?xml version="1.0" standalone="no"?><!DOCTYPE svg PUBLIC "-//W3C//DTD SVG 1.1//EN" "http://www.w3.org/Graphics/SVG/1.1/DTD/svg11.dtd"><svg class="icon" width="200px" height="200.00px" viewBox="0 0 1024 1024" version="1.1" xmlns="http://www.w3.org/2000/svg"><path d="M548 740h76v-52c0-35.346 28.654-64 64-64h176c35.346 0 64 28.654 64 64v192c0 35.346-28.654 64-64 64H688c-35.346 0-64-28.654-64-64v-68h-84c-35.346 0-64-28.654-64-64V548h-76v60c0 35.346-28.654 64-64 64H160c-35.346 0-64-28.654-64-64V416c0-35.346 28.654-64 64-64h176c35.346 0 64 28.654 64 64v60h76V276c0-35.346 28.654-64 64-64h84v-52c0-35.346 28.654-64 64-64h176c35.346 0 64 28.654 64 64v192c0 35.346-28.654 64-64 64H688c-35.346 0-64-28.654-64-64v-68h-76v456z" /></svg>