<?xml version="1.0" standalone="no"?><!DOCTYPE svg PUBLIC "-//W3C//DTD SVG 1.1//EN" "http://www.w3.org/Graphics/SVG/1.1/DTD/svg11.dtd"><svg t="1597630066347" class="icon" viewBox="0 0 1210 1024" version="1.1" xmlns="http://www.w3.org/2000/svg" p-id="895" xmlns:xlink="http://www.w3.org/1999/xlink" width="236.328125" height="200"><defs><style type="text/css"></style></defs><path d="M807.480785 614.772364c180.968727 0 340.992 136.192 374.039273 321.722181 1.489455 8.098909 2.699636 16.197818 3.630546 24.389819a36.212364 36.212364 0 0 1-30.068364 40.680727c-6.050909 0.837818-76.334545 1.396364-170.077091 1.582545 7.540364-18.618182 10.612364-39.563636 7.912727-61.160727a527.266909 527.266909 0 0 0-171.752727-326.935273l-13.684364-0.279272z m-351.883636-59.764364c219.136 0 412.672 156.299636 452.794182 369.012364 1.768727 9.309091 3.165091 18.618182 4.375273 27.927272a41.890909 41.890909 0 0 1-36.491637 46.824728c-22.993455 2.792727-816.034909 2.606545-839.028363 0a41.890909 41.890909 0 0 1-36.957091-46.359273c0.651636-6.050909 1.489455-11.170909 2.606545-16.942546 0.279273-1.117091 2.048-9.681455 2.513455-12.474181 40.494545-212.247273 231.610182-367.988364 450.280727-367.988364z m352.162909-429.242182c115.246545 0 208.616727 98.583273 208.616727 220.16 0 121.669818-93.370182 220.253091-208.616727 220.253091-24.389818 0-47.755636-4.468364-69.538909-12.567273-15.825455-9.774545-32.302545-18.618182-49.152-26.624a192.232727 192.232727 0 0 1-20.945454-17.408 332.148364 332.148364 0 0 0 121.204363-256.930909c0-43.380364-8.285091-84.712727-23.272727-122.600727 13.405091-2.792727 27.368727-4.282182 41.704727-4.282182zM455.876422 0a252.555636 252.555636 0 1 1 0 505.111273 252.555636 252.555636 0 0 1 0-505.111273z" p-id="896"></path></svg>