<?xml version="1.0" standalone="no"?><!DOCTYPE svg PUBLIC "-//W3C//DTD SVG 1.1//EN" "http://www.w3.org/Graphics/SVG/1.1/DTD/svg11.dtd"><svg class="icon" width="200px" height="200.00px" viewBox="0 0 1024 1024" version="1.1" xmlns="http://www.w3.org/2000/svg"><path d="M960 512c0 247.424-200.576 448-448 448S64 759.424 64 512 264.576 64 512 64s448 200.576 448 448z m-271.997-27.712L448.001 345.715c-15.306-8.837-34.877-3.594-43.713 11.711A32 32 0 0 0 400 373.427v277.146c0 17.673 14.327 32 32 32a32 32 0 0 0 16-4.288l240.003-138.573c15.305-8.836 20.549-28.407 11.712-43.713a32 32 0 0 0-11.712-11.711z" /></svg>