<?xml version="1.0" standalone="no"?><!DOCTYPE svg PUBLIC "-//W3C//DTD SVG 1.1//EN" "http://www.w3.org/Graphics/SVG/1.1/DTD/svg11.dtd"><svg class="icon" width="200px" height="200.00px" viewBox="0 0 1024 1024" version="1.1" xmlns="http://www.w3.org/2000/svg"><path d="M112 112m64 0l672 0q64 0 64 64l0 672q0 64-64 64l-672 0q-64 0-64-64l0-672q0-64 64-64Z" fill="#020E1E" /><path d="M566 456l50-50H316v-87.5c0-6.904 5.596-12.5 12.5-12.5H591c69.036 0 125 55.964 125 125s-55.964 125-125 125H416v187.5c0 6.904-5.596 12.5-12.5 12.5h-75c-6.904 0-12.5-5.596-12.5-12.5V531l250-75z" fill="#FFFFFF" /><path d="M616 406L416 631c0-55.228-44.772-100-100-100l300-125z" fill="#CF012E" /></svg>