<svg t="1585222755431" class="icon" viewBox="0 0 1024 1024" version="1.1" xmlns="http://www.w3.org/2000/svg" p-id="9650" width="200" height="200"><path d="M512 64c247.424 0 448 200.576 448 448S759.424 960 512 960 64 759.424 64 512 264.576 64 512 64z m0 72c-207.66 0-376 168.34-376 376s168.34 376 376 376 376-168.34 376-376-168.34-376-376-376z m0 119.928c19.683 0 35.677 15.797 35.995 35.405l0.005 0.595V476h184c19.882 0 36 16.118 36 36s-16.118 36-36 36H548v184.005c0 19.683-15.797 35.677-35.405 36H512c-19.683 0-35.677-15.797-35.995-35.405l-0.005-0.595V548H292c-19.882 0-36-16.118-36-36s16.118-36 36-36h184V291.928c0-19.882 16.118-36 36-36z" p-id="9651"></path></svg>