<?xml version="1.0" standalone="no"?><!DOCTYPE svg PUBLIC "-//W3C//DTD SVG 1.1//EN" "http://www.w3.org/Graphics/SVG/1.1/DTD/svg11.dtd"><svg class="icon" width="200px" height="200.00px" viewBox="0 0 1024 1024" version="1.1" xmlns="http://www.w3.org/2000/svg"><path d="M552 148v324h324c19.882 0 36 16.118 36 36v8c0 19.882-16.118 36-36 36H552v324c0 19.882-16.118 36-36 36h-8c-19.882 0-36-16.118-36-36V552H148c-19.882 0-36-16.118-36-36v-8c0-19.882 16.118-36 36-36h324V148c0-19.882 16.118-36 36-36h8c19.882 0 36 16.118 36 36z" /></svg>