<?xml version="1.0" standalone="no"?><!DOCTYPE svg PUBLIC "-//W3C//DTD SVG 1.1//EN" "http://www.w3.org/Graphics/SVG/1.1/DTD/svg11.dtd"><svg class="icon" width="200px" height="200.00px" viewBox="0 0 1024 1024" version="1.1" xmlns="http://www.w3.org/2000/svg"><path d="M512 64c247.424 0 448 200.576 448 448S759.424 960 512 960 64 759.424 64 512 264.576 64 512 64z m4 223h-8c-15.464 0-28 12.536-28 28v165H315c-15.464 0-28 12.536-28 28v8c0 15.464 12.536 28 28 28h165v165c0 15.464 12.536 28 28 28h8c15.464 0 28-12.536 28-28V544h165c15.464 0 28-12.536 28-28v-8c0-15.464-12.536-28-28-28H544V315c0-15.464-12.536-28-28-28z" /></svg>