<?xml version="1.0" standalone="no"?><!DOCTYPE svg PUBLIC "-//W3C//DTD SVG 1.1//EN" "http://www.w3.org/Graphics/SVG/1.1/DTD/svg11.dtd"><svg class="icon" width="200px" height="200.00px" viewBox="0 0 1024 1024" version="1.1" xmlns="http://www.w3.org/2000/svg"><path d="M653.5 104.5c1.932 0 3.77 0.406 5.432 1.137C825.188 165.756 944 325.003 944 512c0 238.587-193.413 432-432 432S80 750.587 80 512c0-186.991 118.805-346.234 285.05-406.363a13.6 13.6 0 0 1 5.45-1.137c7.456 0 13.5 6.044 13.5 13.5l-0.004 0.34v47.6l0.004 0.31-0.004 0.434c-0.165 5.106-3.16 9.496-7.47 11.65l0.013 0.027-0.484 0.197-0.322 0.14 3.3-1.346C246.025 230.247 152 360.143 152 512c0 198.823 161.177 360 360 360s360-161.177 360-360c0-150.05-91.8-278.659-222.302-332.727l0.017-0.06c-5.271-1.537-9.21-6.203-9.67-11.852l-0.041-0.001v-0.8l-0.004-0.31 0.004-0.342 0.001-47.536A13.757 13.757 0 0 1 640 118c0-7.456 6.044-13.5 13.5-13.5zM516 512h-8c-17.673 0-32-14.327-32-32V96c0-17.673 14.327-32 32-32h8c17.673 0 32 14.327 32 32v384c0 17.673-14.327 32-32 32zM795.5 42.5h100v191h-100z" /></svg>