<svg t="1610506311663" class="icon" viewBox="0 0 1097 1024" version="1.1" xmlns="http://www.w3.org/2000/svg" p-id="6449" width="100" height="100"><path d="M574.342095 0h70.339048v107.178667c132.632381 0.731429 265.362286-1.340952 397.970286 0a45.104762 45.104762 0 0 1 36.083809 11.971047c9.411048 9.020952 13.799619 21.650286 11.922286 34.133334 2.194286 222.403048 0 444.952381 1.29219 667.452952-1.29219 24.088381 2.438095 50.712381-11.946666 72.265143-18.090667 12.01981-41.593905 10.947048-62.902858 12.019809-124.001524-0.585143-248.027429 0-372.297142 0v118.491429h-77.019429C378.587429 990.890667 189.220571 960.658286 0 928.743619V95.50019C191.390476 63.707429 382.805333 31.305143 574.342095 0z" fill="#E6E7EB" p-id="6450"></path><path d="M644.681143 142.921143h409.258667V869.180952H644.681143v-95.256381h297.691428v-47.542857h-297.691428v-60.220952h297.691428v-46.957714H644.85181v-69.973334c49.152 14.57981 105.130667 14.214095 149.040761-14.09219 47.494095-27.087238 72.265143-78.628571 76.361143-130.048h-163.279238c0-51.760762 0.633905-103.545905-1.024-155.209143-20.406857 3.730286-40.71619 7.826286-60.976762 12.04419l-0.243809-118.979047z" fill="#FFFFFF" p-id="6451"></path><path d="M731.721143 224.694857c88.673524 6.192762 158.622476 73.240381 163.303619 156.525714-54.442667 0.609524-108.860952 0-163.425524 0 0.121905-52.370286 0.121905-104.277333 0.121905-156.525714z" fill="#E6E7EB" p-id="6452"></path><path d="M198.972952 314.514286c67.388952 3.145143 148.918857-25.526857 205.409524 22.893714 53.394286 62.366476 39.253333 176.88381-39.936 214.064762-28.111238 13.872762-60.464762 12.068571-91.014095 10.971428v139.702858l-73.801143-5.924572A14012.318476 14012.318476 0 0 1 198.948571 314.514286z" fill="#FFFFFF" p-id="6453"></path><path d="M272.65219 378.953143c24.380952-0.975238 54.710857-5.315048 71.119239 16.725333 13.55581 24.380952 14.189714 53.296762 1.682285 78.140953-14.140952 24.088381-46.08 22.040381-70.875428 24.941714-2.56-39.862857-2.29181-79.725714-1.926096-119.808z" fill="#E6E7EB" p-id="6454"></path></svg>
