<svg t="1593415353755" class="icon" viewBox="0 0 1024 1024" version="1.1" xmlns="http://www.w3.org/2000/svg" p-id="4639" width="200" height="200"><path d="M1023.926862 789.337904a234.625527 234.625527 0 1 1-469.324191 0V618.707807a63.995429 63.995429 0 0 1 64.068567-64.068567h170.630098A234.625527 234.625527 0 0 1 1023.926862 789.337904z m-85.351617 0a149.420184 149.420184 0 0 0-149.273909-149.347046H639.954289v149.347046c0 82.279837 66.847797 149.273909 149.347047 149.273909a149.420184 149.420184 0 0 0 149.273909-149.273909zM0 789.337904a234.625527 234.625527 0 0 1 234.625527-234.698664h170.630098a63.995429 63.995429 0 0 1 64.068566 64.068567v170.630097a234.625527 234.625527 0 1 1-469.324191 0z m85.351618 0c0 82.426112 66.994072 149.273909 149.273909 149.273909a149.420184 149.420184 0 0 0 149.347046-149.273909V639.990858H234.625527a149.420184 149.420184 0 0 0-149.273909 149.347046zM1023.926862 234.662096a234.625527 234.625527 0 0 1-234.625526 234.698664H618.671238a63.995429 63.995429 0 0 1-64.068567-64.068567V234.662096a234.625527 234.625527 0 1 1 469.324191 0z m-85.351617 0a149.420184 149.420184 0 0 0-149.273909-149.273909A149.420184 149.420184 0 0 0 639.954289 234.662096V384.009142h149.347047a149.420184 149.420184 0 0 0 149.273909-149.347046zM0 234.662096a234.625527 234.625527 0 1 1 469.324191 0v170.630097a63.995429 63.995429 0 0 1-64.068566 64.068567H234.625527A234.625527 234.625527 0 0 1 0 234.662096z m85.351618 0c0 82.352975 66.847797 149.347047 149.273909 149.347046H383.972573V234.662096a149.420184 149.420184 0 0 0-149.347046-149.273909 149.420184 149.420184 0 0 0-149.273909 149.273909z" fill="#999999" p-id="4640"></path></svg>
