<?xml version="1.0" standalone="no"?><!DOCTYPE svg PUBLIC "-//W3C//DTD SVG 1.1//EN" "http://www.w3.org/Graphics/SVG/1.1/DTD/svg11.dtd"><svg class="icon" width="200px" height="200.00px" viewBox="0 0 1024 1024" version="1.1" xmlns="http://www.w3.org/2000/svg"><path d="M704 112c17.673 0 32 14.327 32 32v143.999h112c48.6 0.001 88 39.4 88 88.001v328c0 17.496-14.042 31.713-31.47 31.996L904 736l-168-0.001V880c0 17.673-14.327 32-32 32H320c-17.673 0-32-14.327-32-32V735.999H120c-17.496 0.001-31.713-14.04-32-31.47V376c0-48.6 39.4-88 88-88l112-0.001V144c0-17.673 14.327-32 32-32h384zM252 388h-8c-15.464 0-28 12.536-28 28v8c0 15.464 12.536 28 28 28h8c15.464 0 28-12.536 28-28v-8c0-15.464-12.536-28-28-28z m120 0h-8c-15.464 0-28 12.536-28 28v8c0 15.464 12.536 28 28 28h8c15.464 0 28-12.536 28-28v-8c0-15.464-12.536-28-28-28z m292 164H360v288h304V552z m0-368H360v104h304V184z" /></svg>