<?xml version="1.0" standalone="no"?><!DOCTYPE svg PUBLIC "-//W3C//DTD SVG 1.1//EN" "http://www.w3.org/Graphics/SVG/1.1/DTD/svg11.dtd"><svg t="1587990024903" class="icon" viewBox="0 0 1024 1024" version="1.1" xmlns="http://www.w3.org/2000/svg" p-id="5985" xmlns:xlink="http://www.w3.org/1999/xlink" width="200" height="200"><defs><style type="text/css"></style></defs><path d="M504.64 406.746c-20.579 0-40.178-3.007-54.877-9.021L144.018 283.449c-25.48-9.021-28.419-23.055-28.419-31.075 0-7.017 3.92-21.05 28.419-31.074l304.765-115.278c14.7-6.015 34.298-9.022 54.877-9.022 20.58 0 40.178 3.007 54.878 9.022L864.283 221.3c25.479 9.021 28.419 23.055 28.419 31.074 0 7.017-3.92 21.051-28.419 31.075L559.518 398.727c-14.7 5.012-34.299 8.02-54.878 8.02zM438.983 927c-6.86 0-14.699-1.002-21.558-4.01L150.877 818.74C119.52 806.71 96 769.62 96 732.53V384.693c0-31.075 16.66-51.123 42.138-51.123 6.86 0 13.72 1.002 20.579 4.01l270.467 104.25c32.338 12.03 58.797 50.122 58.797 86.209v347.838c-0.98 30.072-21.559 51.123-48.998 51.123z m137.194-6.014h0.98c-25.479 0-41.158-15.037-41.158-45.11V528.04c0-37.09 22.539-74.18 53.897-86.208L856.443 337.58c6.86-3.008 14.7-4.01 22.54-4.01 27.438 0 48.017 21.05 48.017 51.123v347.838c0 36.087-27.439 74.18-59.777 86.208L596.756 919.983c-5.88 3.007-13.72 1.003-20.58 1.003z" p-id="5986"></path></svg>