<?xml version="1.0" standalone="no"?><!DOCTYPE svg PUBLIC "-//W3C//DTD SVG 1.1//EN" "http://www.w3.org/Graphics/SVG/1.1/DTD/svg11.dtd"><svg class="icon" width="200px" height="200.00px" viewBox="0 0 1024 1024" version="1.1" xmlns="http://www.w3.org/2000/svg"><path d="M880 656c17.673 0 32 14.327 32 32v160c0 17.673-14.327 32-32 32H144c-17.673 0-32-14.327-32-32V688c0-17.673 14.327-32 32-32h736z m-148 80H228c-15.464 0-28 12.536-28 28v8c0 15.464 12.536 28 28 28h504c15.464 0 28-12.536 28-28v-8c0-15.464-12.536-28-28-28z m148-336c17.673 0 32 14.327 32 32v160c0 17.673-14.327 32-32 32H144c-17.673 0-32-14.327-32-32V432c0-17.673 14.327-32 32-32h736z m-452 80H228c-15.464 0-28 12.536-28 28v8c0 15.464 12.536 28 28 28h200c15.464 0 28-12.536 28-28v-8c0-15.464-12.536-28-28-28z m452-336c17.673 0 32 14.327 32 32v160c0 17.673-14.327 32-32 32H144c-17.673 0-32-14.327-32-32V176c0-17.673 14.327-32 32-32h736z m-260 80H228c-15.464 0-28 12.536-28 28v8c0 15.464 12.536 28 28 28h392c15.464 0 28-12.536 28-28v-8c0-15.464-12.536-28-28-28z" /></svg>