<?xml version="1.0" standalone="no"?><!DOCTYPE svg PUBLIC "-//W3C//DTD SVG 1.1//EN" "http://www.w3.org/Graphics/SVG/1.1/DTD/svg11.dtd"><svg class="icon" width="200px" height="200.00px" viewBox="0 0 1024 1024" version="1.1" xmlns="http://www.w3.org/2000/svg"><path d="M512 64c247.424 0 448 200.576 448 448S759.424 960 512 960 64 759.424 64 512 264.576 64 512 64z m0 72c-207.66 0-376 168.34-376 376s168.34 376 376 376 376-168.34 376-376-168.34-376-376-376z m0 520c26.51 0 48 21.49 48 48s-21.49 48-48 48-48-21.49-48-48 21.49-48 48-48z m-32-60.4v-4h0.006l0.003-0.448c0.61-47.708 31.317-88.16 74.006-103.241v0.039l0.943-0.387C586.41 474.426 608 447.314 608 416c0-44.183-42.98-80-96-80-52.33 0-94.881 34.893-95.978 78.282l-0.004 5.718c-0.026 15.457-12.56 27.983-28.017 28H380c-15.464 0-28-12.536-28-28v-4c0-79.529 71.634-144 160-144s160 64.471 160 144c0 60.01-40.787 111.447-98.772 133.08C556.08 556.086 544 572.932 544 592.6v3c0 15.464-12.536 28-28 28h-7.999c-15.463-0.001-28-12.536-28-28z" /></svg>