<?xml version="1.0" standalone="no"?><!DOCTYPE svg PUBLIC "-//W3C//DTD SVG 1.1//EN" "http://www.w3.org/Graphics/SVG/1.1/DTD/svg11.dtd"><svg class="icon" width="200px" height="200.00px" viewBox="0 0 1024 1024" version="1.1" xmlns="http://www.w3.org/2000/svg"><path d="M512 64c247.424 0 448 200.576 448 448S759.424 960 512 960 64 759.424 64 512 264.576 64 512 64z m0 592c-26.51 0-48 21.49-48 48s21.49 48 48 48 48-21.49 48-48-21.49-48-48-48z m0-384c-88.366 0-160 64.471-160 144v4c0 15.464 12.536 28 28 28h8.001c15.457-0.017 27.99-12.543 28.017-28l0.004-5.718C417.119 370.892 459.67 336 512 336c53.02 0 96 35.817 96 80 0 31.314-21.59 58.426-53.042 71.563l-0.943 0.387v-0.04c-42.689 15.082-73.396 55.534-74.006 103.242l-0.003 0.448H480v4c0.002 15.464 12.538 27.999 28.001 28H516c15.464 0 28-12.536 28-28v-3c0-19.668 12.08-36.514 29.228-43.52C631.213 527.447 672 476.01 672 416c0-79.529-71.634-144-160-144z" /></svg>