<?xml version="1.0" standalone="no"?><!DOCTYPE svg PUBLIC "-//W3C//DTD SVG 1.1//EN" "http://www.w3.org/Graphics/SVG/1.1/DTD/svg11.dtd"><svg class="icon" width="200px" height="200.00px" viewBox="0 0 1024 1024" version="1.1" xmlns="http://www.w3.org/2000/svg"><path d="M511.3 81.047c160.047 0 299.766 87.034 374.41 216.354l36.27-99.653c5.667-15.57 22.883-23.597 38.452-17.93l7.518 2.736c15.569 5.667 23.596 22.882 17.93 38.452l-62.64 172.103c-5.312 14.593-20.334 23.266-35.628 20.57l-180.365-31.804c-16.317-2.878-27.212-18.437-24.335-34.754l1.39-7.879c2.877-16.316 18.436-27.211 34.753-24.335l104.219 18.374C761.06 225.547 644.647 153.047 511.3 153.047c-198.822 0-360 161.177-360 360 0 198.822 161.178 360 360 360 127.869 0 240.167-66.666 304.033-167.136 0.228-0.34 0.505-0.774 0.83-1.298 9.117-14.666 28.224-19.454 43.178-10.82l7.083 4.089c15.255 8.808 20.482 28.314 11.674 43.57a31.895 31.895 0 0 1-1.77 2.733C799.722 864.917 664.868 945.047 511.3 945.047c-238.587 0-432-193.413-432-432s193.413-432 432-432z" /></svg>