<svg t="1585882326479" class="icon" viewBox="0 0 1024 1024" version="1.1" xmlns="http://www.w3.org/2000/svg" p-id="4607" width="200" height="200"><path d="M313.913 598.295l5.924 4.674a0.464 0.464 0 0 1 0.073 0.627h0.011a0.754 0.754 0 0 1-0.5 0.253 0.29 0.29 0 0 0-0.27 0.285l-0.073 5.565a1.581 1.581 0 0 1-1.581 1.412h-8.959a1.581 1.581 0 0 1-1.58-1.412l-0.075-5.565a0.295 0.295 0 0 0-0.268-0.285 0.78 0.78 0 0 1-0.527-0.253 0.464 0.464 0 0 1 0.079-0.627l5.907-4.674a1.581 1.581 0 0 1 1.84 0z m-0.896 7.604c-1 0-1.444 0.585-1.444 1.128v1.945a0.611 0.611 0 0 0 0.612 0.616h1.665c0.34 0 0.617-0.276 0.617-0.616v-1.945c-0.016-0.543-0.464-1.128-1.45-1.128z" fill="#FFFFFF" p-id="4608"></path><path d="M487 114v423h423c0 233.616-189.384 423-423 423S64 770.616 64 537s189.384-423 423-423z m50-50c233.616 0 423 189.384 423 423H537z m72 79.392V415h271.608C852.24 278.924 745.076 171.76 609 143.392z" p-id="4609"></path></svg>