<svg t="1587463160673" class="icon" viewBox="0 0 1024 1024" version="1.1" xmlns="http://www.w3.org/2000/svg" p-id="4221" width="200" height="200"><path d="M194.308 55.002l495.067 4.761a32 32 0 0 1 21.837 8.899l167.933 160.987a32 32 0 0 1 9.855 23.1v678.942c0 17.673-14.327 32-32 32H194c-17.673 0-32-14.327-32-32V87c0-17.674 14.327-32 32-32h0.308zM444 146.69H244V717.3a16 16 0 0 0 2.562 8.684c4.796 7.422 14.7 9.55 22.122 4.754l66.632-43.06a16 16 0 0 1 17.368 0l66.632 43.06a16 16 0 0 0 8.684 2.562c8.837 0 16-7.163 16-16v-570.61zM686.66 83.9a8 8 0 0 0-8.001 8l-0.005 165.258 0.003 0.25a8 8 0 0 0 7.997 7.75l181.374-0.006a8 8 0 0 0 5.388-13.913l-70.27-64.026-111.1-101.227a8 8 0 0 0-5.387-2.087z" p-id="4222"></path></svg>