<?xml version="1.0" standalone="no"?><!DOCTYPE svg PUBLIC "-//W3C//DTD SVG 1.1//EN" "http://www.w3.org/Graphics/SVG/1.1/DTD/svg11.dtd"><svg class="icon" width="200px" height="200.00px" viewBox="0 0 1024 1024" version="1.1" xmlns="http://www.w3.org/2000/svg"><path d="M313.277 124.621l6.128 5.142c14.385 12.07 16.26 33.516 4.19 47.9l-57.91 69.015 315.138 0.002c166.79 0 302 135.21 302 302 0 165.122-132.52 299.293-297.006 301.96l-318.994 0.036c-19.882 0.006-36.002-16.11-36.004-35.992 0-0.001 0-0.002 0.004-0.004v-8c0-19.882 16.118-36 36-36h314c122.607 0 222-99.393 222-222s-99.393-222-222-222l-315.095-0.002 57.732 68.802c12.07 14.385 10.194 35.83-4.19 47.9l-6.13 5.143c-14.384 12.07-35.83 10.194-47.9-4.19l-97.873-116.636c-19.975-23.805-19.963-58.52 0.028-82.311l97.964-116.589c12.091-14.355 33.525-16.222 47.918-4.176z" /></svg>