<?xml version="1.0" standalone="no"?><!DOCTYPE svg PUBLIC "-//W3C//DTD SVG 1.1//EN" "http://www.w3.org/Graphics/SVG/1.1/DTD/svg11.dtd"><svg class="icon" width="200px" height="200.00px" viewBox="0 0 1024 1024" version="1.1" xmlns="http://www.w3.org/2000/svg"><path d="M624.774 188.742L861.48 470.837c19.963 23.791 19.965 58.48 0.004 82.272L624.771 835.27c-13.486 16.081-37.454 18.18-53.532 4.692-0.001 0-0.002-0.001-0.001-0.005l-6.128-5.142c-16.077-13.49-18.174-37.46-4.684-53.536L752.812 552H148c-19.882 0-36-16.118-36-36v-8c0-19.882 16.118-36 36-36h604.8L560.426 242.737c-13.49-16.077-11.393-40.046 4.684-53.536l6.128-5.142c16.077-13.49 40.046-11.393 53.536 4.683z" /></svg>