<?xml version="1.0" standalone="no"?><!DOCTYPE svg PUBLIC "-//W3C//DTD SVG 1.1//EN" "http://www.w3.org/Graphics/SVG/1.1/DTD/svg11.dtd"><svg class="icon" width="200px" height="200.00px" viewBox="0 0 1024 1024" version="1.1" xmlns="http://www.w3.org/2000/svg"><path d="M533.89 67.86l303.999 110.65c25.282 9.202 42.11 33.235 42.11 60.14v392.54a64 64 0 0 1-22.862 49.028L532.57 952.562c-11.896 9.982-29.242 9.982-41.139 0L166.862 680.217A64 64 0 0 1 144 631.19V238.652c0-26.906 16.828-50.938 42.11-60.14l304-110.651a64 64 0 0 1 43.78 0z m141.192 243.566c-11.847-9.94-29.508-8.394-39.448 3.452L476.395 504.65l-74.389-88.652c-9.94-11.846-27.601-13.392-39.447-3.452l-6.128 5.142-0.353 0.3c-11.523 9.993-12.94 27.42-3.098 39.148l98.904 117.867a32 32 0 0 0 3.944 3.944c13.539 11.36 33.723 9.594 45.083-3.944l183.75-218.987c9.94-11.846 8.395-29.507-3.45-39.447z" /></svg>