<?xml version="1.0" standalone="no"?><!DOCTYPE svg PUBLIC "-//W3C//DTD SVG 1.1//EN" "http://www.w3.org/Graphics/SVG/1.1/DTD/svg11.dtd"><svg class="icon" width="200px" height="200.00px" viewBox="0 0 1024 1024" version="1.1" xmlns="http://www.w3.org/2000/svg"><path d="M533.89 67.86l303.999 110.65c25.282 9.202 42.11 33.235 42.11 60.14v392.54a64 64 0 0 1-22.862 49.028L532.57 952.562c-11.896 9.982-29.242 9.982-41.139 0L166.862 680.217A64 64 0 0 1 144 631.19V238.652c0-26.906 16.828-50.938 42.11-60.14l304-110.651a64 64 0 0 1 43.78 0z m-21.889 72.917L216 248.51v373.727l296 248.374 296-248.373V248.51L512.001 140.777z m172.66 215.24l-183.75 218.986c-11.36 13.538-31.544 15.304-45.083 3.944a32 32 0 0 1-3.944-3.944L352.98 457.136c-9.94-11.846-8.396-29.507 3.45-39.448l6.129-5.142c11.846-9.94 29.507-8.394 39.447 3.452l74.39 88.652 159.238-189.772c9.94-11.846 27.601-13.392 39.448-3.452l6.128 5.143c11.846 9.94 13.391 27.601 3.451 39.447z" /></svg>