<?xml version="1.0" standalone="no"?><!DOCTYPE svg PUBLIC "-//W3C//DTD SVG 1.1//EN" "http://www.w3.org/Graphics/SVG/1.1/DTD/svg11.dtd"><svg class="icon" width="200px" height="200.00px" viewBox="0 0 1024 1024" version="1.1" xmlns="http://www.w3.org/2000/svg"><path d="M740.223 130.745L893.25 283.772a64.01 64.01 0 0 1 18.746 45.264L911.928 848c-0.013 35.343-28.665 63.992-64.008 64H176c-35.346 0-64-28.654-64-64V176c0-35.346 28.654-64 64-64h518.968a64 64 0 0 1 45.255 18.745zM324 184H184v656h72V592c0-17.673 14.327-32 32-32h447.92c17.673 0 32 14.327 32 32v248h72V337.923l-140-139.999V320c0 17.673-14.327 32-32 32H356c-17.673 0-32-14.327-32-32V184z m379.92 440H320v216h383.92V624z m-68-440H388v104h247.92V184z" /></svg>