<?xml version="1.0" standalone="no"?><!DOCTYPE svg PUBLIC "-//W3C//DTD SVG 1.1//EN" "http://www.w3.org/Graphics/SVG/1.1/DTD/svg11.dtd"><svg class="icon" width="200px" height="200.00px" viewBox="0 0 1024 1024" version="1.1" xmlns="http://www.w3.org/2000/svg"><path d="M848 149v50.982a64 64 0 0 1-14.973 41.138L571.84 552.39l75.834 63.632c24.894-17.804 55.387-28.282 88.326-28.282 83.947 0 152 68.053 152 152s-68.053 152-152 152-152-68.053-152-152c0-23.459 5.314-45.676 14.804-65.514l-86.802-73.149-86.806 73.15C434.686 694.063 440 716.28 440 739.74c0 83.947-68.053 152-152 152s-152-68.053-152-152 68.053-152 152-152c32.94 0 63.432 10.478 88.327 28.283l75.831-63.632-261.186-311.27A64 64 0 0 1 176 199.982v-50.981c0-8.837 7.164-16.001 16-16.001a16 16 0 0 1 12.257 5.716L510.378 503.54l1.39-1.166 0.232 0.275 0.232-0.275 1.388 1.164 306.123-364.821c5.68-6.77 15.772-7.652 22.542-1.972A16 16 0 0 1 848 149zM288 647.74c-50.81 0-92 41.19-92 92s41.19 92 92 92 92-41.19 92-92-41.19-92-92-92z m448 0c-50.81 0-92 41.19-92 92s41.19 92 92 92 92-41.19 92-92-41.19-92-92-92z" /></svg>