<svg t="1585881979590" class="icon" viewBox="0 0 1024 1024" version="1.1" xmlns="http://www.w3.org/2000/svg" p-id="4131" width="200" height="200"><path d="M439.402 81.674l0.695 1.395c14.223 28.197 41.884 45.688 72.408 45.668 30.365 0.03 57.948-17.303 72.238-45.321l0.7-1.389c9.044-17.61 28.571-26.29 47.03-20.93 73.837 21.386 141.39 61.924 195.335 117.186 13.668 14.012 16.15 35.989 6.032 52.881l-0.808 1.323c-16.236 26.89-16.89 60.475-1.684 87.893 15.207 27.418 43.475 43.62 73.957 42.433l1.504-0.066c19.113-0.676 36.156 12.55 40.979 31.878 19.004 76.261 18.952 157.429-0.173 234.685-4.788 19.33-21.782 32.577-40.93 31.932l-1.504-0.062c-30.441-1.102-58.657 15.089-73.824 42.46-15.271 27.502-14.55 61.184 1.79 88.109l0.813 1.324c10.2 16.903 7.753 38.957-5.955 52.992a451.248 451.248 0 0 1-90.5 71.608c-33.089 19.886-68.351 35.293-104.825 45.78-18.523 5.336-38.102-3.48-47.064-21.127l-0.695-1.395c-14.223-28.197-41.884-45.688-72.408-45.668-30.372-0.002-57.955 17.33-72.239 45.322l-0.699 1.387c-9.037 17.583-28.553 26.245-47.03 20.931-73.873-21.41-141.417-61.93-195.344-117.204-13.646-13.99-16.133-35.976-6.023-52.863l0.807-1.323c16.229-26.886 16.883-60.47 1.676-87.888-15.207-27.418-43.475-43.62-73.957-42.433l-1.504 0.066c-19.113 0.676-36.155-12.55-40.969-31.86-19.028-76.225-18.976-157.392 0.164-234.703 4.778-19.347 21.772-32.594 40.929-31.933l1.504 0.064c30.434 1.128 58.65-15.063 73.825-42.461 15.27-27.502 14.549-61.184-1.79-88.109l-0.814-1.324c-10.2-16.903-7.753-38.957 5.956-52.992 53.946-55.275 122.373-96.4 195.333-117.393 18.522-5.336 38.101 3.48 47.064 21.127zM415.73 338.099c-93.377 55.842-125.482 179.95-71.571 276.67 53.911 96.721 173.73 129.976 267.107 74.134 93.38-55.844 125.485-179.945 71.57-276.67-53.913-96.726-173.725-129.978-267.106-74.134z" p-id="4132"></path></svg>