<?xml version="1.0" standalone="no"?><!DOCTYPE svg PUBLIC "-//W3C//DTD SVG 1.1//EN" "http://www.w3.org/Graphics/SVG/1.1/DTD/svg11.dtd"><svg class="icon" width="200px" height="200.00px" viewBox="0 0 1024 1024" version="1.1" xmlns="http://www.w3.org/2000/svg"><path d="M512.022 64c28.627 0 56.628 2.685 83.763 7.817 14.434 2.202 25.697 14.047 27.007 28.756l0.038 0.446 3.688 52.732-0.023-0.008 1.814 25.926c42.059 14.719 80.473 37.196 113.526 65.715l70.002-34.142c13.77-7.292 30.643-3.529 40.082 8.466l1.806 2.12a447.84 447.84 0 0 1 22.968 29.544 454.22 454.22 0 0 1 23.417 36.439c14.336 24.83 26.025 50.462 35.154 76.57 5.252 13.605 0.583 29.257-11.527 37.71l-44.105 29.752-0.005-0.024-21.716 14.648C861.909 467.7 864 489.606 864 512c0 22.388-2.09 44.288-6.086 65.515l64.748 43.67c13.074 8.31 18.187 24.715 12.555 38.825a447.73 447.73 0 0 1-15.04 37.302 454.22 454.22 0 0 1-19.848 38.499c-14.33 24.82-30.676 47.75-48.712 68.702-9.379 11.655-25.847 15.353-39.43 8.422l-46.833-22.843 0.018-0.016-23.524-11.472c-33.052 28.521-71.464 51-113.522 65.72l-5.439 77.792c-0.698 15.471-12.381 28.082-27.435 30.216a447.671 447.671 0 0 1-39.728 5.608 454.22 454.22 0 0 1-43.266 2.06c-28.614 0-56.603-2.683-83.726-7.81-14.895-2.25-26.425-14.767-27.146-30.112l-3.624-51.829 0.023 0.008-1.801-25.754c-42.178-14.69-80.702-37.178-113.846-65.738L212.48 812.84c-13.793 7.21-30.65 3.375-40.034-8.681a447.854 447.854 0 0 1-24.66-31.53 454.22 454.22 0 0 1-23.416-36.439c-14.287-24.745-25.945-50.287-35.06-76.302-5.565-14.042-0.504-30.337 12.441-38.66l43.097-29.07 0.005 0.024 21.29-14.361C162.11 556.497 160 534.495 160 512c0-22.49 2.109-44.486 6.14-65.803l-64.16-43.274c-13.185-8.263-18.371-24.72-12.748-38.88l-0.722 2.107a447.602 447.602 0 0 1 15.793-39.462 454.22 454.22 0 0 1 19.849-38.499c14.286-24.745 30.577-47.611 48.548-68.512 9.186-11.594 25.338-15.444 38.851-8.974l47.575 23.205-0.018 0.016 23.216 11.323c33.143-28.562 71.666-51.052 113.843-65.744l5.403-77.29c0.545-15.63 12.301-28.41 27.475-30.548l2.743-0.504a447.845 447.845 0 0 1 36.968-5.1A454.22 454.22 0 0 1 512.022 64zM512 296c119.294 0 216 96.706 216 216s-96.706 216-216 216-216-96.706-216-216 96.706-216 216-216z m0 64c-83.947 0-152 68.053-152 152s68.053 152 152 152 152-68.053 152-152-68.053-152-152-152z m-80.623-116.219l-0.682 0.205-1.524 0.468-1.713 0.535-1.67 0.534-1.773 0.579-1.392 0.465-1.364 0.464-1.925 0.666-1.937 0.688-0.723 0.26-1.795 0.657-0.937 0.349-1.633 0.616-2.289 0.884-1.32 0.52-1.454 0.582-1.514 0.617-0.798 0.329-1.688 0.706-1 0.423-1.384 0.595-1.458 0.637-1.453 0.644-1.454 0.654-0.726 0.33-2.077 0.96-1.75 0.823-1.81 0.87a279.708 279.708 0 0 0-35.62 20.614l0.208 0.103a277.994 277.994 0 0 0-60.098 55.246l-87.961-42.9a380.524 380.524 0 0 0-20.158 31.285 380.56 380.56 0 0 0-16.84 32.713l81.107 54.71a277.995 277.995 0 0 0-17.927 79.579l-0.08-0.055A283.98 283.98 0 0 0 232 512c0 7.024 0.259 13.988 0.767 20.883l0.28-0.19a277.994 277.994 0 0 0 17.795 79.67l-81.133 54.727a380.524 380.524 0 0 0 17.015 33.1 380.561 380.561 0 0 0 19.91 30.94l87.933-42.886a278.047 278.047 0 0 0 38.582 39.198l1.31 1.085 0.702 0.574a280.21 280.21 0 0 0 55.42 35.275l-0.017-0.24a277.994 277.994 0 0 0 77.894 24.423l6.828 97.627A380.524 380.524 0 0 0 512.458 888c12.4 0 24.66-0.6 36.75-1.773l6.827-97.594a278.669 278.669 0 0 0 19.968-3.87v-0.111c54.552-12.756 102.97-41.462 140.065-80.932l0.162 0.094a278.63 278.63 0 0 0 13.626-15.618l87.962 42.9a380.524 380.524 0 0 0 20.157-31.285 380.56 380.56 0 0 0 16.84-32.713l-81.106-54.71a278.666 278.666 0 0 0 6.668-19.343l-0.243-0.14C787.852 567.291 792 540.13 792 512c0-28.13-4.148-55.291-11.866-80.905l0.146-0.085a278.636 278.636 0 0 0-6.642-19.373l81.133-54.727a380.524 380.524 0 0 0-17.014-33.1 380.561 380.561 0 0 0-19.911-30.94l-87.933 42.886a278.658 278.658 0 0 0-13.585-15.626l-0.26 0.15c-23-24.471-50.35-44.805-80.818-59.765l-1.334-0.65-1.408-0.678-1.504-0.712-2.158-1.004-0.493-0.226-2.905-1.31-0.757-0.333-1.366-0.597-1.66-0.714-1.856-0.783-0.693-0.288-1.516-0.623c-1.063-0.433-2.13-0.86-3.199-1.28l-1.422-0.555-1.79-0.685-1.46-0.549-1.486-0.549-1.587-0.575-2.121-0.752-1.009-0.351-1.513-0.519-1.726-0.579-1.948-0.639-1.867-0.597-1.674-0.523-1.162-0.357-1.956-0.587-1.962-0.573-1.73-0.493-1.969-0.546-2.128-0.573-2.427-0.631-0.795-0.202-1.683-0.419a277.993 277.993 0 0 0-22.964-4.622l-6.828-97.627A380.524 380.524 0 0 0 512.022 136c-12.4 0-24.659 0.6-36.75 1.773l-6.827 97.594a278.718 278.718 0 0 0-18.348 3.499l-2.099 0.482-2.027 0.482-1.022 0.25-2.096 0.523-1.261 0.324-2.236 0.588-2.403 0.655-2.509 0.71-1.692 0.492-1.375 0.41z" /></svg>