<?xml version="1.0" standalone="no"?><!DOCTYPE svg PUBLIC "-//W3C//DTD SVG 1.1//EN" "http://www.w3.org/Graphics/SVG/1.1/DTD/svg11.dtd"><svg class="icon" width="200px" height="200.00px" viewBox="0 0 1024 1024" version="1.1" xmlns="http://www.w3.org/2000/svg"><path d="M744 112c66.274 0 120 53.726 120 120s-53.726 120-120 120c-28.31 0-54.33-9.803-74.851-26.2l-206.02 133.53C468.876 475.825 472 493.548 472 512c0 18.453-3.124 36.176-8.872 52.67l206.02 133.531C689.669 681.804 715.69 672 744 672c66.274 0 120 53.726 120 120s-53.726 120-120 120-120-53.726-120-120c0-10.372 1.316-20.437 3.79-30.037L421.755 628.422C393.106 655.44 354.487 672 312 672c-88.366 0-160-71.634-160-160s71.634-160 160-160c42.488 0 81.107 16.56 109.756 43.58L627.79 262.036A120.215 120.215 0 0 1 624 232c0-66.274 53.726-120 120-120z m0 632c-26.51 0-48 21.49-48 48s21.49 48 48 48 48-21.49 48-48-21.49-48-48-48zM312 424c-48.601 0-88 39.399-88 88s39.399 88 88 88 88-39.399 88-88-39.399-88-88-88z m432-240c-26.51 0-48 21.49-48 48s21.49 48 48 48 48-21.49 48-48-21.49-48-48-48z" /></svg>