<svg t="1588756911702" class="icon" viewBox="0 0 1024 1024" version="1.1" xmlns="http://www.w3.org/2000/svg" p-id="36368" width="200" height="200"><path d="M424 64c198.823 0 360 161.177 360 360 0 85.693-29.94 164.392-79.931 226.208l-1.522 1.868 0.599 0.47a36.404 36.404 0 0 1 2.908 2.613l243.245 243.245c14.059 14.059 14.059 36.853 0 50.912-14.06 14.059-36.853 14.059-50.912 0L655.142 706.07a36.404 36.404 0 0 1-2.613-2.91l-0.47-0.598C589.965 753.457 510.548 784 424 784 225.177 784 64 622.823 64 424S225.177 64 424 64z m0 72c-159.058 0-288 128.942-288 288s128.942 288 288 288 288-128.942 288-288-128.942-288-288-288z m192 249.072c19.882 0 36 16.117 36 36 0 19.882-16.118 36-36 36H236c-19.882 0-36-16.118-36-36 0-19.883 16.118-36 36-36h380z" p-id="36369"></path></svg>