<?xml version="1.0" standalone="no"?><!DOCTYPE svg PUBLIC "-//W3C//DTD SVG 1.1//EN" "http://www.w3.org/Graphics/SVG/1.1/DTD/svg11.dtd"><svg class="icon" width="200px" height="200.00px" viewBox="0 0 1024 1024" version="1.1" xmlns="http://www.w3.org/2000/svg"><path d="M288 64c17.673 0 32 14.327 32 32v16h159V96c0-17.673 14.327-32 32-32h8c17.673 0 32 14.327 32 32v16h72.7c34.992 0 63.426 28.084 63.991 62.942l0.008 1.208L687 325.52l167.627 167.627A32 32 0 0 1 864 515.776V928c0 17.673-14.327 32-32 32H352c-35.346 0-64-28.654-64-64v-51H176c-35.346 0-64-28.654-64-64V176c0-35.346 28.654-64 64-64h72V96c0-17.673 14.327-32 32-32h8z m264 704H448c-13.255 0-24 10.745-24 24v8c0 13.255 10.745 24 24 24h104c13.255 0 24-10.745 24-24v-8c0-13.255-10.745-24-24-24z m152-110H448c-13.255 0-24 10.745-24 24v8c0 13.255 10.745 24 24 24h256c13.255 0 24-10.745 24-24v-8c0-13.255-10.745-24-24-24z m-89-474h-64v16c0 17.673-14.327 32-32 32h-8c-17.673 0-32-14.327-32-32v-16H320v16c0 17.673-14.327 32-32 32h-8c-17.673 0-32-14.327-32-32v-16h-64v589h104V328c0-35.346 28.654-64 64-64l263-0.001V184z m-9 168.002V522h169.998L606 352.002z" /></svg>