<?xml version="1.0" standalone="no"?><!DOCTYPE svg PUBLIC "-//W3C//DTD SVG 1.1//EN" "http://www.w3.org/Graphics/SVG/1.1/DTD/svg11.dtd"><svg class="icon" width="200px" height="200.00px" viewBox="0 0 1024 1024" version="1.1" xmlns="http://www.w3.org/2000/svg"><path d="M539.409 109.488l120.154 199.41 226.779 52.652c17.215 3.997 27.93 21.192 23.933 38.408a32 32 0 0 1-6.994 13.726l-152.52 175.894 20.004 231.95c1.518 17.608-11.525 33.113-29.132 34.631a32 32 0 0 1-15.217-2.41L512 763.05l-214.416 90.7c-16.277 6.886-35.053-0.728-41.939-17.004a32 32 0 0 1-2.41-15.217l20.004-231.95-152.52-175.894c-11.578-13.352-10.14-33.562 3.213-45.14a32 32 0 0 1 13.726-6.994l226.78-52.653L484.59 109.488c9.121-15.137 28.787-20.015 43.924-10.893a32 32 0 0 1 10.894 10.893zM512 203.508v481.364l181.327 76.703-16.916-196.155 128.982-148.75-191.782-44.526L512 203.508z" /></svg>