<?xml version="1.0" standalone="no"?><!DOCTYPE svg PUBLIC "-//W3C//DTD SVG 1.1//EN" "http://www.w3.org/Graphics/SVG/1.1/DTD/svg11.dtd"><svg class="icon" width="200px" height="200.00px" viewBox="0 0 1024 1024" version="1.1" xmlns="http://www.w3.org/2000/svg"><path d="M512 64c247.424 0 448 200.576 448 448S759.424 960 512 960 64 759.424 64 512 264.576 64 512 64zM136 512c0 207.66 168.34 376 376 376 90.143 0 172.877-31.721 237.648-84.61L220.61 274.352C167.721 339.123 136 421.857 136 512z m376-376c-90.143 0-172.877 31.721-237.648 84.61L803.39 749.648C856.279 684.877 888 602.143 888 512c0-207.66-168.34-376-376-376z" /></svg>