<?xml version="1.0" standalone="no"?><!DOCTYPE svg PUBLIC "-//W3C//DTD SVG 1.1//EN" "http://www.w3.org/Graphics/SVG/1.1/DTD/svg11.dtd"><svg class="icon" width="200px" height="200.00px" viewBox="0 0 1024 1024" version="1.1" xmlns="http://www.w3.org/2000/svg"><path d="M480 576v280c0 17.673-14.327 32-32 32H168c-17.673 0-32-14.327-32-32V576c0-17.673 14.327-32 32-32h280c17.673 0 32 14.327 32 32z m408 0v280c0 17.673-14.327 32-32 32H576c-17.673 0-32-14.327-32-32V576c0-17.673 14.327-32 32-32h280c17.673 0 32 14.327 32 32zM738.627 104.353l181.02 181.02c12.497 12.496 12.497 32.758 0 45.254l-181.02 181.02c-12.496 12.497-32.758 12.497-45.254 0l-181.02-181.02c-12.497-12.496-12.497-32.758 0-45.254l181.02-181.02c12.496-12.497 32.758-12.497 45.254 0zM480 168v280c0 17.673-14.327 32-32 32H168c-17.673 0-32-14.327-32-32V168c0-17.673 14.327-32 32-32h280c17.673 0 32 14.327 32 32z m236 21.206L597.206 308 716 426.794 834.794 308 716 189.206z" /></svg>