<?xml version="1.0" standalone="no"?><!DOCTYPE svg PUBLIC "-//W3C//DTD SVG 1.1//EN" "http://www.w3.org/Graphics/SVG/1.1/DTD/svg11.dtd"><svg class="icon" width="200px" height="200.00px" viewBox="0 0 1024 1024" version="1.1" xmlns="http://www.w3.org/2000/svg"><path d="M452.715 148.08v700.084c0 35.346-28.654 64-64 64a64 64 0 0 1-49.027-22.862L134.891 645.234c-13.49-16.077-11.393-40.045 4.684-53.536l6.125-5.14c16.077-13.489 40.045-11.392 53.536 4.684l173.48 206.74V148.08c0-19.882 16.117-36 36-36h8c19.882 0 36 16.118 36 36z m118.555 728V176c0-35.346 28.654-64 64-64a64 64 0 0 1 49.027 22.862l204.812 244.085c13.49 16.077 11.393 40.046-4.684 53.536l-6.128 5.142c-16.077 13.49-40.046 11.393-53.536-4.684L651.27 226.183V876.08c0 19.882-16.118 36-36 36h-8c-19.882 0-36-16.118-36-36z" /></svg>