<?xml version="1.0" standalone="no"?><!DOCTYPE svg PUBLIC "-//W3C//DTD SVG 1.1//EN" "http://www.w3.org/Graphics/SVG/1.1/DTD/svg11.dtd"><svg class="icon" width="200px" height="200.00px" viewBox="0 0 1024 1024" version="1.1" xmlns="http://www.w3.org/2000/svg"><path d="M728 216l0.003 0.425C884.038 224.738 1008 353.892 1008 512c0 158.108-123.962 287.262-279.997 295.575L728 808H311v-0.008l-3.895-0.032C145.886 805.346 16 673.842 16 512c0-161.51 129.356-292.809 290.117-295.943L311 216h417z m0 72H312C188.288 288 88 388.288 88 512s100.288 224 224 224h416l0.002-0.563C844.245 727.232 936 630.331 936 512c0-118.331-91.755-215.232-207.998-223.437L728 288z m-16 56c92.784 0 168 75.216 168 168s-75.216 168-168 168-168-75.216-168-168 75.216-168 168-168z" /></svg>