<?xml version="1.0" encoding="UTF-8"?>
<svg width="18px" height="18px" viewBox="0 0 18 18" version="1.1" xmlns="http://www.w3.org/2000/svg" xmlns:xlink="http://www.w3.org/1999/xlink">
    <title>编组 7</title>
    <g id="GPM" stroke="none" stroke-width="1" fill="none" fill-rule="evenodd">
        <g id="编组-7" fill-rule="nonzero">
            <rect id="矩形备份-11" fill="#000000" opacity="0" x="0" y="0" width="18" height="18"></rect>
            <path d="M6.27625,4.5 C4.01153735,4.5 2.175625,6.33591235 2.175625,8.600625 C2.175625,10.8653377 4.01153735,12.70125 6.27625,12.70125 L12.14875,12.70125 C14.4134627,12.70125 16.249375,10.8653377 16.249375,8.600625 C16.249375,6.33591235 14.4134627,4.5 12.14875,4.5 L6.27625,4.5 Z M6.27625,3.375 L12.14875,3.375 C15.0627424,3.375 17.425,5.73725759 17.425,8.65125 C17.425,11.5652424 15.0627424,13.9275 12.14875,13.9275 L6.27625,13.9275 C3.36225759,13.9275 1,11.5652424 1,8.65125 C1,5.73725759 3.36225759,3.375 6.27625,3.375 Z M12.14875,11.53125 C10.7471592,11.5318337 9.540566,10.5417344 9.26752972,9.16699512 C8.99449344,7.79225581 9.73114764,6.41620919 11.026584,5.88113764 C12.3220204,5.34606609 13.815019,5.80116914 14.5917109,6.96787682 C15.3684027,8.1345845 15.2122147,9.68757163 14.21875,10.67625 C13.676957,11.2411224 12.931374,11.5652889 12.14875,11.57625 L12.14875,11.53125 Z" id="形状备份" fill="#909399"></path>
        </g>
    </g>
</svg>