<?xml version="1.0" standalone="no"?><!DOCTYPE svg PUBLIC "-//W3C//DTD SVG 1.1//EN" "http://www.w3.org/Graphics/SVG/1.1/DTD/svg11.dtd"><svg class="icon" width="200px" height="200.00px" viewBox="0 0 1024 1024" version="1.1" xmlns="http://www.w3.org/2000/svg"><path d="M162.12 616.035l153.922 27.14c16.317 2.878 27.212 18.437 24.335 34.754l-1.39 7.88c-2.877 16.316-18.437 27.211-34.753 24.335L200.016 691.77c62.212 107.733 178.626 180.233 311.973 180.233 127.868 0 240.167-66.666 304.033-167.136 9.125-15.127 28.775-20.02 43.928-10.938l8.019 4.818c14.55 8.743 19.258 27.625 10.515 42.175-0.468 0.779-0.97 1.536-1.505 2.27-76.608 120.704-211.444 200.811-364.99 200.811-160.048 0-299.767-87.034-374.411-216.355l-36.27 99.653c-5.667 15.57-22.882 23.598-38.451 17.931l-7.518-2.736c-15.569-5.667-23.597-22.882-17.93-38.452l53.456-146.87c10.623-29.186 40.667-46.533 71.254-41.14zM511.988 80.003c160.047 0 299.767 87.034 374.411 216.355l36.27-99.654c5.667-15.57 22.882-23.597 38.452-17.93l7.516 2.735c15.57 5.666 23.597 22.881 17.93 38.45v0.001l-53.455 146.869c-10.623 29.185-40.666 46.53-71.253 41.138L707.936 380.83c-16.317-2.876-27.212-18.436-24.336-34.753l1.39-7.879c2.878-16.316 18.437-27.211 34.754-24.335l104.218 18.375C761.75 224.504 645.336 152.003 511.99 152.003c-127.888 0-240.2 66.685-304.062 167.18l-0.209 0.32-0.498 0.789c-9.113 15.138-28.768 20.035-43.919 10.943l-6.82-4.098c-15.121-9.123-20.028-28.763-10.974-43.926l0.532-0.888 0.483-0.774 0.166-0.254c76.559-120.971 211.55-201.292 365.3-201.292z" /></svg>