<?xml version="1.0" standalone="no"?><!DOCTYPE svg PUBLIC "-//W3C//DTD SVG 1.1//EN" "http://www.w3.org/Graphics/SVG/1.1/DTD/svg11.dtd"><svg class="icon" width="200px" height="200.00px" viewBox="0 0 1024 1024" version="1.1" xmlns="http://www.w3.org/2000/svg"><path d="M95 800V224c0-35.346 28.654-64 64-64h706c35.346 0 64 28.654 64 64v576c0 35.346-28.654 64-64 64H159c-35.346 0-64-28.654-64-64z m259-152.001H167V792h187V647.999z m252 0H418V792h188V647.999z m251 0H670V792h187V647.999zM354 440H167v143.999h187V440z m252 0H418v143.999h188V440z m251 0H670v143.999h187V440z m0-208H167v144h690V232z" /></svg>