<?xml version="1.0" standalone="no"?><!DOCTYPE svg PUBLIC "-//W3C//DTD SVG 1.1//EN" "http://www.w3.org/Graphics/SVG/1.1/DTD/svg11.dtd"><svg class="icon" width="200px" height="200.00px" viewBox="0 0 1024 1024" version="1.1" xmlns="http://www.w3.org/2000/svg"><path d="M864 158v748.972c0 8.836-7.163 16.003-16 16.003-2.809 0-5.568-0.743-8-2.147L512.01 731.457h-0.008L183.999 920.829c-7.653 4.418-17.438 1.796-21.856-5.857a16 16 0 0 1-2.144-8V158c0-35.346 28.654-64 64-64H800c35.346 0 64 28.654 64 64z m-72.001 8h-560v644.115l248.003-143.183a64 64 0 0 1 64 0l247.997 143.176V166zM673.423 318.866l-183.75 218.987c-11.36 13.538-31.545 15.304-45.083 3.944a32 32 0 0 1-3.944-3.944L341.74 419.986c-9.94-11.846-8.395-29.507 3.45-39.447l6.129-5.143c11.846-9.94 29.507-8.394 39.447 3.452l74.39 88.652 159.238-189.772c9.94-11.846 27.602-13.391 39.448-3.452l6.128 5.143c11.846 9.94 13.391 27.601 3.452 39.447z" /></svg>