<?xml version="1.0" standalone="no"?><!DOCTYPE svg PUBLIC "-//W3C//DTD SVG 1.1//EN" "http://www.w3.org/Graphics/SVG/1.1/DTD/svg11.dtd"><svg class="icon" width="200px" height="200.00px" viewBox="0 0 1024 1024" version="1.1" xmlns="http://www.w3.org/2000/svg"><path d="M800 94c35.346 0 64 28.654 64 64v748.972c0 8.836-7.163 16.003-16 16.003-2.809 0-5.568-0.743-8-2.147L512.01 731.457h-0.008L183.999 920.829c-7.653 4.418-17.438 1.796-21.856-5.857a16 16 0 0 1-2.144-8V158c0-35.346 28.654-64 64-64H800zM663.843 274.276c-11.846-9.94-29.507-8.394-39.448 3.452L465.156 467.5l-74.389-88.652c-9.94-11.846-27.6-13.392-39.447-3.452l-6.128 5.143-0.353 0.3c-11.523 9.992-12.939 27.42-3.098 39.147l98.905 117.867a32 32 0 0 0 3.944 3.944c13.538 11.36 33.722 9.594 45.082-3.944l183.75-218.987c9.94-11.846 8.395-29.507-3.45-39.447z" /></svg>