<?xml version="1.0" standalone="no"?><!DOCTYPE svg PUBLIC "-//W3C//DTD SVG 1.1//EN" "http://www.w3.org/Graphics/SVG/1.1/DTD/svg11.dtd"><svg class="icon" width="200px" height="200.00px" viewBox="0 0 1024 1024" version="1.1" xmlns="http://www.w3.org/2000/svg"><path d="M864 158v748.972c0 8.836-7.163 16.003-16 16.003-2.809 0-5.568-0.743-8-2.147L512.01 731.457h-0.008L183.999 920.829c-7.653 4.418-17.438 1.796-21.856-5.857a16 16 0 0 1-2.144-8V158c0-35.346 28.654-64 64-64H800c35.346 0 64 28.654 64 64z m-72.001 8h-560v644.115l280-161.656 0.004 0.001 0.005 0.005 279.991 161.643V166z" /></svg>