<?xml version="1.0" standalone="no"?><!DOCTYPE svg PUBLIC "-//W3C//DTD SVG 1.1//EN" "http://www.w3.org/Graphics/SVG/1.1/DTD/svg11.dtd"><svg class="icon" width="200px" height="200.00px" viewBox="0 0 1024 1024" version="1.1" xmlns="http://www.w3.org/2000/svg"><path d="M809 718c56.885 0 103 46.115 103 103v59c0 17.673-14.327 32-32 32H352c-17.673 0-32-14.327-32-32v-59c0-56.885 40.799-103 97.684-103H809zM209.684 542h157.923c5.707 0 10.484 3.984 11.7 9.323l0.018-0.004c10.297 36.272 28.707 69.131 53.145 96.492A11.952 11.952 0 0 1 435.7 656c0 6.525-5.209 11.834-11.695 11.996l-0.358 0.004h-8.544c-51.11 0-93.48 25.062-118.981 63.568a8 8 0 0 1-6.913 4.428l-0.249 0.004H144c-17.673 0-32-14.327-32-32v-59c0-56.885 40.799-103 97.684-103zM616 288c108.248 0 196 87.752 196 196s-87.752 196-196 196-196-87.752-196-196 87.752-196 196-196zM397.5 112c78.864 0 146.821 46.697 177.73 113.948a11.987 11.987 0 0 1 1.184 5.208c0 5.71-3.988 10.488-9.33 11.702l0.001 0.01C454.655 265.548 370 364.888 370 484l0.003 1.127 0.01 1.61c0 6.628-5.372 12-12 12-1.074 0-2.115-0.14-3.106-0.406l-0.003 0.012C267.418 478.908 202 400.843 202 307.5 202 199.528 289.528 112 397.5 112z" /></svg>