<?xml version="1.0" standalone="no"?><!DOCTYPE svg PUBLIC "-//W3C//DTD SVG 1.1//EN" "http://www.w3.org/Graphics/SVG/1.1/DTD/svg11.dtd"><svg class="icon" width="200px" height="200.00px" viewBox="0 0 1024 1024" version="1.1" xmlns="http://www.w3.org/2000/svg"><path d="M809 718c56.316 0 102.077 45.197 102.986 101.297l0.007 60.707c0.005 17.673-14.32 32.001-31.993 32.003-0.001 0-0.002 0-0.004-0.003H872c-17.673 0-32-14.327-32-32V821c0-16.586-14.527-30.13-31-30.96V790H421.4c-16.95 0-29.154 13.603-29.396 30.487l-0.002 59.517c-0.002 17.672-14.328 31.999-32.001 32H352c-17.673 0.004-32-14.323-32-31.996 0-0.002 0-0.003 0.004-0.004l0.008-60.707c0.806-56.1 41.355-101.297 97.672-101.297H809zM209.684 542H359.6c17.673 0 32 14.327 32 32v8c0 17.673-14.327 32-32 32H213.4c-16.95 0-29.154 13.603-29.396 30.487L184.002 704C184 721.673 169.674 736 152 736h-7.998c-17.673 0.003-32-14.324-32-31.997 0 0 0-0.002 0.003-0.003l0.006-60.703c0.806-56.1 41.355-101.297 97.672-101.297zM616 288c108.248 0 196 87.752 196 196s-87.752 196-196 196-196-87.752-196-196 87.752-196 196-196z m0.5 72C547.74 360 492 415.74 492 484.5c0 68.76 55.74 124.5 124.5 124.5 68.76 0 124.5-55.74 124.5-124.5 0-68.76-55.74-124.5-124.5-124.5z m-219-248c72.667 0 136.075 39.647 169.771 98.49 0.27 0.44 0.524 0.89 0.764 1.35l0.279 0.494-0.022 0.01a23.902 23.902 0 0 1 2.47 10.616c0 10.827-7.17 19.98-17.02 22.97l0.005 0.016a243.897 243.897 0 0 0-21.1 6.535l-0.016-0.038a23.938 23.938 0 0 1-8.77 1.653c-8.8 0-16.493-4.735-20.67-11.796l-0.008 0.003C481.271 207.288 442.355 184 398 184c-68.483 0-124 55.517-124 124 0 53.803 34.267 99.603 82.166 116.766 9.456 3.226 16.26 12.185 16.26 22.733 0 1.024-0.063 2.033-0.188 3.023l0.022 0.005a246.887 246.887 0 0 0-1.992 21.88l-0.022 0.004c-0.616 12.706-11.113 22.819-23.972 22.819-2.794 0-5.478-0.478-7.972-1.356l0.154 0.05C259.345 468.894 202 394.894 202 307.5 202 199.528 289.528 112 397.5 112z" /></svg>