<?xml version="1.0" standalone="no"?><!DOCTYPE svg PUBLIC "-//W3C//DTD SVG 1.1//EN" "http://www.w3.org/Graphics/SVG/1.1/DTD/svg11.dtd"><svg class="icon" width="200px" height="200.00px" viewBox="0 0 1024 1024" version="1.1" xmlns="http://www.w3.org/2000/svg"><path d="M348.6 111.997c19.47 0 35.69 13.914 39.266 32.338C401.841 199.88 452.118 241 512 241c59.878 0 110.152-41.114 124.134-96.652 3.569-18.432 19.792-32.35 39.266-32.35h93.527a64 64 0 0 1 41.14 14.973L953.145 247.03c27.076 22.72 30.608 63.088 7.888 90.165L845.848 474.468c-13.065 15.57-36.278 17.601-51.848 4.536V846c0 35.346-28.654 64-64 64H294c-35.346 0-64-28.654-64-64V479.01c-15.57 13.064-38.782 11.033-51.847-4.536L62.965 337.2c-22.72-27.077-19.188-67.445 7.888-90.166l143.084-120.063a64 64 0 0 1 41.139-14.974H348.6z" /></svg>