<?xml version="1.0" standalone="no"?><!DOCTYPE svg PUBLIC "-//W3C//DTD SVG 1.1//EN" "http://www.w3.org/Graphics/SVG/1.1/DTD/svg11.dtd"><svg class="icon" width="200px" height="200.00px" viewBox="0 0 1024 1024" version="1.1" xmlns="http://www.w3.org/2000/svg"><path d="M255.077 111.997H348.6c19.465 0 35.683 13.907 39.264 32.324C401.833 199.874 452.114 241 512 241c59.886 0 110.167-41.127 124.14-96.677 3.577-18.42 19.794-32.326 39.259-32.326h93.528a64 64 0 0 1 41.139 14.974l143.08 120.059c27.076 22.72 30.608 63.088 7.888 90.165L845.848 474.468c-12.934 15.415-35.815 17.56-51.379 4.924l-0.47-0.388L794 846c0 34.993-28.084 63.426-62.942 63.991L730 910H294c-35.346 0-64-28.654-64-64V479.01c-15.414 12.933-38.319 11.073-51.452-4.073l-0.396-0.463L62.966 337.2c-22.72-27.077-19.188-67.445 7.888-90.166l143.084-120.063a64 64 0 0 1 41.139-14.974zM257.989 184L123.264 297.047l87.418 104.182L302 324.605v513.394h420V324.6l91.318 76.625 87.418-104.181-134.72-113.044h-66.611c-0.173 0.13-0.348 0.26-0.523 0.387l0.149-0.387C670.389 259.41 597.453 313 512 313c-85.307 0-158.139-53.409-186.883-128.614l-0.521-0.387h-66.607z" /></svg>