<?xml version="1.0" standalone="no"?><!DOCTYPE svg PUBLIC "-//W3C//DTD SVG 1.1//EN" "http://www.w3.org/Graphics/SVG/1.1/DTD/svg11.dtd"><svg class="icon" width="200px" height="200.00px" viewBox="0 0 1024 1024" version="1.1" xmlns="http://www.w3.org/2000/svg"><path d="M512 64c247.424 0 448 200.576 448 448S759.424 960 512 960 64 759.424 64 512 264.576 64 512 64z m0 72c-207.66 0-376 168.34-376 376s168.34 376 376 376 376-168.34 376-376-168.34-376-376-376z m13.719 183.815v222.153l115.027 96.52c11.846 9.94 13.391 27.6 3.452 39.447l-5.14 6.126c-9.94 11.847-27.601 13.393-39.447 3.453L473.154 581.405a32 32 0 0 1-11.43-24.513l-0.004-237.078c0-15.464 12.535-28 27.999-28h8c15.464 0 28 12.536 28 28z" /></svg>