<?xml version="1.0" standalone="no"?><!DOCTYPE svg PUBLIC "-//W3C//DTD SVG 1.1//EN" "http://www.w3.org/Graphics/SVG/1.1/DTD/svg11.dtd"><svg class="icon" width="200px" height="200.00px" viewBox="0 0 1024 1024" version="1.1" xmlns="http://www.w3.org/2000/svg"><path d="M512 64c247.424 0 448 200.576 448 448S759.424 960 512 960 64 759.424 64 512 264.576 64 512 64z m-14.281 227.815h-8c-15.464 0-28 12.536-28 28l0.005 237.078a32 32 0 0 0 11.43 24.513l126.457 106.107 0.357 0.296c11.841 9.613 29.25 7.98 39.09-3.748l5.14-6.126c9.939-11.846 8.394-29.507-3.452-39.448l-115.027-96.52V319.816c0-15.464-12.536-28-28-28z" /></svg>