<svg t="1611737624400" class="icon" viewBox="0 0 1024 1024" version="1.1" xmlns="http://www.w3.org/2000/svg" p-id="7970" width="200" height="200"><path d="M525.719 319.815v222.153l115.027 96.52c11.846 9.94 13.391 27.6 3.452 39.447l-5.14 6.126c-9.94 11.847-27.601 13.393-39.447 3.453L473.154 581.405a32 32 0 0 1-11.43-24.513l-0.004-237.078c0-15.464 12.535-28 27.999-28h8c15.464 0 28 12.536 28 28z" p-id="7971"></path><path d="M496.218 78.24c-160.047 0-299.766 87.033-374.41 216.353l-19.853-54.547c-5.667-15.57-22.882-23.597-38.451-17.93l-7.518 2.736c-15.57 5.667-23.597 22.882-17.93 38.451l46.223 126.999c5.312 14.593 20.334 23.266 35.627 20.569l133.095-23.469c16.317-2.877 27.212-18.437 24.335-34.754l-1.39-7.878c-2.878-16.316-18.437-27.211-34.753-24.336l-56.948 10.04C246.457 222.74 362.87 150.238 496.218 150.238c198.823 0 360 161.178 360 360 0 198.823-161.177 360-360 360-127.868 0-240.166-66.665-304.033-167.135a50.003 50.003 0 0 1-0.83-1.299c-9.116-14.665-28.223-19.453-43.178-10.82l-7.082 4.09c-15.255 8.807-20.482 28.314-11.674 43.569 0.543 0.94 1.133 1.853 1.77 2.733C207.797 862.11 342.65 942.24 496.218 942.24c238.587 0 432-193.413 432-432s-193.413-432-432-432z" p-id="7972"></path></svg>