<?xml version="1.0" standalone="no"?><!DOCTYPE svg PUBLIC "-//W3C//DTD SVG 1.1//EN" "http://www.w3.org/Graphics/SVG/1.1/DTD/svg11.dtd"><svg class="icon" width="200px" height="200.00px" viewBox="0 0 1024 1024" version="1.1" xmlns="http://www.w3.org/2000/svg"><path d="M363.861 154.057l151.95 151.952 150.363-150.362c24.993-24.993 65.516-24.993 90.51 0l118.793 118.794c24.744 24.744 24.992 64.707 0.743 89.755l-0.743 0.755-150.361 150.36L869.443 659.64c24.993 24.993 24.993 65.516 0 90.51L750.648 868.942c-24.994 24.994-65.517 24.994-90.51 0L515.812 724.617 391.754 848.674a64 64 0 0 1-39.677 18.501l-196.653 17.206a8 8 0 0 1-8.667-8.667l17.205-196.68a64 64 0 0 1 18.502-39.677l124.045-124.045-151.951-151.95c-24.744-24.744-24.992-64.708-0.743-89.756l0.743-0.755L273.35 154.058c24.994-24.994 65.517-24.994 90.51 0z m313.172 409.339l-112.431 112.43 48.16 48.16 37.477-37.477c10.154-10.154 26.616-10.154 36.77 0l5.657 5.657c10.153 10.153 10.153 26.616 0 36.77l-37.477 37.476 45.255 45.255 112.43-112.43-135.841-135.841zM243.324 674.663l-12.002 14.65-14.727 125.226 125.206-14.725 14.662-12.012-113.139-113.139z m75.282-469.694L205.47 318.106l50.911 50.911 38.184-38.183c10.154-10.153 26.616-10.153 36.77 0l5.654 5.654c10.153 10.154 10.153 26.616 0 36.77l-38.181 38.186 55.785 55.785 113.137-113.137-149.123-149.123z m387.167 7.246l-54.448 54.447L764.465 379.8l54.445-54.445-113.137-113.14z" /></svg>