<svg t="1597905487007" class="icon" viewBox="0 0 1024 1024" version="1.1" xmlns="http://www.w3.org/2000/svg" p-id="3731" width="200" height="200"><path d="M292.587 797h-131.41c-24.43-0.066-44.196-19.86-44.177-44.243V416.63c-0.016-24.381 19.748-44.173 44.178-44.239h131.409c24.43 0.066 44.194 19.858 44.178 44.239v336.136c0.013 24.38-19.75 44.168-44.178 44.234z m-112.57-63.108h93.735V435.494h-93.735v298.403-0.005zM861.822 797H730.413c-24.431-0.066-44.196-19.86-44.178-44.243V544.579c-0.018-24.383 19.747-44.177 44.178-44.244h131.41c24.43 0.07 44.193 19.862 44.177 44.244v208.178c0.016 24.381-19.747 44.174-44.178 44.243z m-112.574-63.108h93.735V563.448h-93.735v170.444zM577.207 797H445.793c-24.431-0.066-44.196-19.86-44.178-44.243V191.234c-0.013-24.38 19.75-44.168 44.178-44.234h131.414c24.428 0.069 44.189 19.86 44.173 44.239v561.518c0.019 24.38-19.744 44.174-44.173 44.243z m-112.58-63.108h93.736V210.108h-93.735v523.784zM895.55 920h-766.1C112.02 919.784 98 905.52 98 888s14.019-31.784 31.45-32h766.1c17.431 0.216 31.45 14.48 31.45 32s-14.019 31.784-31.45 32z" p-id="3732"></path></svg>
