<svg t="1597732604419" class="icon" viewBox="0 0 1024 1024" version="1.1" xmlns="http://www.w3.org/2000/svg" p-id="5701" width="200" height="200"><path d="M831.519 127.989s0.266 0 0.32 0.426v766.956l-0.534 0.267-243.572-188.606c-46.504-35.984-111.525-35.743-157.76 0.586L192.747 894.251l-0.533-0.266V128.468a0.693 0.693 0 0 1 0.48-0.32h638.825m0-63.988H192.48c-35.587 0.059-64.42 28.888-64.48 64.468v765.143a64.624 64.624 0 0 0 18.914 45.84 64.646 64.646 0 0 0 45.833 18.949 63.207 63.207 0 0 0 39.466-13.918L469.44 758.01c23.276-18.158 55.923-18.158 79.2 0l243.519 188.393A63.315 63.315 0 0 0 831.252 960a64.593 64.593 0 0 0 45.887-18.97 64.573 64.573 0 0 0 18.86-45.925V128.628c0.029-35.643-28.831-64.57-64.48-64.628v0.16z" p-id="5702"></path><path d="M426.417 552.683l-136.1-136.1c-15.09-15.089-15.09-30.178 0-45.266 15.088-15.09 30.177-15.09 45.266 0l136.1 136.1c15.09 15.089 15.09 30.178 0 45.266-15.088 15.09-30.177 15.09-45.266 0z" p-id="5703"></path><path d="M426.313 507.436l258.123-258.123c15.083-15.084 30.167-15.084 45.251 0 15.084 15.084 15.084 30.168 0 45.251L471.564 552.687c-15.083 15.084-30.167 15.084-45.251 0-15.084-15.084-15.084-30.168 0-45.251z" p-id="5704"></path></svg>
