<?xml version="1.0" standalone="no"?><!DOCTYPE svg PUBLIC "-//W3C//DTD SVG 1.1//EN" "http://www.w3.org/Graphics/SVG/1.1/DTD/svg11.dtd"><svg t="1603334352091" class="icon" viewBox="0 0 1117 1024" version="1.1" xmlns="http://www.w3.org/2000/svg" p-id="8235" xmlns:xlink="http://www.w3.org/1999/xlink" width="218.1640625" height="200"><defs><style type="text/css"></style></defs><path d="M466.199273 442.181818H186.181818a46.545455 46.545455 0 0 0 0 93.090909l213.736727-0.279272-339.781818 339.781818a46.545455 46.545455 0 0 0 65.815273 65.815272l339.968-339.874909v214.202182a46.545455 46.545455 0 1 0 93.090909 0V534.900364a92.904727 92.904727 0 0 0-92.811636-92.718546M1033.681455 13.591273a46.545455 46.545455 0 0 0-65.815273 0L651.636364 329.821091V116.363636a46.545455 46.545455 0 0 0-93.090909 0v280.017455c0 51.2 41.611636 92.718545 92.718545 92.718545h280.017455a46.545455 46.545455 0 1 0 0-93.090909L716.8 396.381091 1033.681455 79.406545a46.545455 46.545455 0 0 0 0-65.722181" p-id="8236"></path></svg>