<?xml version="1.0" standalone="no"?><!DOCTYPE svg PUBLIC "-//W3C//DTD SVG 1.1//EN" "http://www.w3.org/Graphics/SVG/1.1/DTD/svg11.dtd"><svg class="icon" width="200px" height="200.00px" viewBox="0 0 1024 1024" version="1.1" xmlns="http://www.w3.org/2000/svg"><path d="M876 864H148c-19.882 0-36-16.118-36-36v-8c0-19.882 16.118-36 36-36h728c19.882 0 36 16.118 36 36v8c0 19.882-16.118 36-36 36z m-48-208H412c-19.882 0-36-16.118-36-36v-8c0-19.882 16.118-36 36-36h416c19.882 0 36 16.118 36 36v8c0 19.882-16.118 36-36 36zM185.741 399.755l129.72 99.552c7.01 5.38 8.331 15.424 2.952 22.434a16 16 0 0 1-2.952 2.952l-129.72 99.552c-7.01 5.38-17.054 4.058-22.434-2.952a16 16 0 0 1-3.307-9.74V412.447c0-8.837 7.163-16 16-16a16 16 0 0 1 9.741 3.307zM828 448H412c-19.882 0-36-16.118-36-36v-8c0-19.882 16.118-36 36-36h416c19.882 0 36 16.118 36 36v8c0 19.882-16.118 36-36 36z m48-208H148c-19.882 0-36-16.118-36-36v-8c0-19.882 16.118-36 36-36h728c19.882 0 36 16.118 36 36v8c0 19.882-16.118 36-36 36z" /></svg>