<?xml version="1.0" standalone="no"?><!DOCTYPE svg PUBLIC "-//W3C//DTD SVG 1.1//EN" "http://www.w3.org/Graphics/SVG/1.1/DTD/svg11.dtd"><svg class="icon" width="200px" height="200.00px" viewBox="0 0 1024 1024" version="1.1" xmlns="http://www.w3.org/2000/svg"><path d="M510.3 116.103c86.78 0 163.78 41.87 211.901 106.511l81.94-81.941c13.278-13.278 34.806-13.278 48.084 0l5.662 5.662c13.271 13.281 13.273 34.805 0.005 48.089l-329.54 329.679h-0.162L159.967 892.327c-13.278 13.278-34.805 13.278-48.083 0l-5.657-5.657c-13.278-13.277-13.278-34.805 0-48.083l52.073-52.073V516.103c0-35.347 28.654-64 64-64h24v-72c0-145.803 118.197-264 264-264z m320 336c17.674 0 32 14.327 32 32v368c0 35.346-28.653 64-64 64H232.52l464-464H830.3zM521.264 627.36l-57.705 57.705c2.68 11.472 9.474 21.362 18.742 28.029v35.009c0 13.254 10.746 24 24 24h8.001c13.255 0 24-10.746 24-24l0.001-35.01c12.112-8.713 19.999-22.93 19.999-38.99 0-22.739-15.81-41.784-37.038-46.743zM510.3 188.103c-104.979 0-190.28 84.25-191.975 188.825l-0.025 75.175h174.41l177.821-177.82c-34.365-51.93-93.298-86.18-160.231-86.18z" /></svg>