<?xml version="1.0" standalone="no"?><!DOCTYPE svg PUBLIC "-//W3C//DTD SVG 1.1//EN" "http://www.w3.org/Graphics/SVG/1.1/DTD/svg11.dtd"><svg class="icon" width="200px" height="200.00px" viewBox="0 0 1024 1024" version="1.1" xmlns="http://www.w3.org/2000/svg"><path d="M168 716c30.928 0 56 25.072 56 56s-25.072 56-56 56-56-25.072-56-56 25.072-56 56-56z m712 92H320c-17.673 0-32-14.327-32-32v-8c0-17.673 14.327-32 32-32h560c17.673 0 32 14.327 32 32v8c0 17.673-14.327 32-32 32zM168 456c30.928 0 56 25.072 56 56s-25.072 56-56 56-56-25.072-56-56 25.072-56 56-56z m712 92H320c-17.673 0-32-14.327-32-32v-8c0-17.673 14.327-32 32-32h560c17.673 0 32 14.327 32 32v8c0 17.673-14.327 32-32 32zM168 196c30.928 0 56 25.072 56 56s-25.072 56-56 56-56-25.072-56-56 25.072-56 56-56z m712 92H320c-17.673 0-32-14.327-32-32v-8c0-17.673 14.327-32 32-32h560c17.673 0 32 14.327 32 32v8c0 17.673-14.327 32-32 32z" /></svg>