<?xml version="1.0" standalone="no"?><!DOCTYPE svg PUBLIC "-//W3C//DTD SVG 1.1//EN" "http://www.w3.org/Graphics/SVG/1.1/DTD/svg11.dtd"><svg class="icon" width="200px" height="200.00px" viewBox="0 0 1024 1024" version="1.1" xmlns="http://www.w3.org/2000/svg"><path d="M839.959 452.792l-5.143 6.128c-13.49 16.077-37.458 18.174-53.535 4.684L552 271.214V876c0 19.882-16.118 36-36 36h-8c-19.882 0-36-16.118-36-36V271.218L242.724 463.604c-16.077 13.49-40.046 11.393-53.536-4.684l-5.142-6.128c-13.49-16.077-11.393-40.046 4.684-53.536L470.862 162.52c23.793-19.964 58.484-19.964 82.277 0l282.136 236.738c16.077 13.49 18.174 37.458 4.684 53.535z" /></svg>