<?xml version="1.0" standalone="no"?><!DOCTYPE svg PUBLIC "-//W3C//DTD SVG 1.1//EN" "http://www.w3.org/Graphics/SVG/1.1/DTD/svg11.dtd"><svg class="icon" width="200px" height="200.00px" viewBox="0 0 1024 1024" version="1.1" xmlns="http://www.w3.org/2000/svg"><path d="M735.98 776.437l0.005 55.574c0.006 17.673-14.32 32.002-31.993 32.004 0 0-0.002 0-0.003-0.004H96c-17.673 0.008-32-14.32-32-31.992 0-0.003 0-0.005 0.008-0.008l0.013-55.574c1.355-83.578 68.86-151.075 152.441-152.417L581 624c84.748 0 153.61 68.015 154.98 152.437zM884 576H684c-15.464 0-28-12.536-28-28v-8c0-15.464 12.536-28 28-28h200c15.464 0 28 12.536 28 28v8c0 15.464-12.536 28-28 28zM399 160c116.532 0 211 94.468 211 211s-94.468 211-211 211-211-94.468-211-211 94.468-211 211-211z" /></svg>