<svg t="1584352027146" class="icon" viewBox="0 0 1024 1024" version="1.1" xmlns="http://www.w3.org/2000/svg" p-id="36975" width="200" height="200"><path d="M711.636 477.889l1.295 0.899 0.295 0.206c121.648 85.392 207.179 246.556 222.257 437.892l0.436 5.808 0.305 4.285c0.054 0.759 0.08 1.52 0.08 2.28 0 17.497-14.052 31.709-31.48 31.99l-785.12-0.25a32 32 0 0 1-2.272-0.081c-17.451-1.247-30.631-16.267-29.67-33.672l0.033-0.528 0.306-4.284c13.844-193.717 99.805-357.134 222.57-443.368l1.647-1.145a14.53 14.53 0 0 1 17.624 0.859l0.27 0.234C378.582 521.935 442.247 548 512 548c69.075 0 132.18-25.56 180.372-67.738l1.456-1.283a14.46 14.46 0 0 1 17.808-1.09zM512 64c115.98 0 210 94.02 210 210s-94.02 210-210 210-210-94.02-210-210S396.02 64 512 64z" p-id="36976"></path></svg>