<?xml version="1.0" standalone="no"?><!DOCTYPE svg PUBLIC "-//W3C//DTD SVG 1.1//EN" "http://www.w3.org/Graphics/SVG/1.1/DTD/svg11.dtd"><svg class="icon" width="200px" height="200.00px" viewBox="0 0 1024 1024" version="1.1" xmlns="http://www.w3.org/2000/svg"><path d="M911.98 812.437l0.007 67.573c0.005 17.673-14.32 32.002-31.994 32.004 0 0-0.002 0-0.003-0.004H144c-17.673 0.007-32-14.32-32-31.993 0-0.002 0-0.005 0.007-0.007l0.014-67.573c1.355-83.578 68.86-151.075 152.441-152.417l2.773-0.02H757c84.748 0 153.61 68.015 154.98 152.437zM512 112c141.385 0 256 114.615 256 256S653.385 624 512 624 256 509.385 256 368s114.615-256 256-256z" /></svg>