<svg t="1597905392608" class="icon" viewBox="0 0 1024 1024" version="1.1" xmlns="http://www.w3.org/2000/svg" p-id="3545" width="200" height="200"><path d="M793.402 335.594l-177-181v149c0 17.673 14.327 32 32 32h145zM551.126 124H238.12c-11 0-20.283 3.75-27.814 11.255-7.55 7.5-11.306 16.681-11.306 27.545v698.4c0 10.864 3.756 20.176 11.306 27.551 7.524 7.5 16.814 11.249 27.807 11.249h547.774c11.03 0 20.295-3.75 27.832-11.255C821.22 881.376 825 872.064 825 861.2V395.6H615.126c-35.346 0-64-28.654-64-64V124z m73.992-64L889 323.667V851c0 31.14-11.039 57.88-33.116 79.853C833.79 952.953 807.146 964 775.9 964H248.1c-31.198 0-57.865-11.047-79.96-33.147C146.045 908.88 135 882.14 135 851V173c0-31.14 11.045-57.754 33.14-79.853C190.235 71.047 216.902 60 248.1 60H625.118z" p-id="3546"></path></svg>
