<?xml version="1.0" standalone="no"?><!DOCTYPE svg PUBLIC "-//W3C//DTD SVG 1.1//EN" "http://www.w3.org/Graphics/SVG/1.1/DTD/svg11.dtd"><svg class="icon" width="200px" height="200.00px" viewBox="0 0 1024 1024" version="1.1" xmlns="http://www.w3.org/2000/svg"><path d="M553.138 334.639l253.016 212.31c16.077 13.49 18.174 37.459 4.684 53.536l-5.14 6.125c-13.49 16.076-37.459 18.174-53.536 4.684L552 443.342V847.59c0 19.882-16.117 36-35.999 36h-8c-19.882 0-36-16.118-36-36l-0.001-404.253-200.165 167.959c-16.077 13.49-40.046 11.393-53.536-4.684l-5.142-6.128c-13.49-16.077-11.393-40.046 4.684-53.536L470.86 334.64c23.793-19.965 58.485-19.965 82.277 0zM828 220H196c-19.882 0-36-16.118-36-36v-8c0-19.882 16.118-36 36-36h632c19.882 0 36 16.118 36 36v8c0 19.882-16.118 36-36 36z" /></svg>