<?xml version="1.0" standalone="no"?><!DOCTYPE svg PUBLIC "-//W3C//DTD SVG 1.1//EN" "http://www.w3.org/Graphics/SVG/1.1/DTD/svg11.dtd"><svg class="icon" width="200px" height="200.00px" viewBox="0 0 1024 1024" version="1.1" xmlns="http://www.w3.org/2000/svg"><path d="M828 883.591H196c-19.882 0-36-16.118-36-36v-8c0-19.882 16.118-36 36-36h632c19.882 0 36 16.118 36 36v8c0 19.882-16.118 36-36 36zM552 176l-0.001 404.26 200.17-167.963c16.078-13.49 40.046-11.392 53.536 4.684l5.143 6.129c13.49 16.077 11.393 40.045-4.684 53.535L553.141 688.957c-23.792 19.964-58.484 19.964-82.276 0L217.84 476.645c-16.077-13.49-18.174-37.459-4.684-53.535l5.142-6.129c13.49-16.077 37.459-18.173 53.536-4.683l200.165 167.958V176c0.001-19.882 16.119-36 36-36H516c19.882 0 36 16.118 36 36z" /></svg>