<?xml version="1.0" standalone="no"?><!DOCTYPE svg PUBLIC "-//W3C//DTD SVG 1.1//EN" "http://www.w3.org/Graphics/SVG/1.1/DTD/svg11.dtd"><svg t="1591779734453" class="icon" viewBox="0 0 1024 1024" version="1.1" xmlns="http://www.w3.org/2000/svg" p-id="4982" xmlns:xlink="http://www.w3.org/1999/xlink" width="200" height="200"><defs><style type="text/css"></style></defs><path d="M839.52 163h-97.853v46.619c0 30.646-25.021 55.44-55.53 55.44-30.51 0-55.624-24.98-55.624-55.44V163l-234.398 0.093v46.526c0 30.646-25.022 55.44-55.53 55.44-30.51 0-55.53-24.98-55.53-55.44v-46.526L187.201 163C137.904 163 98 202.84 98 252.059V383h831V252.059c-0.279-49.22-40.183-89.059-89.48-89.059z" p-id="4983"></path><path d="M341.007 244.086c15.256 0 27.629-12.285 27.629-27.641V142.64c0-15.263-12.28-27.641-27.63-27.641-15.348 0-27.628 12.285-27.628 27.641v73.897c0.093 15.17 12.373 27.548 27.629 27.548z m343.73 0c15.257 0 27.63-12.285 27.63-27.641V142.64c0-15.263-12.28-27.641-27.63-27.641-15.256 0-27.628 12.285-27.628 27.641v73.897c0 15.17 12.372 27.548 27.628 27.548zM186.212 930h652.576C888.092 930 928 890.074 928 840.747v-396.75H97v396.75C97 890.074 136.908 930 186.212 930z" p-id="4984"></path></svg>