<svg t="1610506280712" class="icon" viewBox="0 0 1097 1024" version="1.1" xmlns="http://www.w3.org/2000/svg" p-id="6262" width="100" height="100"><path d="M573.342476 0h74.581334v95.280762c133.38819 1.097143 266.654476-1.316571 399.798857 1.097143a45.202286 45.202286 0 0 1 36.010666 11.751619c9.411048 8.923429 13.897143 21.382095 12.117334 33.792 2.194286 234.666667 0 469.820952 1.29219 704.121905-1.29219 24.137143 2.438095 50.736762-12.117333 72.313904-18.212571 12.04419-41.691429 10.825143-62.976 12.044191H647.92381V1024H570.514286C380.342857 991.329524 190.171429 960.999619 0 929.182476V95.524571C191.073524 63.585524 382.293333 32.52419 573.342476 0z" fill="#E6E7EB" p-id="6263"></path><path d="M650.898286 119.466667H1062.278095v768H650.898286v-96.012191h324.169143v-48.518095H650.898286v-59.489524h324.169143v-48.542476H650.898286v-59.489524h324.169143v-48.518095H650.898286v-60.708572h324.169143v-46.713904H650.898286v-60.684191h324.169143v-47.323428H650.898286v-60.074667h324.169143V203.459048H650.898286V119.466667zM260.87619 331.483429c23.747048-1.316571 47.37219-2.29181 71.119239-3.510858 16.62781 81.066667 33.54819 161.889524 51.614476 242.736762 14.06781-83.382857 29.671619-166.4 44.787809-249.539047 24.892952-0.853333 49.810286-2.194286 74.703238-3.657143-28.257524 116.297143-52.906667 233.642667-83.748571 349.184-20.772571 10.435048-51.614476 0-76.653714 1.219047-17.310476-79.60381-36.522667-158.622476-51.370667-238.372571-14.57981 77.55581-33.54819 154.38019-50.200381 231.326476-23.990857-1.219048-48.006095-2.535619-72.143238-4.120381-20.650667-105.569524-45.031619-210.578286-64.512-316.391619 21.284571-0.975238 42.715429-1.828571 64.512-2.56 12.921905 76.458667 27.501714 152.551619 38.716952 229.132191 17.310476-78.506667 35.230476-156.91581 53.174857-235.446857z" fill="#FFFFFF" p-id="6264"></path></svg>
