<?xml version="1.0" standalone="no"?><!DOCTYPE svg PUBLIC "-//W3C//DTD SVG 1.1//EN" "http://www.w3.org/Graphics/SVG/1.1/DTD/svg11.dtd"><svg class="icon" width="200px" height="200.00px" viewBox="0 0 1024 1024" version="1.1" xmlns="http://www.w3.org/2000/svg"><path d="M182.667 200.414c128.482-128.482 336.794-128.482 465.276 0 119.298 119.298 127.826 307.419 25.585 436.557l202.63 202.632c13.278 13.278 13.278 34.806 0 48.084l-5.657 5.657c-13.278 13.278-34.805 13.278-48.083 0L619.85 690.777c-129.155 102.767-317.693 94.405-437.184-25.086-128.483-128.483-128.483-336.794 0-465.277z m50.912 50.912c-100.365 100.365-100.365 263.088 0 363.453 100.364 100.365 263.088 100.365 363.452 0 100.365-100.365 100.365-263.088 0-363.453-100.364-100.365-263.088-100.365-363.452 0zM532.2 464.4l-216 0.002c-15.464 0-28-12.536-28-28v-8c0-15.464 12.536-28 28-28h216c15.464 0 28 12.536 28 28v7.997c0 15.464-12.536 28-28 28z" /></svg>